<svg width="54" height="126" viewBox="0 0 54 126" fill="none" xmlns="http://www.w3.org/2000/svg">
<path d="M4.58175 0.765816C4.15068 0.345762 3.59154 0.0818956 2.99325 0.0161515C2.39496 -0.0495925 1.79187 0.0865506 1.27986 0.402972C0.767855 0.719394 0.376335 1.19792 0.167551 1.76244C-0.0412323 2.32695 -0.0552927 2.94508 0.127608 3.51851C1.201 6.99583 2.51923 10.3928 4.0724 13.6839C8.40733 22.8631 21.087 55.8195 27.0367 73.9178C32.9864 92.0162 41.3095 125.785 41.3095 125.785L54 123.726C54 123.726 42.3932 68.2933 31.0899 48.255C21.9757 32.1941 12.8506 8.98052 4.58175 0.765816Z" fill="#455A64"/>
</svg>
