<svg width="36" height="71" viewBox="0 0 36 71" fill="none" xmlns="http://www.w3.org/2000/svg">
<path d="M0.42768 70.9951C0.363829 70.9885 0.30198 70.969 0.24583 70.9379C0.189679 70.9068 0.140381 70.8646 0.100899 70.814C0.0614159 70.7634 0.0325596 70.7053 0.0160495 70.6433C-0.000460594 70.5813 -0.00428338 70.5165 0.0048157 70.453C6.09841 20.5766 34.8424 0.279083 35.1351 0.0839141C35.1871 0.048317 35.2456 0.0233223 35.3072 0.0103236C35.3689 -0.00267513 35.4325 -0.00340586 35.4944 0.00817276C35.5563 0.0197514 35.6153 0.0433994 35.6681 0.0777926C35.7209 0.112186 35.7664 0.156656 35.802 0.208628C35.8376 0.260599 35.8626 0.319054 35.8756 0.380692C35.8886 0.44233 35.8893 0.505924 35.8777 0.567845C35.8661 0.629765 35.8425 0.68882 35.8081 0.741596C35.7737 0.794372 35.7292 0.839845 35.6773 0.875442C35.3953 1.08145 7.0092 21.1404 0.980659 70.5723C0.972666 70.6366 0.951938 70.6986 0.919693 70.7548C0.887447 70.8111 0.844331 70.8603 0.792853 70.8996C0.741375 70.939 0.682568 70.9677 0.619871 70.9841C0.557173 71.0005 0.491838 71.0042 0.42768 70.9951Z" fill="#263238"/>
</svg>
