<svg width="16" height="5" viewBox="0 0 16 5" fill="none" xmlns="http://www.w3.org/2000/svg">
<path d="M0.487089 4.87556C0.422948 4.87421 0.359804 4.85948 0.301668 4.83235C0.243532 4.80522 0.191677 4.76627 0.149443 4.71798C0.102138 4.67184 0.0645486 4.61671 0.0388806 4.55583C0.0132125 4.49494 0 4.42953 0 4.36345C0 4.29737 0.0132125 4.232 0.0388806 4.17111C0.0645486 4.11022 0.102138 4.05509 0.149443 4.00896C0.216971 3.95268 6.90231 -2.25996 15.726 0.891369C15.835 0.947641 15.9198 1.04155 15.9648 1.15563C16.0097 1.26971 16.0118 1.39622 15.9706 1.51171C15.9293 1.62719 15.8476 1.72378 15.7405 1.78356C15.6334 1.84334 15.5083 1.86224 15.3884 1.83676C7.17242 -1.11198 0.903523 4.68424 0.847249 4.74051C0.799637 4.78644 0.74311 4.82211 0.681165 4.84534C0.61922 4.86856 0.553164 4.87886 0.487089 4.87556Z" fill="#263238"/>
</svg>
