<svg width="14" height="13" viewBox="0 0 14 13" fill="none" xmlns="http://www.w3.org/2000/svg">
<path d="M1.88418 8.28758C3.84846 9.87454 12.1384 13.903 13.7254 11.9387C15.3123 9.9744 9.58594 2.73873 7.62166 1.15177C7.1573 0.740625 6.61434 0.42802 6.02563 0.232848C5.43693 0.0376759 4.81473 -0.0359796 4.19673 0.0163341C3.57873 0.0686478 2.97777 0.245827 2.43025 0.53718C1.88273 0.828533 1.40004 1.22798 1.01141 1.71133C0.622773 2.19468 0.336281 2.75188 0.16928 3.34918C0.00227852 3.94649 -0.0417581 4.57149 0.0398386 5.18632C0.121435 5.80114 0.326961 6.39301 0.643981 6.92608C0.961001 7.45915 1.38292 7.92233 1.88418 8.28758Z" fill="#606C38"/>
</svg>
