<svg width="32" height="32" viewBox="0 0 32 32" fill="none" xmlns="http://www.w3.org/2000/svg">
<path d="M1.3335 28.0001L16.0002 2.66675L30.6668 28.0001H1.3335ZM16.0002 24.0001C16.3779 24.0001 16.6948 23.8721 16.9508 23.6161C17.2068 23.3601 17.3344 23.0436 17.3335 22.6667C17.3335 22.289 17.2055 21.9721 16.9495 21.7161C16.6935 21.4601 16.3771 21.3325 16.0002 21.3334C15.6224 21.3334 15.3055 21.4614 15.0495 21.7174C14.7935 21.9734 14.6659 22.2899 14.6668 22.6667C14.6668 23.0445 14.7948 23.3614 15.0508 23.6174C15.3068 23.8734 15.6233 24.001 16.0002 24.0001ZM14.6668 20.0001H17.3335V13.3334H14.6668V20.0001Z" fill="#BA0000"/>
</svg>
