<svg width="34" height="89" viewBox="0 0 34 89" fill="none" xmlns="http://www.w3.org/2000/svg">
<path d="M33.4903 88.6281C33.3693 88.6227 33.255 88.5715 33.1704 88.4849C33.0858 88.3983 33.0373 88.2827 33.0347 88.1617L32.4056 74.939C30.5507 30.9753 0.406308 1.0804 0.102587 0.787521C0.0304768 0.694658 -0.00569158 0.578887 0.000728787 0.461489C0.00714915 0.344091 0.0557285 0.232946 0.137535 0.1485C0.219342 0.0640543 0.328879 0.0119636 0.446014 0.00182051C0.563149 -0.00832259 0.680011 0.0241578 0.775116 0.0932842C1.07884 0.397006 31.5052 30.5414 33.371 74.939L34.0001 88.1617C34.0031 88.2894 33.9559 88.4131 33.8687 88.5064C33.7815 88.5997 33.6612 88.655 33.5337 88.6607L33.4903 88.6281Z" fill="#263238"/>
</svg>
