<svg width="10" height="28" viewBox="0 0 10 28" fill="none" xmlns="http://www.w3.org/2000/svg">
<path d="M0.473911 28C0.347746 27.9971 0.22771 27.9449 0.139506 27.8547C0.0513016 27.7644 0.00194613 27.6432 0.00197872 27.517C-0.151676 12.2393 8.69447 0.309112 8.78227 0.188383C8.86224 0.0890001 8.97684 0.0235616 9.10308 0.00523699C9.22931 -0.0130876 9.35782 0.0170642 9.46274 0.0896088C9.51462 0.128524 9.55834 0.177255 9.59139 0.233064C9.62443 0.288874 9.64616 0.350664 9.65533 0.414871C9.6645 0.479077 9.66094 0.544465 9.64485 0.607295C9.62875 0.670124 9.60043 0.729142 9.56151 0.781029C9.47371 0.890782 0.781229 12.5796 0.978786 27.5061C0.978817 27.6352 0.928288 27.7592 0.838026 27.8515C0.747764 27.9438 0.624943 27.9971 0.495867 28H0.473911Z" fill="#263238"/>
</svg>
