<svg width="218" height="207" viewBox="0 0 218 207" fill="none" xmlns="http://www.w3.org/2000/svg">
<path d="M208.047 182.931H124.064L108.022 206.698L92.3682 182.931H9.87617C8.62206 182.931 7.38022 182.684 6.22158 182.204C5.06293 181.724 4.01016 181.021 3.12337 180.134C2.23658 179.247 1.53314 178.194 1.05321 177.036C0.573285 175.877 0.32627 174.635 0.32627 173.381V9.81223C0.32485 8.55721 0.570822 7.31422 1.05011 6.15432C1.5294 4.99443 2.23262 3.94039 3.11955 3.05245C4.00648 2.16452 5.05973 1.46011 6.21908 0.979508C7.37843 0.498906 8.62115 0.251535 9.87617 0.251536H208.047C209.302 0.251535 210.545 0.498906 211.704 0.979508C212.864 1.46011 213.917 2.16452 214.804 3.05245C215.691 3.94039 216.394 4.99443 216.873 6.15432C217.353 7.31422 217.599 8.55721 217.597 9.81223V173.424C217.586 175.95 216.575 178.368 214.785 180.149C212.995 181.931 210.573 182.931 208.047 182.931Z" fill="#FAFAFA"/>
<path d="M208.047 182.931H208.566C209.086 182.897 209.603 182.822 210.11 182.704C211.843 182.313 213.431 181.443 214.693 180.194C215.955 178.945 216.842 177.367 217.251 175.639C217.351 175.229 217.426 174.815 217.478 174.397C217.478 173.964 217.532 173.521 217.478 173.068C217.478 172.16 217.478 171.21 217.478 170.227C217.478 166.28 217.478 161.746 217.478 156.626C217.478 136.1 217.424 106.521 217.392 69.9311C217.392 51.6199 217.392 31.5803 217.392 10.0606C217.438 8.04534 216.832 6.0691 215.664 4.42616C214.496 2.78322 212.828 1.56147 210.91 0.94283C209.606 0.546295 208.24 0.392506 206.88 0.489104H154.594H78.659H10.1893C9.74639 0.489104 9.33587 0.489104 8.91456 0.489104C8.49608 0.538512 8.08114 0.614283 7.6722 0.715967C6.02028 1.11333 4.51077 1.9607 3.31128 3.16401C2.11178 4.36732 1.2692 5.87951 0.877087 7.53269C0.601176 9.06106 0.510496 10.6171 0.607011 12.1672V81.3067C0.607011 105.235 0.607011 128.419 0.607011 150.641V171.166C0.544211 172.494 0.60206 173.825 0.779855 175.142C1.03023 176.415 1.54401 177.621 2.2882 178.683C3.03238 179.745 3.99052 180.64 5.10107 181.31C6.20484 181.978 7.43887 182.402 8.7201 182.553C9.98406 182.682 11.3344 182.607 12.6308 182.628H35.7601H92.3681H92.4869L92.5517 182.726L108.184 206.492H107.86L123.924 182.726L123.978 182.65H124.064L186.03 182.931L124.118 183.007L124.259 182.931C119.289 190.335 113.949 198.275 108.238 206.752L108.076 207L107.914 206.752L92.2492 182.985L92.4221 183.082H35.8141H12.6632C11.3452 183.082 10.0597 183.136 8.69849 183.007C6.66597 182.774 4.7566 181.913 3.23648 180.544C1.71636 179.175 0.661215 177.366 0.218101 175.369C0.0250431 174.02 -0.0400654 172.657 0.0236456 171.296V150.77C0.0236456 128.548 0.0236456 105.397 0.0236456 81.4363V9.89856C-0.00166408 7.68093 0.726095 5.52031 2.08795 3.76992C3.4498 2.01953 5.36518 0.782918 7.52096 0.262241C7.95498 0.156 8.39514 0.0766253 8.83893 0.0245726C9.28186 0.0245726 9.73558 0.0245726 10.1677 0.0245726H206.891C208.303 -0.066968 209.719 0.0977291 211.072 0.510706C212.415 0.964668 213.646 1.70144 214.68 2.67132C215.711 3.61713 216.525 4.77418 217.068 6.06347C217.594 7.34815 217.855 8.72628 217.835 10.1146C217.835 31.6343 217.835 51.6739 217.835 69.9851C217.835 106.575 217.77 136.197 217.748 156.68C217.748 161.8 217.748 166.334 217.748 170.281C217.748 171.264 217.748 172.214 217.748 173.122C217.748 173.576 217.748 174.029 217.694 174.461C217.648 174.887 217.572 175.31 217.467 175.725C217.044 177.472 216.137 179.063 214.852 180.318C213.566 181.574 211.953 182.442 210.197 182.823C209.688 182.93 209.171 182.991 208.652 183.007L208.047 182.931Z" fill="#263238"/>
<path d="M84.7412 100.828C84.7412 102.988 83.1531 104.263 80.6036 104.263H78.6915V106.888H76.5309V97.3707H80.6468C83.1531 97.4139 84.7412 98.7319 84.7412 100.828ZM82.5049 100.828C82.5049 99.7474 81.8351 99.164 80.4848 99.164H78.6915V102.47H80.4848C81.8351 102.513 82.5049 101.908 82.5049 100.828Z" fill="#263238"/>
<path d="M92.5516 102.762V106.932H90.5638V106.024C90.3173 106.377 89.9809 106.657 89.5895 106.835C89.1982 107.014 88.7662 107.084 88.3384 107.04C86.6315 107.04 85.6052 106.089 85.6052 104.825C85.6052 103.561 86.5234 102.664 88.7489 102.664H90.4341C90.4341 101.757 89.894 101.228 88.7489 101.228C87.9917 101.221 87.2527 101.46 86.6423 101.908L85.8753 100.428C86.8159 99.8271 87.9138 99.5188 89.0298 99.5422C91.266 99.5098 92.5516 100.547 92.5516 102.762ZM90.3909 104.62V103.874H88.9325C87.9386 103.874 87.6254 104.242 87.6254 104.728C87.6254 105.214 88.0791 105.614 88.8245 105.614C89.1645 105.646 89.5057 105.566 89.7963 105.387C90.0869 105.208 90.3109 104.938 90.4341 104.62H90.3909Z" fill="#263238"/>
<path d="M93.7618 106.229L94.464 104.706C95.2363 105.163 96.1164 105.405 97.0135 105.408C97.9858 105.408 98.3531 105.16 98.3531 104.749C98.3531 103.55 93.9346 104.749 93.9346 101.854C93.9346 100.471 95.1878 99.4882 97.3268 99.4882C98.3005 99.4732 99.2637 99.6918 100.136 100.126L99.4334 101.638C98.7751 101.266 98.0285 101.08 97.2728 101.098C96.3221 101.098 95.9116 101.39 95.9116 101.768C95.9116 103.021 100.33 101.768 100.33 104.695C100.33 106.057 99.0661 107.018 96.8731 107.018C95.7856 107.026 94.7143 106.754 93.7618 106.229Z" fill="#263238"/>
<path d="M100.978 106.229L101.68 104.706C102.449 105.161 103.326 105.403 104.219 105.408C105.202 105.408 105.569 105.16 105.569 104.749C105.569 103.55 101.151 104.749 101.151 101.854C101.151 100.471 102.404 99.4881 104.532 99.4881C105.51 99.4718 106.477 99.6904 107.352 100.126L106.639 101.638C105.997 101.273 105.27 101.087 104.532 101.098C103.582 101.098 103.182 101.389 103.182 101.768C103.182 103.021 107.59 101.768 107.59 104.695C107.59 106.056 106.326 107.018 104.143 107.018C103.038 107.037 101.946 106.765 100.978 106.229Z" fill="#263238"/>
<path d="M120.499 99.6179L117.852 106.932H115.811L114.168 102.394L112.472 106.932H110.409L107.773 99.6179H109.772L111.5 104.566L113.293 99.6179H115.087L116.826 104.566L118.609 99.6179H120.499Z" fill="#263238"/>
<path d="M120.747 103.28C120.696 102.476 120.886 101.675 121.295 100.981C121.704 100.287 122.312 99.7319 123.04 99.3876C123.768 99.0433 124.583 98.9258 125.379 99.0503C126.175 99.1749 126.915 99.5357 127.503 100.086C128.092 100.636 128.501 101.351 128.678 102.136C128.855 102.922 128.792 103.743 128.497 104.493C128.202 105.242 127.689 105.886 127.023 106.34C126.358 106.794 125.572 107.038 124.766 107.039C124.251 107.075 123.734 107.004 123.248 106.831C122.761 106.658 122.316 106.387 121.939 106.034C121.562 105.682 121.261 105.255 121.056 104.781C120.851 104.307 120.746 103.796 120.747 103.28ZM126.635 103.28C126.608 102.915 126.474 102.566 126.252 102.276C126.029 101.985 125.726 101.766 125.38 101.646C125.035 101.525 124.661 101.508 124.306 101.597C123.951 101.685 123.629 101.875 123.381 102.144C123.132 102.413 122.968 102.748 122.907 103.109C122.846 103.47 122.892 103.841 123.039 104.176C123.187 104.511 123.428 104.796 123.735 104.996C124.042 105.195 124.4 105.301 124.766 105.3C125.024 105.3 125.278 105.246 125.513 105.142C125.749 105.038 125.96 104.886 126.134 104.696C126.307 104.506 126.44 104.282 126.522 104.038C126.605 103.795 126.636 103.536 126.614 103.28H126.635Z" fill="#263238"/>
<path d="M134.727 99.5099V101.465H134.252C133.982 101.44 133.711 101.476 133.458 101.57C133.204 101.665 132.975 101.815 132.788 102.01C132.601 102.206 132.461 102.441 132.377 102.698C132.294 102.956 132.27 103.228 132.307 103.496V106.953H130.147V99.6395H132.178V100.601C132.48 100.223 132.871 99.9261 133.315 99.7357C133.76 99.5454 134.245 99.4678 134.727 99.5099Z" fill="#263238"/>
<path d="M143.369 96.8522V106.931H141.349V106.089C141.066 106.41 140.714 106.662 140.319 106.827C139.924 106.992 139.497 107.064 139.07 107.039C138.067 107.039 137.105 106.641 136.396 105.932C135.687 105.223 135.289 104.261 135.289 103.258C135.289 102.256 135.687 101.294 136.396 100.585C137.105 99.8757 138.067 99.4773 139.07 99.4773C139.472 99.4614 139.874 99.5322 140.246 99.6851C140.619 99.8379 140.955 100.069 141.23 100.363V96.8198L143.369 96.8522ZM141.295 103.334C141.268 102.969 141.134 102.62 140.912 102.33C140.689 102.039 140.386 101.82 140.04 101.7C139.695 101.579 139.321 101.562 138.966 101.65C138.611 101.739 138.289 101.929 138.041 102.198C137.792 102.467 137.628 102.802 137.567 103.163C137.506 103.524 137.552 103.895 137.699 104.23C137.847 104.565 138.088 104.85 138.395 105.05C138.702 105.249 139.06 105.355 139.426 105.354C139.69 105.358 139.952 105.304 140.194 105.199C140.436 105.093 140.653 104.936 140.83 104.74C141.007 104.544 141.14 104.312 141.22 104.06C141.3 103.808 141.326 103.542 141.295 103.28V103.334Z" fill="#263238"/>
<path d="M55.6918 123.341H41.9287C38.6592 123.341 36.0087 125.992 36.0087 129.261V152.845C36.0087 156.114 38.6592 158.765 41.9287 158.765H55.6918C58.9614 158.765 61.6119 156.114 61.6119 152.845V129.261C61.6119 125.992 58.9614 123.341 55.6918 123.341Z" fill="#EBEBEB"/>
<path d="M116.113 123.341H103.042C99.7721 123.341 97.1216 125.992 97.1216 129.261V152.845C97.1216 156.114 99.7721 158.765 103.042 158.765H116.113C119.383 158.765 122.033 156.114 122.033 152.845V129.261C122.033 125.992 119.383 123.341 116.113 123.341Z" fill="#EBEBEB"/>
<path d="M86.1669 123.341H73.0953C69.8257 123.341 67.1752 125.992 67.1752 129.261V152.845C67.1752 156.114 69.8257 158.765 73.0953 158.765H86.1669C89.4365 158.765 92.087 156.114 92.087 152.845V129.261C92.087 125.992 89.4365 123.341 86.1669 123.341Z" fill="#EBEBEB"/>
<path d="M146.621 123.341H132.847C129.577 123.341 126.927 125.992 126.927 129.261V152.845C126.927 156.114 129.577 158.765 132.847 158.765H146.621C149.89 158.765 152.541 156.114 152.541 152.845V129.261C152.541 125.992 149.89 123.341 146.621 123.341Z" fill="#EBEBEB"/>
<path d="M175.994 123.341H162.22C158.951 123.341 156.3 125.992 156.3 129.261V152.845C156.3 156.114 158.951 158.765 162.22 158.765H175.994C179.264 158.765 181.914 156.114 181.914 152.845V129.261C181.914 125.992 179.264 123.341 175.994 123.341Z" fill="#EBEBEB"/>
<path d="M52.0728 140.118L54.806 141.598L53.5745 143.662L50.8197 142.02V145.066H48.4646V141.998L45.6991 143.662L44.4891 141.598L47.2331 140.118L44.4891 138.606L45.6991 136.543L48.4646 138.206V135.138H50.8197V138.206L53.5745 136.543L54.806 138.606L52.0728 140.118Z" fill="#606C38"/>
<path d="M81.954 139.956L84.698 141.436L83.4664 143.5L80.7009 141.879L80.7549 144.926H78.389V141.858L75.6234 143.521L74.4243 141.458L77.1575 139.978L74.4243 138.466L75.6234 136.402L78.389 138.066V134.998H80.7549L80.7009 138.066L83.4664 136.402L84.698 138.466L81.954 139.956Z" fill="#606C38"/>
<path d="M112.57 139.956L115.314 141.436L114.082 143.5L111.263 141.879L111.317 144.926H108.951V141.858L106.185 143.521L105.008 141.436L107.741 139.956L105.008 138.444L106.207 136.381L108.972 138.044V134.976H111.338L111.284 138.044L114.05 136.381L115.281 138.444L112.57 139.956Z" fill="#606C38"/>
<path d="M142.127 139.956L144.86 141.436L143.628 143.5L140.863 141.879L140.917 144.926H138.551V141.858L135.785 143.521L134.576 141.458L137.32 139.978L134.576 138.466L135.785 136.402L138.551 138.066V134.998H140.917L140.863 138.066L143.628 136.402L144.86 138.466L142.127 139.956Z" fill="#606C38"/>
<path d="M55.4326 158.991H42.188C40.55 158.989 38.98 158.337 37.8217 157.178C36.6635 156.02 36.0115 154.45 36.0087 152.812V129.305C36.0115 127.667 36.6635 126.097 37.8217 124.938C38.98 123.78 40.55 123.128 42.188 123.125H55.4326C57.0714 123.125 58.6432 123.776 59.802 124.935C60.9609 126.094 61.6119 127.666 61.6119 129.305V152.812C61.609 154.45 60.9571 156.02 59.7989 157.178C58.6406 158.337 57.0705 158.989 55.4326 158.991ZM42.188 123.514C40.6656 123.517 39.2066 124.124 38.1311 125.201C37.0556 126.279 36.4516 127.739 36.4516 129.261V152.769C36.4516 154.29 37.056 155.749 38.1318 156.825C39.2075 157.901 40.6666 158.505 42.188 158.505H55.4326C56.9549 158.505 58.4151 157.901 59.4926 156.826C60.5701 155.75 61.1769 154.291 61.1798 152.769V129.305C61.1769 127.781 60.5705 126.321 59.4933 125.244C58.4161 124.167 56.9559 123.56 55.4326 123.557L42.188 123.514Z" fill="#263238"/>
<path d="M86.1996 158.991H72.9443C71.3063 158.989 69.7362 158.337 68.578 157.178C67.4197 156.02 66.7678 154.45 66.7649 152.812V129.305C66.7678 127.667 67.4197 126.097 68.578 124.938C69.7362 123.78 71.3063 123.128 72.9443 123.125H86.1996C87.8366 123.128 89.4055 123.78 90.5621 124.939C91.7186 126.098 92.3681 127.668 92.3681 129.305V152.812C92.3681 154.449 91.7186 156.019 90.5621 157.178C89.4055 158.336 87.8366 158.989 86.1996 158.991ZM72.9443 123.514C71.4219 123.517 69.9628 124.124 68.8873 125.201C67.8119 126.279 67.2078 127.739 67.2078 129.261V152.769C67.2078 154.29 67.8122 155.749 68.888 156.825C69.9638 157.901 71.4229 158.505 72.9443 158.505H86.1996C87.721 158.505 89.1801 157.901 90.2559 156.825C91.3316 155.749 91.936 154.29 91.936 152.769V129.305C91.936 127.782 91.332 126.322 90.2565 125.245C89.181 124.167 87.722 123.56 86.1996 123.557L72.9443 123.514Z" fill="#263238"/>
<path d="M116.113 158.991H102.847C101.209 158.989 99.6391 158.337 98.4809 157.178C97.3227 156.02 96.6707 154.45 96.6679 152.812V129.305C96.6707 127.667 97.3227 126.097 98.4809 124.938C99.6391 123.78 101.209 123.128 102.847 123.125H116.103C117.74 123.128 119.309 123.78 120.465 124.939C121.622 126.098 122.271 127.668 122.271 129.305V152.812C122.271 154.447 121.623 156.016 120.469 157.174C119.315 158.332 117.748 158.986 116.113 158.991ZM102.847 123.514C101.325 123.517 99.8658 124.124 98.7903 125.201C97.7148 126.279 97.1108 127.739 97.1108 129.261V152.769C97.1108 154.29 97.7152 155.749 98.791 156.825C99.8668 157.901 101.326 158.505 102.847 158.505H116.103C116.856 158.505 117.602 158.357 118.298 158.069C118.994 157.78 119.626 157.358 120.159 156.825C120.691 156.292 121.114 155.66 121.402 154.964C121.691 154.268 121.839 153.522 121.839 152.769V129.305C121.839 127.782 121.235 126.322 120.159 125.245C119.084 124.167 117.625 123.56 116.103 123.557L102.847 123.514Z" fill="#263238"/>
<path d="M146.362 158.991H133.095C131.458 158.989 129.887 158.337 128.729 157.178C127.571 156.02 126.919 154.45 126.916 152.812V129.305C126.916 127.666 127.567 126.094 128.726 124.935C129.885 123.776 131.457 123.125 133.095 123.125H146.34C147.978 123.128 149.548 123.78 150.706 124.938C151.865 126.097 152.517 127.667 152.519 129.305V152.812C152.517 154.446 151.868 156.013 150.714 157.171C149.56 158.328 147.996 158.983 146.362 158.991ZM133.095 123.514C131.572 123.517 130.112 124.123 129.035 125.201C127.958 126.278 127.351 127.738 127.348 129.261V152.769C127.351 154.291 127.958 155.75 129.035 156.826C130.113 157.901 131.573 158.505 133.095 158.505H146.34C147.861 158.505 149.32 157.901 150.396 156.825C151.472 155.749 152.076 154.29 152.076 152.769V129.305C152.076 127.782 151.472 126.322 150.397 125.245C149.321 124.167 147.862 123.56 146.34 123.557L133.095 123.514Z" fill="#263238"/>
<path d="M175.735 158.991H162.49C160.853 158.989 159.282 158.337 158.124 157.178C156.966 156.02 156.314 154.45 156.311 152.812V129.305C156.311 127.666 156.962 126.094 158.121 124.935C159.28 123.776 160.852 123.125 162.49 123.125H175.735C177.373 123.128 178.943 123.78 180.101 124.938C181.26 126.097 181.912 127.667 181.914 129.305V152.812C181.912 154.45 181.26 156.02 180.101 157.178C178.943 158.337 177.373 158.989 175.735 158.991ZM162.49 123.514C160.967 123.517 159.507 124.123 158.43 125.201C157.353 126.278 156.746 127.738 156.743 129.261V152.769C156.746 154.291 157.353 155.75 158.43 156.826C159.508 157.901 160.968 158.505 162.49 158.505H175.735C177.256 158.505 178.715 157.901 179.791 156.825C180.867 155.749 181.471 154.29 181.471 152.769V129.305C181.471 127.782 180.867 126.322 179.792 125.245C178.716 124.167 177.257 123.56 175.735 123.557L162.49 123.514Z" fill="#263238"/>
<path d="M176.211 149.582C173.856 149.866 171.483 149.96 169.113 149.863C166.743 149.96 164.37 149.866 162.015 149.582C164.37 149.304 166.743 149.21 169.113 149.301C171.483 149.21 173.856 149.304 176.211 149.582Z" fill="#606C38"/>
<path d="M110.128 86.611C125.933 86.611 138.745 73.7986 138.745 57.9937C138.745 42.1888 125.933 29.3764 110.128 29.3764C94.3232 29.3764 81.5108 42.1888 81.5108 57.9937C81.5108 73.7986 94.3232 86.611 110.128 86.611Z" fill="#606C38"/>
<path d="M105.094 52.7867H104.619V50.1184C104.586 49.365 104.705 48.6127 104.971 47.9068C105.236 47.2009 105.642 46.5561 106.163 46.0113C106.685 45.4664 107.311 45.0328 108.005 44.7366C108.698 44.4404 109.445 44.2876 110.199 44.2876C110.953 44.2876 111.699 44.4404 112.393 44.7366C113.086 45.0328 113.712 45.4664 114.234 46.0113C114.755 46.5561 115.161 47.2009 115.426 47.9068C115.692 48.6127 115.812 49.365 115.778 50.1184V52.279H115.303V50.1184C115.335 49.4283 115.226 48.7389 114.984 48.092C114.742 47.445 114.371 46.8539 113.894 46.3543C113.417 45.8547 112.843 45.4571 112.208 45.1854C111.573 44.9137 110.889 44.7737 110.199 44.7737C109.508 44.7737 108.824 44.9137 108.189 45.1854C107.554 45.4571 106.98 45.8547 106.503 46.3543C106.026 46.8539 105.655 47.445 105.413 48.092C105.171 48.7389 105.062 49.4283 105.094 50.1184V52.7867Z" fill="white"/>
<path d="M117.226 71.4435H103.042C102.732 71.445 102.425 71.385 102.139 71.2672C101.852 71.1493 101.592 70.9759 101.373 70.7569C101.154 70.538 100.981 70.2778 100.863 69.9914C100.745 69.705 100.685 69.3981 100.687 69.0885V54.9041C100.687 54.2795 100.935 53.6804 101.376 53.2388C101.818 52.7971 102.417 52.549 103.042 52.549H117.226C117.85 52.5518 118.447 52.8009 118.888 53.2419C119.329 53.683 119.578 54.2803 119.581 54.9041V69.0885C119.581 69.7131 119.333 70.3121 118.891 70.7537C118.45 71.1954 117.851 71.4435 117.226 71.4435ZM103.042 53.0243C102.543 53.0243 102.065 53.2224 101.713 53.5749C101.36 53.9274 101.162 54.4055 101.162 54.9041V69.0885C101.162 69.3353 101.211 69.5797 101.305 69.8078C101.399 70.0359 101.538 70.2431 101.713 70.4176C101.887 70.5922 102.094 70.7306 102.322 70.8251C102.55 70.9196 102.795 70.9682 103.042 70.9682H117.226C117.473 70.9682 117.717 70.9196 117.945 70.8251C118.173 70.7306 118.381 70.5922 118.555 70.4176C118.73 70.2431 118.868 70.0359 118.963 69.8078C119.057 69.5797 119.106 69.3353 119.106 69.0885V54.9041C119.106 54.4055 118.908 53.9274 118.555 53.5749C118.203 53.2224 117.725 53.0243 117.226 53.0243H103.042Z" fill="white"/>
<path d="M110.204 62.4661C109.761 62.4682 109.327 62.3386 108.957 62.0937C108.588 61.8488 108.3 61.4997 108.129 61.0906C107.958 60.6816 107.913 60.231 107.999 59.7962C108.085 59.3615 108.298 58.962 108.612 58.6486C108.925 58.3352 109.325 58.122 109.759 58.0361C110.194 57.9501 110.645 57.9953 111.054 58.1659C111.463 58.3365 111.812 58.6248 112.057 58.9942C112.302 59.3636 112.431 59.7974 112.429 60.2406C112.426 60.83 112.191 61.3944 111.774 61.8111C111.357 62.2279 110.793 62.4632 110.204 62.4661ZM110.204 58.4906C109.858 58.4906 109.519 58.5932 109.231 58.7855C108.944 58.9778 108.719 59.2511 108.587 59.5709C108.454 59.8907 108.42 60.2426 108.487 60.5821C108.555 60.9216 108.721 61.2334 108.966 61.4782C109.211 61.7229 109.523 61.8896 109.862 61.9571C110.202 62.0246 110.554 61.99 110.873 61.8575C111.193 61.7251 111.467 61.5007 111.659 61.2129C111.851 60.9251 111.954 60.5868 111.954 60.2406C111.955 60.0104 111.911 59.7822 111.823 59.5692C111.736 59.3562 111.607 59.1627 111.444 58.9999C111.282 58.8372 111.088 58.7083 110.875 58.6208C110.662 58.5334 110.434 58.4891 110.204 58.4906Z" fill="white"/>
<path d="M110.366 62.1205H109.891V66.1393H110.366V62.1205Z" fill="white"/>
<path d="M207.021 18.3762C208.07 13.6098 205.056 8.89554 200.29 7.8467C195.523 6.79785 190.809 9.81156 189.76 14.578C188.711 19.3445 191.725 24.0587 196.491 25.1075C201.258 26.1564 205.972 23.1427 207.021 18.3762Z" fill="#E0E0E0"/>
<path d="M195.548 19.6212C195.512 19.6207 195.475 19.6128 195.442 19.598C195.409 19.5831 195.379 19.5616 195.354 19.5348C195.328 19.5105 195.307 19.4813 195.293 19.4487C195.279 19.4162 195.272 19.3812 195.272 19.3457C195.272 19.3103 195.279 19.2752 195.293 19.2427C195.307 19.2102 195.328 19.1809 195.354 19.1567L201.079 13.4311C201.104 13.4052 201.133 13.3846 201.165 13.3706C201.198 13.3565 201.233 13.3492 201.268 13.3492C201.304 13.3492 201.339 13.3565 201.371 13.3706C201.404 13.3846 201.433 13.4052 201.457 13.4311C201.484 13.4563 201.504 13.4865 201.519 13.5199C201.533 13.5533 201.54 13.5892 201.54 13.6255C201.54 13.6618 201.533 13.6978 201.519 13.7312C201.504 13.7646 201.484 13.7948 201.457 13.82L195.732 19.5348C195.684 19.5864 195.618 19.6174 195.548 19.6212Z" fill="white"/>
<path d="M201.263 19.6212C201.193 19.6174 201.127 19.5864 201.079 19.5348L195.354 13.82C195.327 13.7948 195.307 13.7646 195.292 13.7312C195.278 13.6978 195.271 13.6618 195.271 13.6255C195.271 13.5892 195.278 13.5533 195.292 13.5199C195.307 13.4865 195.327 13.4563 195.354 13.4311C195.378 13.4052 195.407 13.3846 195.44 13.3706C195.472 13.3565 195.507 13.3492 195.543 13.3492C195.578 13.3492 195.613 13.3565 195.646 13.3706C195.678 13.3846 195.707 13.4052 195.732 13.4311L201.457 19.1567C201.483 19.1809 201.504 19.2102 201.518 19.2427C201.532 19.2752 201.539 19.3103 201.539 19.3457C201.539 19.3812 201.532 19.4162 201.518 19.4487C201.504 19.4813 201.483 19.5105 201.457 19.5348C201.432 19.5616 201.402 19.5831 201.369 19.598C201.335 19.6128 201.299 19.6207 201.263 19.6212Z" fill="white"/>
</svg>
