<svg width="14" height="4" viewBox="0 0 14 4" fill="none" xmlns="http://www.w3.org/2000/svg">
<path d="M13.4688 3.53739H13.3917C13.3396 3.53359 13.2897 3.51445 13.2485 3.48234L13.0833 3.42726C9.10171 1.76317 4.82177 0.93117 0.506712 0.982417C0.377114 0.985424 0.2515 0.93755 0.156799 0.849025C0.0620981 0.760501 0.00585168 0.638382 0.000125079 0.508875C-0.00133731 0.443791 0.010036 0.37907 0.033599 0.318383C0.057162 0.257696 0.0924499 0.202225 0.137449 0.155181C0.182448 0.108136 0.236274 0.0704415 0.295854 0.0442059C0.355433 0.0179703 0.419606 0.00372652 0.48469 0.00229627C4.94538 -0.050384 9.37027 0.803869 13.4908 2.51321L13.645 2.57929H13.7331C13.8307 2.6266 13.9092 2.706 13.9553 2.80423C14.0014 2.90246 14.0124 3.01355 13.9864 3.1189C13.9699 3.24156 13.907 3.35327 13.8108 3.43109C13.7145 3.50891 13.5922 3.54694 13.4688 3.53739Z" fill="#263238"/>
</svg>
