<svg width="71" height="55" viewBox="0 0 71 55" fill="none" xmlns="http://www.w3.org/2000/svg">
<path d="M18.2333 24.8494L26.3126 39.8508L59.3069 11.8351C59.3647 11.7848 59.4014 11.7146 59.4099 11.6384C59.4184 11.5622 59.3979 11.4856 59.3526 11.4238C59.3073 11.362 59.2404 11.3195 59.1652 11.3047C59.09 11.2899 59.012 11.3038 58.9466 11.3438L28.0158 31.7605L23.2556 22.4584L18.2333 24.8494Z" fill="#606C38"/>
<path d="M0 54.7321L13.3418 39.8508C11.3419 37.9036 9.74557 35.5812 8.644 33.0165C7.54243 30.4518 6.95727 27.6951 6.92203 24.904C6.92203 11.1691 21.2902 0 38.9555 0C56.6209 0 71 11.1691 71 24.904C71 38.6389 56.6209 49.7972 38.9555 49.7972C32.7383 49.8506 26.6012 48.3931 21.0718 45.55L0 54.7321ZM38.9555 1.44118C22.0763 1.44118 8.38504 11.9771 8.38504 24.9259C8.42951 27.6434 9.02645 30.3234 10.1395 32.8028C11.2525 35.2823 12.8584 37.5094 14.8595 39.3486L15.3399 39.8181L5.45902 50.8344L21.1919 43.9997L21.4976 44.1634C26.8826 46.9933 32.8834 48.4485 38.9665 48.3996C55.8567 48.3996 69.5915 37.8747 69.5915 24.9259C69.5915 11.9771 55.8457 1.44118 38.9555 1.44118Z" fill="#606C38"/>
</svg>
