<svg width="37" height="37" viewBox="0 0 37 37" fill="none" xmlns="http://www.w3.org/2000/svg">
<g opacity="0.6">
<path d="M12.4345 4.9841C12.7072 7.44936 15.7069 16.0123 18.1286 15.7505C20.5502 15.4887 21.6519 6.47851 21.4011 4.01325C21.2723 2.8271 20.6776 1.74067 19.7479 0.99297C18.8181 0.245269 17.6294 -0.10246 16.4432 0.0262808C15.2571 0.155021 14.1707 0.749695 13.423 1.67946C12.6753 2.60923 12.3275 3.79795 12.4563 4.9841H12.4345Z" fill="white"/>
<path d="M24.4226 31.993C24.1499 29.5168 21.1501 20.9538 18.7285 21.2265C16.3069 21.4992 15.216 30.4876 15.456 32.9638C15.5848 34.1499 16.1794 35.2363 17.1092 35.984C18.039 36.7317 19.2277 37.0795 20.4138 36.9507C21.6 36.822 22.6864 36.2273 23.4341 35.2976C24.1818 34.3678 24.5295 33.1791 24.4008 31.993H24.4226Z" fill="white"/>
<path d="M4.98406 24.4771C7.44933 24.2153 16.0123 21.2592 15.7396 18.783C15.4669 16.3068 6.4785 15.2706 4.01323 15.5105C3.42591 15.5743 2.8569 15.7531 2.33868 16.0367C1.82046 16.3204 1.36318 16.7034 0.992955 17.1637C0.622731 17.6241 0.34681 18.1529 0.180945 18.7199C0.01508 19.2869 -0.03748 19.881 0.0262659 20.4684C0.0900118 21.0557 0.26881 21.6247 0.552462 22.1429C0.836114 22.6611 1.21907 23.1184 1.67944 23.4886C2.13981 23.8589 2.6686 24.1348 3.23561 24.3006C3.80262 24.4665 4.39674 24.5191 4.98406 24.4553V24.4771Z" fill="white"/>
<path d="M31.9275 12.4999C29.4623 12.7617 20.8993 15.7723 21.172 18.194C21.4447 20.6156 30.4331 21.7064 32.8984 21.4665C33.4941 21.4142 34.0735 21.2436 34.6025 20.9647C35.1315 20.6857 35.5995 20.3039 35.979 19.8417C36.3586 19.3795 36.6421 18.8462 36.8129 18.2731C36.9837 17.6999 37.0384 17.0985 36.9738 16.5039C36.9092 15.9094 36.7266 15.3337 36.4366 14.8106C36.1467 14.2875 35.7553 13.8276 35.2853 13.4577C34.8153 13.0879 34.2762 12.8155 33.6997 12.6567C33.1231 12.4978 32.5206 12.4556 31.9275 12.5326V12.4999Z" fill="white"/>
<path d="M4.64586 13.1762C6.57662 14.736 14.7251 18.6957 16.285 16.765C17.8448 14.8342 12.2162 7.72201 10.2854 6.16213C9.829 5.75801 9.2953 5.45074 8.71664 5.25889C8.13798 5.06705 7.52641 4.99465 6.91895 5.04608C6.31149 5.0975 5.72079 5.27165 5.18262 5.55803C4.64444 5.84441 4.16999 6.23704 3.78799 6.71214C3.40598 7.18724 3.12438 7.73493 2.96023 8.32205C2.79608 8.90916 2.75279 9.5235 2.833 10.1278C2.9132 10.7322 3.11522 11.3139 3.42683 11.8379C3.73844 12.3619 4.15316 12.8172 4.64586 13.1762Z" fill="white"/>
<path d="M32.2547 23.8008C30.3239 22.2409 22.1755 18.2812 20.6265 20.212C19.0775 22.1427 24.6844 29.2549 26.626 30.8039C27.0835 31.1936 27.6145 31.4877 28.1877 31.6686C28.7608 31.8496 29.3644 31.9137 29.9628 31.8572C30.5611 31.8008 31.1421 31.6249 31.6712 31.34C32.2004 31.055 32.6671 30.6668 33.0436 30.1984C33.4201 29.7299 33.6988 29.1907 33.8633 28.6126C34.0277 28.0346 34.0746 27.4294 34.001 26.8329C33.9275 26.2364 33.735 25.6607 33.4351 25.1399C33.1351 24.6191 32.7337 24.1638 32.2547 23.8008Z" fill="white"/>
<path d="M13.1218 32.2657C14.6817 30.3349 18.6414 22.1864 16.6997 20.6375C14.758 19.0885 7.66768 24.6953 6.1078 26.637C5.36139 27.5671 5.01504 28.7556 5.14495 29.9411C5.27485 31.1266 5.87036 32.2119 6.80048 32.9583C7.73059 33.7047 8.91912 34.0511 10.1046 33.9212C11.2901 33.7913 12.3754 33.1958 13.1218 32.2657Z" fill="white"/>
<path d="M23.7353 4.70049C22.1864 6.64216 18.2158 14.7797 20.1574 16.3396C22.0991 17.8995 29.1895 12.2708 30.7493 10.3401C31.1535 9.88364 31.4607 9.34993 31.6526 8.77128C31.8444 8.19262 31.9168 7.58104 31.8654 6.97359C31.814 6.36613 31.6398 5.77542 31.3535 5.23725C31.0671 4.69907 30.6744 4.22462 30.1993 3.84262C29.7242 3.46062 29.1765 3.179 28.5894 3.01485C28.0023 2.8507 27.388 2.80741 26.7837 2.88762C26.1793 2.96782 25.5976 3.16986 25.0736 3.48147C24.5496 3.79308 24.0943 4.20779 23.7353 4.70049Z" fill="white"/>
</g>
</svg>
