<svg width="32" height="33" viewBox="0 0 32 33" fill="none" xmlns="http://www.w3.org/2000/svg">
<path d="M16 11L24 6.875L16 2.75V16.5" stroke="#606C38" stroke-width="2" stroke-linecap="round" stroke-linejoin="round"/>
<path d="M10.6665 16.4863L3.33316 20.8038C3.12796 20.9237 2.95728 21.0976 2.83854 21.3078C2.71979 21.5179 2.65723 21.7568 2.65723 22C2.65723 22.2432 2.71979 22.4821 2.83854 22.6923C2.95728 22.9024 3.12796 23.0763 3.33316 23.1963L14.6665 29.8788C15.0719 30.1201 15.5317 30.2472 15.9998 30.2472C16.4679 30.2472 16.9278 30.1201 17.3332 29.8788L28.6665 23.1963C28.8717 23.0763 29.0424 22.9024 29.1611 22.6923C29.2799 22.4821 29.3424 22.2432 29.3424 22C29.3424 21.7568 29.2799 21.5179 29.1611 21.3078C29.0424 21.0976 28.8717 20.9237 28.6665 20.8038L21.3332 16.5M8.65316 17.6688L23.3465 26.3313M23.3465 17.6688L8.66649 26.3313" stroke="#606C38" stroke-width="2" stroke-linecap="round" stroke-linejoin="round"/>
</svg>
