<svg width="55" height="88" viewBox="0 0 55 88" fill="none" xmlns="http://www.w3.org/2000/svg">
<path d="M54.8871 88C54.5746 87.8254 54.2794 87.6213 54.0057 87.3906C53.4398 86.9662 52.5911 86.3677 51.5573 85.5299C49.4572 83.8758 46.5082 81.3622 43.0696 78.0433C34.2011 69.2906 26.5185 59.4129 20.2181 48.6628C13.9237 37.9068 8.68685 26.5658 4.58118 14.7991C2.99246 10.2941 1.839 6.60517 1.08817 4.04798C0.696426 2.76394 0.435266 1.76283 0.250278 1.08817C0.135086 0.73349 0.051337 0.369363 0 0C0.155483 0.322141 0.282906 0.657099 0.380856 1.00113C0.620253 1.7302 0.935822 2.70955 1.33844 3.9283C2.16545 6.46372 3.39508 10.12 5.02733 14.6032C9.2557 26.2824 14.5331 37.5547 20.7949 48.2819C27.0939 58.9806 34.7047 68.8505 43.4505 77.6624C46.8347 81.0248 49.7183 83.582 51.7641 85.2796C52.7761 86.1501 53.6031 86.7813 54.1254 87.2383C54.3995 87.4711 54.6542 87.7259 54.8871 88Z" fill="#263238"/>
</svg>
