<svg width="13" height="2" viewBox="0 0 13 2" fill="none" xmlns="http://www.w3.org/2000/svg">
<path d="M0.490111 1.66465C0.386463 1.66226 0.286145 1.62751 0.203205 1.56531C0.120264 1.5031 0.0588376 1.41653 0.0275213 1.3177C-0.0166494 1.18734 -0.00736654 1.0448 0.0533198 0.921262C0.114006 0.797722 0.221151 0.703266 0.351325 0.658549C0.547921 0.600726 5.11589 -0.84486 12.5865 0.739473C12.7199 0.770011 12.8363 0.850747 12.9117 0.964883C12.9871 1.07902 13.0156 1.21778 12.9913 1.35239C12.9635 1.48721 12.8833 1.60552 12.7684 1.68138C12.6536 1.75724 12.5133 1.78447 12.3784 1.75715C5.18529 0.230642 0.721387 1.62994 0.675129 1.6415C0.615591 1.66138 0.552711 1.66927 0.490111 1.66465Z" fill="#263238"/>
</svg>
