<svg width="50" height="65" viewBox="0 0 50 65" fill="none" xmlns="http://www.w3.org/2000/svg">
<g opacity="0.2">
<path d="M45.0509 64.9978C38.9612 65.1276 28.5339 59.5029 24.4344 54.0081C20.3349 48.5132 31.9412 51.8447 30.7297 47.5181C29.5182 43.1914 15.1429 46.4364 12.4712 40.1411C9.79946 33.8458 20.1835 35.2844 19.7616 32.0719C19.3398 28.8593 8.588 29.5408 5.11585 22.8777C1.64371 16.2147 11.1191 19.914 9.6264 17.1557C8.1337 14.3975 -3.75381 2.76957 1.20022 0.325008C6.15425 -2.11956 17.2954 9.98428 21.0272 11.3364C24.7589 12.6884 25.6026 4.29471 30.4485 8.28605C35.2943 12.2774 31.7356 29.822 37.4468 32.0827C41.6978 33.7917 39.8698 25.7766 44.7589 27.756C53.2824 31.2931 47.4739 64.9437 45.0509 64.9978Z" fill="white"/>
</g>
</svg>
