<svg width="39" height="111" viewBox="0 0 39 111" fill="none" xmlns="http://www.w3.org/2000/svg">
<path d="M38.7414 0C38.7534 0.101244 38.7534 0.203548 38.7414 0.304792C38.7414 0.544272 38.6543 0.827292 38.5999 1.18651C38.4584 1.95938 38.2842 3.10236 37.9794 4.56102C37.3698 7.47832 36.3466 11.6801 34.7138 16.7745C33.081 21.8689 30.9909 27.8559 28.4329 34.4199C25.8748 40.9838 22.9248 48.1465 20.1164 55.7663C17.3079 63.3861 15.0764 70.7991 13.019 77.5372C10.9617 84.2754 9.03495 90.3277 7.16264 95.3241C5.7297 99.2851 4.07614 103.163 2.20975 106.939C1.56751 108.278 0.97969 109.279 0.609584 109.976L0.163284 110.749C0.0653145 110.923 0.0108855 111.01 0 110.999C0.02028 110.899 0.057069 110.804 0.108853 110.716L0.489843 109.911C0.827293 109.203 1.37157 108.18 1.98116 106.819C3.24387 104.13 4.96377 100.179 6.74899 95.1608C8.53421 90.1426 10.4501 84.1121 12.453 77.3631C14.4559 70.6141 16.6657 63.212 19.5177 55.5921C22.3696 47.9723 25.3087 40.7988 27.8886 34.2457C30.4684 27.6927 32.6673 21.7601 34.3001 16.6875C35.9329 11.6148 37.0106 7.45655 37.6964 4.56102C38.0447 3.11325 38.2624 1.98117 38.4475 1.2083C38.5237 0.85997 38.5999 0.576938 38.6543 0.348343C38.6619 0.227896 38.6914 0.109837 38.7414 0Z" fill="#263238"/>
</svg>
