<svg width="540" height="375" viewBox="0 0 540 375" fill="none" xmlns="http://www.w3.org/2000/svg">
<path d="M485.892 370.969H450.123V371.239H485.892V370.969Z" fill="#EBEBEB"/>
<path d="M357.718 373.907H348.333V374.177H357.718V373.907Z" fill="#EBEBEB"/>
<path d="M449.043 360.947H428.317V361.217H449.043V360.947Z" fill="#EBEBEB"/>
<path d="M103.302 362.761H56.6567V363.031H103.302V362.761Z" fill="#EBEBEB"/>
<path d="M119.761 362.761H112.925V363.031H119.761V362.761Z" fill="#EBEBEB"/>
<path d="M243.162 367.319H141.988V367.589H243.162V367.319Z" fill="#EBEBEB"/>
<path d="M257.472 305.424H48.9241C47.2886 305.424 45.72 304.774 44.5635 303.618C43.407 302.461 42.7573 300.893 42.7573 299.257V6.1128C42.7716 4.48664 43.4276 2.93193 44.5825 1.78708C45.7375 0.642235 47.2979 -6.2344e-05 48.9241 4.53875e-09H257.472C258.282 4.53876e-09 259.084 0.159508 259.832 0.469418C260.58 0.779329 261.26 1.23357 261.833 1.80621C262.405 2.37885 262.86 3.05868 263.17 3.80687C263.479 4.55506 263.639 5.35696 263.639 6.1668V299.257C263.639 300.067 263.479 300.869 263.17 301.617C262.86 302.365 262.405 303.045 261.833 303.618C261.26 304.19 260.58 304.645 259.832 304.955C259.084 305.264 258.282 305.424 257.472 305.424ZM48.9241 0.216001C47.3611 0.218856 45.8629 0.84104 44.7576 1.94629C43.6524 3.05153 43.0302 4.54975 43.0273 6.1128V299.257C43.0302 300.82 43.6524 302.318 44.7576 303.424C45.8629 304.529 47.3611 305.151 48.9241 305.154H257.472C259.035 305.151 260.533 304.529 261.639 303.424C262.744 302.318 263.366 300.82 263.369 299.257V6.1128C263.366 4.54975 262.744 3.05153 261.639 1.94629C260.533 0.84104 259.035 0.218856 257.472 0.216001H48.9241Z" fill="#EBEBEB"/>
<path d="M491.076 305.424H282.528C280.893 305.424 279.324 304.774 278.168 303.618C277.011 302.461 276.361 300.893 276.361 299.257V6.1128C276.376 4.48664 277.032 2.93193 278.187 1.78708C279.341 0.642235 280.902 -6.2344e-05 282.528 4.53875e-09H491.076C492.712 4.53877e-09 494.28 0.649715 495.437 1.80621C496.593 2.96271 497.243 4.53126 497.243 6.1668V299.257C497.243 300.893 496.593 302.461 495.437 303.618C494.28 304.774 492.712 305.424 491.076 305.424ZM282.528 0.216001C280.965 0.218856 279.467 0.84104 278.362 1.94629C277.256 3.05153 276.634 4.54975 276.631 6.1128V299.257C276.634 300.82 277.256 302.318 278.362 303.424C279.467 304.529 280.965 305.151 282.528 305.154H491.076C492.639 305.151 494.137 304.529 495.243 303.424C496.348 302.318 496.97 300.82 496.973 299.257V6.1128C496.97 4.54975 496.348 3.05153 495.243 1.94629C494.137 0.84104 492.639 0.218856 491.076 0.216001H282.528Z" fill="#EBEBEB"/>
<path d="M540 353.592H0V353.862H540V353.592Z" fill="#EBEBEB"/>
<path d="M378.076 347.317H480.87V210.535H378.076V347.317Z" fill="#F5F5F5"/>
<path d="M358.463 347.317H378.076V210.535H358.463V347.317Z" fill="#E6E6E6"/>
<path d="M384.75 253.908H473.667V220.687H384.75V253.908Z" fill="#FAFAFA"/>
<path d="M440.802 220.687L440.413 225.115C440.353 225.821 440.03 226.478 439.508 226.956C438.986 227.435 438.302 227.699 437.594 227.696H420.822C420.114 227.699 419.43 227.435 418.908 226.956C418.386 226.478 418.063 225.821 418.003 225.115L417.614 220.687H440.802Z" fill="#EBEBEB"/>
<path d="M384.75 290.747H473.667V257.526H384.75V290.747Z" fill="#FAFAFA"/>
<path d="M440.802 257.537L440.413 261.965C440.351 262.669 440.027 263.325 439.505 263.803C438.984 264.281 438.302 264.546 437.594 264.546H420.822C420.114 264.546 419.433 264.281 418.911 263.803C418.389 263.325 418.065 262.669 418.003 261.965L417.614 257.537H440.802Z" fill="#EBEBEB"/>
<path d="M384.75 327.596H473.667V294.376H384.75V327.596Z" fill="#FAFAFA"/>
<path d="M440.802 294.376L440.413 298.804C440.353 299.509 440.03 300.167 439.508 300.645C438.986 301.123 438.302 301.387 437.594 301.385H420.822C420.114 301.387 419.43 301.123 418.908 300.645C418.386 300.167 418.063 299.509 418.003 298.804L417.614 294.376H440.802Z" fill="#EBEBEB"/>
<path d="M384.75 354.154H472.586L473.666 347.306H384.75V354.154Z" fill="#E6E6E6"/>
<path d="M366.39 354.154H384.75V347.306H365.31L366.39 354.154Z" fill="#E0E0E0"/>
<path d="M426.038 210.686H461.138L457.25 166.18H422.15L426.038 210.686Z" fill="#FAFAFA"/>
<path d="M426.039 210.686H424.365L420.466 166.18H422.151L426.039 210.686Z" fill="#EBEBEB"/>
<path d="M429.225 206.15H457.164L454.065 170.716H426.125L429.225 206.15Z" fill="#F0F0F0"/>
<path d="M431.266 203.234H454.605L452.023 173.632H428.674L431.266 203.234Z" fill="#E6E6E6"/>
<path d="M416.178 210.686L418.587 183.136H383.649L381.24 210.686H416.178Z" fill="#F0F0F0"/>
<path d="M416.178 210.686L418.587 183.136H420.466L418.057 210.686H416.178Z" fill="#E0E0E0"/>
<path d="M412.862 207.878L414.785 185.944H386.964L385.042 207.878H412.862Z" fill="#EBEBEB"/>
<path d="M410.735 206.075L412.333 187.758H389.092L387.493 206.075H410.735Z" fill="#F5F5F5"/>
<path d="M335.491 335.632C335.491 342.932 334.346 347.652 332.424 350.687C331.684 351.798 330.678 352.707 329.497 353.329C328.316 353.952 326.998 354.269 325.663 354.251H315.09C313.755 354.269 312.437 353.952 311.256 353.329C310.075 352.707 309.069 351.798 308.329 350.687C306.407 347.652 305.251 342.932 305.251 335.632C305.251 325.037 309.873 316.559 311.385 309.798C311.925 307.357 310.111 299.884 310.111 299.884H330.631C330.631 299.884 328.827 307.357 329.367 309.798C330.879 316.559 335.491 325.08 335.491 335.632Z" fill="#EBEBEB"/>
<path d="M370.44 292.777C370.44 283.576 356.022 287.377 352.393 273.132C351.011 267.732 362.739 255.496 362.739 255.496H326.16C326.16 255.496 337.889 267.732 336.506 273.132C332.877 287.399 318.459 283.576 318.459 292.777C318.459 302.897 338.796 323.989 339.779 347.728C339.865 349.888 335.955 354.208 335.955 354.208H352.933C352.933 354.208 349.013 349.801 349.11 347.728C350.103 324 370.44 302.897 370.44 292.777Z" fill="#F5F5F5"/>
<path d="M359.392 316.667C361.552 312.196 357.124 297.011 357.124 297.011H372.967C372.967 297.011 368.572 312.196 370.699 316.667C372.2 319.82 375.602 321.84 375.602 325.566V347.998C375.602 353.808 370.85 354.251 365.04 354.251C359.23 354.251 354.478 353.808 354.478 347.998V325.566C354.478 321.84 357.89 319.82 359.392 316.667Z" fill="#F0F0F0"/>
<path d="M178.362 184.172C169.269 180.23 164.074 171.914 166.795 165.629C169.517 159.343 179.129 157.442 188.233 161.384C197.338 165.326 202.522 173.642 199.8 179.928C197.079 186.214 187.467 188.114 178.362 184.172ZM185.609 167.4C181.289 165.553 176.839 166.439 175.565 169.387C174.291 172.336 176.721 176.224 180.965 178.027C185.209 179.831 189.735 178.988 191.009 176.04C192.283 173.092 189.875 169.29 185.609 167.4Z" fill="#E6E6E6"/>
<path d="M189.076 167.789L184.756 165.92L210.892 105.505C211.014 105.22 211.191 104.963 211.414 104.747C211.636 104.531 211.899 104.362 212.187 104.248C212.475 104.135 212.783 104.08 213.093 104.086C213.403 104.092 213.708 104.16 213.991 104.285C214.275 104.407 214.531 104.584 214.746 104.805C214.961 105.027 215.13 105.289 215.243 105.576C215.357 105.863 215.412 106.169 215.407 106.478C215.401 106.786 215.335 107.091 215.212 107.374L189.076 167.789Z" fill="#E6E6E6"/>
<path d="M217.21 113.216L208.904 109.588L210.784 105.268L219.078 108.896L217.21 113.216Z" fill="#E6E6E6"/>
<path d="M213.116 118.055L207.176 115.474L209.045 111.143L214.985 113.724L213.116 118.055Z" fill="#E6E6E6"/>
<path d="M206.624 119.396L204.753 123.717L211.414 126.601L213.284 122.279L206.624 119.396Z" fill="#E6E6E6"/>
<path d="M190.749 161.341L188.373 160.315C187.806 160.066 187.36 159.603 187.133 159.026C186.906 158.449 186.917 157.806 187.164 157.237C187.411 156.668 187.873 156.219 188.45 155.99C189.027 155.762 189.672 155.771 190.242 156.017L192.618 157.043C193.185 157.292 193.631 157.755 193.858 158.332C194.085 158.909 194.074 159.552 193.827 160.121C193.581 160.69 193.118 161.139 192.541 161.368C191.964 161.596 191.319 161.587 190.749 161.341Z" fill="#E6E6E6"/>
<path d="M376.348 140.573C379.057 142.283 381.195 144.763 382.488 147.694C383.781 150.626 384.171 153.876 383.608 157.03C383.045 160.184 381.554 163.099 379.326 165.402C377.098 167.704 374.235 169.291 371.101 169.958C367.967 170.625 364.706 170.343 361.733 169.148C358.761 167.953 356.212 165.898 354.412 163.247C352.613 160.596 351.645 157.469 351.631 154.265C351.618 151.061 352.56 147.926 354.337 145.26C356.638 141.723 360.247 139.244 364.373 138.365C368.5 137.486 372.806 138.28 376.348 140.573ZM363.226 160.261C364.455 161.127 365.915 161.606 367.419 161.637C368.922 161.669 370.401 161.251 371.666 160.438C372.931 159.625 373.924 158.453 374.52 157.072C375.115 155.691 375.285 154.164 375.008 152.686C374.731 151.208 374.019 149.846 372.964 148.775C371.909 147.703 370.558 146.971 369.084 146.671C367.611 146.371 366.081 146.518 364.691 147.092C363.301 147.666 362.114 148.641 361.282 149.893C360.166 151.526 359.743 153.535 360.108 155.48C360.472 157.424 361.594 159.143 363.226 160.261Z" fill="#E6E6E6"/>
<path d="M361.487 158.339L365.958 161.32L333.969 210.265C333.573 210.858 332.958 211.269 332.26 211.408C331.561 211.548 330.836 211.405 330.243 211.01C329.95 210.815 329.698 210.565 329.502 210.272C329.306 209.98 329.169 209.652 329.1 209.307C329.031 208.962 329.03 208.607 329.099 208.262C329.167 207.916 329.302 207.588 329.497 207.295L361.487 158.339Z" fill="#E6E6E6"/>
<path d="M329.702 196.614L339.12 202.932L334.422 209.984L324.994 203.656C324.345 203.219 323.896 202.543 323.744 201.776C323.593 201.009 323.75 200.213 324.184 199.562L325.598 197.402C326.041 196.757 326.72 196.312 327.488 196.164C328.257 196.017 329.052 196.178 329.702 196.614Z" fill="#E6E6E6"/>
<path d="M245.743 47.0448L240.775 59.8968C240.669 60.1727 240.509 60.4249 240.305 60.639C240.101 60.8532 239.857 61.0251 239.587 61.1449C239.317 61.2648 239.026 61.3302 238.73 61.3375C238.434 61.3448 238.14 61.2938 237.865 61.1874C237.589 61.0811 237.336 60.9214 237.122 60.7176C236.908 60.5137 236.736 60.2697 236.616 59.9994C236.497 59.7291 236.431 59.4379 236.424 59.1423C236.417 58.8468 236.468 58.5527 236.574 58.2768L241.542 45.4248C242.31 43.4267 242.255 41.2055 241.389 39.248C240.522 37.2904 238.915 35.7561 236.92 34.9812L232.319 33.1992C230.323 32.4298 228.104 32.4819 226.147 33.3441C224.19 34.2063 222.654 35.8084 221.875 37.8L219.845 43.0488L215.654 41.4288L217.685 36.18C218.279 34.6398 219.171 33.2316 220.309 32.036C221.448 30.8404 222.81 29.8807 224.32 29.2118C225.829 28.5429 227.455 28.1778 229.106 28.1374C230.756 28.097 232.398 28.3821 233.939 28.9764L238.54 30.7476C240.083 31.344 241.494 32.2388 242.692 33.3808C243.889 34.5228 244.85 35.8896 245.519 37.4032C246.188 38.9168 246.552 40.5473 246.591 42.2017C246.629 43.8561 246.341 45.5018 245.743 47.0448Z" fill="#F0F0F0"/>
<path d="M244.955 49.0645C244.612 48.6242 244.157 48.2847 243.637 48.0816L218.581 38.3616C217.82 38.0751 216.977 38.0991 216.234 38.4284C215.49 38.7577 214.906 39.366 214.607 40.1221L204.887 65.1889C204.595 65.9479 204.616 66.7919 204.946 67.5352C205.276 68.2784 205.888 68.8602 206.647 69.1524L231.703 78.8724C232.08 79.0187 232.481 79.0892 232.885 79.0798C233.289 79.0704 233.687 78.9814 234.056 78.8178C234.425 78.6543 234.759 78.4194 235.037 78.1267C235.315 77.8339 235.533 77.4891 235.677 77.1121L245.397 52.056C245.589 51.5618 245.65 51.0261 245.572 50.5016C245.494 49.9771 245.282 49.4819 244.955 49.0645ZM225.925 68.4289L217.987 65.3616L222.188 58.0285C221.863 57.3719 221.706 56.6444 221.732 55.912C221.759 55.1796 221.967 54.4653 222.339 53.8338C222.711 53.2024 223.235 52.6737 223.863 52.2956C224.491 51.9176 225.203 51.7021 225.935 51.6687C226.667 51.6354 227.396 51.7851 228.056 52.1045C228.716 52.4239 229.285 52.9027 229.713 53.4977C230.141 54.0927 230.414 54.7851 230.507 55.5121C230.6 56.2391 230.51 56.9778 230.245 57.6612C230.028 58.2323 229.693 58.7509 229.261 59.1828C228.829 59.6147 228.31 59.9501 227.739 60.1668L225.925 68.4289Z" fill="#E6E6E6"/>
<path d="M74.6822 339.617H274.623V232.016L74.6822 232.016V339.617Z" fill="#E6E6E6"/>
<path d="M258.595 353.581H271.167V344.088H258.595V353.581Z" fill="#E6E6E6"/>
<path d="M59.4215 353.581H71.9927L71.9927 224.014H59.4215L59.4215 353.581Z" fill="#E6E6E6"/>
<path d="M71.8418 224.003V353.603H78.5486V346.345H271.167V353.603H277.873V224.003H71.8418ZM78.5486 235.732H171.504V280.735H78.5486V235.732ZM271.167 334.584H178.2V235.732H271.156L271.167 334.584ZM78.5486 334.584V287.442H171.504V334.584H78.5486Z" fill="#F0F0F0"/>
<path d="M178.2 334.595H264.881V240.581H178.2V334.595Z" fill="#F5F5F5"/>
<path d="M182.131 284.764C182.131 285.56 182.368 286.339 182.81 287.002C183.253 287.664 183.882 288.18 184.618 288.485C185.354 288.79 186.164 288.87 186.946 288.715C187.727 288.559 188.445 288.176 189.008 287.612C189.572 287.049 189.955 286.331 190.111 285.55C190.266 284.768 190.186 283.958 189.882 283.222C189.577 282.486 189.06 281.857 188.398 281.414C187.735 280.971 186.956 280.735 186.16 280.735C185.631 280.735 185.107 280.839 184.618 281.042C184.129 281.244 183.685 281.541 183.311 281.915C182.937 282.289 182.64 282.733 182.438 283.222C182.236 283.711 182.131 284.235 182.131 284.764Z" fill="#FAFAFA"/>
<path d="M186.16 288.792C186.93 288.789 187.683 288.566 188.329 288.149C188.976 287.732 189.49 287.138 189.81 286.438C190.057 286.961 190.186 287.533 190.188 288.112C190.188 289.18 189.764 290.205 189.008 290.96C188.253 291.716 187.228 292.14 186.16 292.14C185.091 292.14 184.067 291.716 183.311 290.96C182.556 290.205 182.131 289.18 182.131 288.112C182.134 287.533 182.263 286.961 182.509 286.438C182.829 287.138 183.343 287.732 183.99 288.149C184.637 288.566 185.39 288.789 186.16 288.792Z" fill="#E0E0E0"/>
<path d="M231.271 334.584H210.589L200.707 240.57H221.389L231.271 334.584Z" fill="#FAFAFA"/>
<path d="M205.297 334.584H201.182L191.3 240.57H195.415L205.297 334.584Z" fill="#FAFAFA"/>
<path d="M150.563 280.692H158.749V240.484H150.563V280.692Z" fill="#FAFAFA"/>
<path d="M116.597 280.692H124.783V240.484H116.597V280.692Z" fill="#F5F5F5"/>
<path d="M142.365 280.692H150.552V243.302H142.365V280.692Z" fill="#F5F5F5"/>
<path d="M124.783 280.692H132.97V243.302H124.783V280.692Z" fill="#FAFAFA"/>
<path d="M132.98 280.692H138.272V240.484H132.98V280.692Z" fill="#EBEBEB"/>
<path d="M138.262 280.692H142.355V243.302H138.262V280.692Z" fill="#FAFAFA"/>
<path d="M108.41 280.692H116.597V240.484H108.41V280.692Z" fill="#EBEBEB"/>
<path d="M100.213 280.692H108.399V243.302H100.213V280.692Z" fill="#E6E6E6"/>
<path d="M82.631 280.692H90.8174V243.302H82.631V280.692Z" fill="#E6E6E6"/>
<path d="M90.8281 280.692H96.1201V240.484H90.8281V280.692Z" fill="#FAFAFA"/>
<path d="M96.1202 280.692H100.213V243.302H96.1202V280.692Z" fill="#EBEBEB"/>
<path d="M78.5377 280.692H82.6309V241.434H78.5377V280.692Z" fill="#EBEBEB"/>
<path d="M86.724 294.376H78.5376V334.584H86.724V294.376Z" fill="#EBEBEB"/>
<path d="M120.679 294.376H112.493V334.584H120.679V294.376Z" fill="#FAFAFA"/>
<path d="M94.9105 297.205H86.7241V334.595H94.9105V297.205Z" fill="#FAFAFA"/>
<path d="M112.493 297.205H104.307V334.595H112.493V297.205Z" fill="#EBEBEB"/>
<path d="M104.306 294.376H99.0142V334.584H104.306V294.376Z" fill="#FAFAFA"/>
<path d="M99.0146 297.205H94.9214V334.595H99.0146V297.205Z" fill="#F5F5F5"/>
<path d="M128.876 294.376H120.69V334.584H128.876V294.376Z" fill="#EBEBEB"/>
<path d="M137.063 297.205H128.876V334.595H137.063V297.205Z" fill="#F5F5F5"/>
<path d="M154.645 297.205H146.459V334.595H154.645V297.205Z" fill="#E6E6E6"/>
<path d="M146.459 294.376H141.167V334.584H146.459V294.376Z" fill="#FAFAFA"/>
<path d="M164.041 294.376H158.749V334.584H164.041V294.376Z" fill="#FAFAFA"/>
<path d="M141.167 297.205H137.074V334.595H141.167V297.205Z" fill="#EBEBEB"/>
<path d="M158.738 295.326H154.645V334.584H158.738V295.326Z" fill="#EBEBEB"/>
<path d="M87.6746 154.753C86.8259 155.171 86.1251 155.838 85.6658 156.665C85.0394 157.939 86.9942 160.304 86.9942 160.304C87.4655 160.619 88.004 160.82 88.5667 160.889C89.1294 160.958 89.7004 160.895 90.2342 160.704L91.8542 159.97C91.8542 159.97 89.0786 155.142 87.7286 155.088L87.6746 154.753Z" fill="#E6E6E6"/>
<path d="M94.6406 154.71C94.835 157 93.4202 159.894 91.4006 160.11C89.381 160.326 87.4802 157.68 87.2426 155.358C87.005 153.036 88.6898 152.842 90.731 152.669C92.7722 152.496 94.4354 152.42 94.6406 154.71Z" fill="#E6E6E6"/>
<path d="M88.6464 154.04C88.6464 154.04 90.2124 155.282 93.4308 154.559C93.4308 154.559 88.3548 157.939 88.6464 154.04Z" fill="#E6E6E6"/>
<path d="M90.0288 153.587C90.0288 153.587 91.8324 153.274 91.854 154.019C91.854 154.019 93.3876 153.932 93.1716 153.295C92.9556 152.658 90.0288 153.587 90.0288 153.587Z" fill="#E6E6E6"/>
<g opacity="0.2">
<path d="M88.6464 154.04C88.6464 154.04 90.2124 155.282 93.4308 154.559C93.4308 154.559 88.3548 157.939 88.6464 154.04Z" fill="#FAFAFA"/>
</g>
<g opacity="0.2">
<path d="M90.0288 153.587C90.0288 153.587 91.8324 153.274 91.854 154.019C91.854 154.019 93.3876 153.932 93.1716 153.295C92.9556 152.658 90.0288 153.587 90.0288 153.587Z" fill="#FAFAFA"/>
</g>
<path d="M87.9443 160.79C88.2927 161.313 88.7819 161.726 89.3552 161.982C89.9286 162.238 90.5627 162.327 91.1843 162.238C91.7986 162.145 92.3868 161.925 92.9113 161.593C93.4357 161.26 93.8849 160.821 94.2299 160.304C94.9036 159.263 95.2773 158.056 95.3099 156.816C95.3099 156.503 95.3099 155.736 94.9319 155.574C94.5539 155.412 94.3055 156.006 94.1327 156.254C93.6285 156.979 93.0533 157.652 92.4155 158.263C91.7848 158.869 91.0853 159.398 90.3311 159.84C90.1151 159.905 88.0631 160.974 87.9443 160.79Z" fill="#E6E6E6"/>
<path d="M96.7141 156.222C96.9007 156.69 96.9658 157.198 96.9035 157.699C96.8412 158.199 96.6534 158.676 96.3577 159.084C95.9319 159.589 95.4154 160.01 94.8349 160.326C94.4353 160.564 93.9277 160.79 93.5389 160.542C93.1501 160.294 93.1609 159.656 93.2581 159.17C93.4093 158.425 93.5713 157.68 93.7657 156.935C93.8578 156.188 94.0617 155.46 94.3705 154.775C94.7053 154.3 95.1697 154.58 95.6773 154.937C96.1378 155.258 96.4974 155.704 96.7141 156.222Z" fill="#E6E6E6"/>
<g opacity="0.2">
<path d="M88.463 159.527C88.0701 159.495 87.6934 159.357 87.3736 159.126C87.0537 158.896 86.803 158.583 86.6486 158.22C86.4326 157.669 86.4326 156.298 87.1454 156.114C87.3605 157.326 87.8079 158.485 88.463 159.527Z" fill="#FAFAFA"/>
</g>
<g opacity="0.2">
<path d="M93.7871 159.462C94.1605 159.353 94.5014 159.155 94.7801 158.884C95.0588 158.612 95.2667 158.277 95.3855 157.907C95.5043 157.496 95.3855 155.401 94.7267 156.276C94.5215 156.568 94.5647 157.486 94.4567 157.864C94.2971 158.421 94.0723 158.957 93.7871 159.462Z" fill="#FAFAFA"/>
</g>
<g opacity="0.2">
<path d="M90.9358 160.758C91.2369 161.009 91.6142 161.151 92.0064 161.161C92.3985 161.171 92.7824 161.048 93.0958 160.812C93.0094 161.222 91.735 161.557 91.3462 161.676C90.2662 161.978 89.7694 161.525 88.7758 161.104C88.7218 161.104 90.2986 161.341 90.9358 160.758Z" fill="#FAFAFA"/>
</g>
<path d="M89.1538 202.824L89.251 171.666L90.8494 162.194L91.4542 162.292L89.8666 171.72L89.7478 203.418L89.1538 202.824Z" fill="#E0E0E0"/>
<path d="M89.802 171.504L89.316 171.882C88.7668 171.114 88.2827 170.301 87.8688 169.452C87.0589 167.775 86.0391 166.207 84.834 164.786L85.2876 164.365C86.5286 165.826 87.5809 167.437 88.4196 169.16C88.8155 169.978 89.2779 170.762 89.802 171.504Z" fill="#E0E0E0"/>
<path d="M90.1802 167.324C91.0158 167.098 91.7434 166.581 92.2322 165.866C92.7165 165.019 93.025 164.082 93.1394 163.112C92.0594 163.436 90.9038 162.918 89.7914 163.048C89.3471 163.103 88.9214 163.259 88.5469 163.504C88.1725 163.749 87.8592 164.077 87.6314 164.462C87.0482 165.467 86.8106 166.622 87.329 167.065C88.2096 167.519 89.2322 167.612 90.1802 167.324Z" fill="#E6E6E6"/>
<path d="M86.0326 165.175C85.5316 165.487 84.9689 165.686 84.3833 165.759C83.7978 165.832 83.2034 165.776 82.6414 165.596C81.5614 165.24 81.205 163.555 80.7622 162.464C82.1524 162.335 83.5516 162.335 84.9418 162.464C85.2355 162.482 85.5216 162.565 85.7793 162.707C86.037 162.849 86.26 163.047 86.4322 163.285C86.5941 163.53 86.6604 163.826 86.6186 164.117C86.5768 164.407 86.4298 164.673 86.2054 164.862L86.0326 165.175Z" fill="#E6E6E6"/>
<path d="M80.9245 167C81.3703 166.557 81.9077 166.216 82.4991 166.001C83.0904 165.787 83.7215 165.704 84.3481 165.758C84.8498 165.851 85.3226 166.06 85.7279 166.37C86.1333 166.68 86.4598 167.081 86.6809 167.54C86.5127 167.861 86.2616 168.13 85.9539 168.32C85.6461 168.51 85.2929 168.614 84.9313 168.62C84.1949 168.632 83.4627 168.507 82.7713 168.253C82.0814 167.993 81.3487 167.865 80.6113 167.875L80.9245 167Z" fill="#E6E6E6"/>
<path d="M101.715 161.644C102.399 162.291 102.87 163.131 103.065 164.052C103.291 165.467 100.732 167.141 100.732 167.141C100.185 167.309 99.606 167.345 99.0427 167.245C98.4793 167.146 97.9477 166.914 97.4917 166.568L96.1201 165.38C96.1201 165.38 100.203 161.59 101.52 161.946L101.715 161.644Z" fill="#E6E6E6"/>
<path d="M95.0399 159.559C94.1867 161.719 94.6943 164.862 96.5951 165.629C98.4959 166.396 101.066 164.473 101.93 162.389C102.794 160.304 101.304 159.516 99.3599 158.76C97.4159 158.004 95.9255 157.432 95.0399 159.559Z" fill="#E6E6E6"/>
<path d="M100.991 160.672C100.991 160.672 99.1223 161.406 96.2603 159.764C96.2603 159.764 100.116 164.484 100.991 160.672Z" fill="#E6E6E6"/>
<path d="M99.8027 159.84C99.8027 159.84 98.1719 159.008 97.9235 159.721C97.9235 159.721 96.4871 159.192 96.8435 158.641C97.1999 158.09 99.8027 159.84 99.8027 159.84Z" fill="#E6E6E6"/>
<g opacity="0.2">
<path d="M100.991 160.672C100.991 160.672 99.1223 161.406 96.2603 159.764C96.2603 159.764 100.116 164.484 100.991 160.672Z" fill="#FAFAFA"/>
</g>
<g opacity="0.2">
<path d="M99.8027 159.84C99.8027 159.84 98.1719 159.008 97.9235 159.721C97.9235 159.721 96.4871 159.192 96.8435 158.641C97.1999 158.09 99.8027 159.84 99.8027 159.84Z" fill="#FAFAFA"/>
</g>
<path d="M99.673 167.335C99.1887 167.723 98.6067 167.97 97.9911 168.048C97.3756 168.126 96.7505 168.033 96.1846 167.778C95.6252 167.508 95.128 167.125 94.7246 166.653C94.3211 166.18 94.0202 165.63 93.841 165.035C93.5061 163.834 93.5061 162.564 93.841 161.363C93.9058 161.05 94.1218 160.283 94.5646 160.283C95.0074 160.283 95.029 160.877 95.1262 161.168C95.3964 162.015 95.7585 162.83 96.2062 163.598C96.6387 164.347 97.157 165.043 97.7506 165.672C97.8586 165.856 99.511 167.476 99.673 167.335Z" fill="#E6E6E6"/>
<path d="M92.6425 160.391C92.3225 160.779 92.1085 161.244 92.0215 161.74C91.9344 162.236 91.9772 162.746 92.1457 163.22C92.3913 163.835 92.7586 164.393 93.2257 164.862C93.5281 165.208 93.9493 165.575 94.3921 165.445C94.8349 165.316 95.0077 164.711 95.0617 164.225C95.1373 163.458 95.2021 162.702 95.2345 161.935C95.3476 161.201 95.3476 160.455 95.2345 159.721C95.0617 159.16 94.5217 159.289 93.9385 159.484C93.4293 159.657 92.9799 159.972 92.6425 160.391Z" fill="#E6E6E6"/>
<g opacity="0.2">
<path d="M99.5542 165.964C99.9446 166.067 100.357 166.054 100.74 165.928C101.123 165.801 101.462 165.566 101.714 165.251C102.071 164.797 102.47 163.48 101.855 163.091C101.278 164.186 100.497 165.161 99.5542 165.964Z" fill="#FAFAFA"/>
</g>
<g opacity="0.2">
<path d="M94.4784 164.344C94.15 164.133 93.8792 163.844 93.6906 163.503C93.502 163.162 93.4016 162.779 93.3984 162.389C93.3984 161.957 94.1652 160.002 94.4784 161.028C94.5864 161.363 94.2732 162.227 94.2732 162.616C94.276 163.198 94.3449 163.777 94.4784 164.344Z" fill="#FAFAFA"/>
</g>
<g opacity="0.2">
<path d="M96.8218 166.417C96.4704 166.56 96.0818 166.582 95.7164 166.48C95.3511 166.379 95.0296 166.159 94.8022 165.856C94.8022 166.266 95.8822 166.936 96.217 167.195C97.1134 167.789 97.7614 167.508 98.8414 167.4C98.8414 167.4 97.2646 167.173 96.8218 166.417Z" fill="#FAFAFA"/>
</g>
<path d="M88.2686 198.169L88.6573 196.895L89.1758 195.178L89.7805 193.169L94.6298 177.217L95.2346 172.638L95.7746 168.577L95.8826 167.735L96.1849 167.767V167.778L96.4981 167.81L96.4873 167.886L96.3793 168.685L95.807 173.027L95.3425 176.569L95.2346 177.347L95.1914 177.466L89.7805 195.286L89.1649 197.284L88.8949 198.212L88.5061 199.476L88.2686 198.169Z" fill="#E0E0E0"/>
<path d="M94.7485 177.034L95.1049 177.53C95.8533 176.954 96.554 176.319 97.2001 175.63C98.4802 174.26 99.9323 173.062 101.52 172.066L101.207 171.536C99.5884 172.56 98.1107 173.791 96.8113 175.198C96.1689 175.859 95.4795 176.472 94.7485 177.034Z" fill="#E0E0E0"/>
<path d="M95.623 172.93C94.887 172.471 94.3422 171.761 94.0894 170.932C93.8715 169.977 93.8531 168.988 94.0354 168.026C94.9642 168.653 96.1954 168.491 97.2754 168.944C97.6841 169.128 98.0455 169.402 98.3319 169.746C98.6183 170.091 98.8221 170.496 98.9278 170.932C99.187 172.012 99.079 173.221 98.4526 173.513C97.4694 173.7 96.4523 173.49 95.623 172.93Z" fill="#E6E6E6"/>
<path d="M100.213 172.087C100.599 172.533 101.077 172.889 101.614 173.132C102.151 173.374 102.734 173.497 103.324 173.491C104.501 173.491 105.311 171.958 106.045 171.04C104.759 170.504 103.424 170.092 102.06 169.808C101.774 169.739 101.477 169.734 101.189 169.793C100.902 169.853 100.631 169.976 100.397 170.154C100.167 170.339 100.014 170.602 99.9661 170.893C99.9183 171.184 99.9793 171.482 100.138 171.731L100.213 172.087Z" fill="#E6E6E6"/>
<path d="M104.566 175.327C104.269 174.774 103.854 174.293 103.35 173.92C102.846 173.546 102.265 173.289 101.65 173.167C101.143 173.108 100.63 173.169 100.151 173.345C99.6724 173.522 99.2423 173.808 98.8955 174.182C98.9596 174.54 99.1188 174.875 99.3562 175.15C99.5937 175.426 99.9009 175.632 100.246 175.748C100.943 175.969 101.675 176.061 102.406 176.018C103.136 175.971 103.869 176.062 104.566 176.288V175.327Z" fill="#E6E6E6"/>
<path d="M79.8335 160.391C79.079 160.959 78.5142 161.742 78.2135 162.637C77.8247 164.009 80.1683 165.974 80.1683 165.974C80.6849 166.2 81.2473 166.301 81.8101 166.269C82.3729 166.237 82.9204 166.073 83.4083 165.791L84.8771 164.765C84.8771 164.765 81.2807 160.52 79.9415 160.715L79.8335 160.391Z" fill="#E6E6E6"/>
<path d="M86.681 159.106C87.2858 161.32 86.411 164.419 84.4346 164.959C82.4582 165.499 80.1146 163.285 79.5206 161.071C78.9266 158.857 80.4926 158.339 82.469 157.831C84.4454 157.324 86.0762 156.892 86.681 159.106Z" fill="#E6E6E6"/>
<path d="M80.665 159.516C80.665 159.516 82.4254 160.466 85.4602 159.17C85.4602 159.17 81.0862 163.415 80.665 159.516Z" fill="#E6E6E6"/>
<path d="M81.9395 158.825C81.9395 158.825 83.6567 158.188 83.8187 158.922C83.8187 158.922 85.3091 158.566 84.9851 157.972C84.6611 157.378 81.9395 158.825 81.9395 158.825Z" fill="#E6E6E6"/>
<g opacity="0.2">
<path d="M80.665 159.516C80.665 159.516 82.4254 160.466 85.4602 159.17C85.4602 159.17 81.0862 163.415 80.665 159.516Z" fill="#FAFAFA"/>
</g>
<g opacity="0.2">
<path d="M81.9395 158.825C81.9395 158.825 83.6567 158.188 83.8187 158.922C83.8187 158.922 85.3091 158.566 84.9851 157.972C84.6611 157.378 81.9395 158.825 81.9395 158.825Z" fill="#FAFAFA"/>
</g>
<path d="M81.1836 166.32C81.6187 166.763 82.1676 167.077 82.7698 167.227C83.372 167.378 84.0041 167.359 84.5964 167.173C85.1846 166.97 85.7243 166.648 86.1816 166.226C86.6389 165.804 87.0037 165.292 87.2532 164.722C87.7447 163.576 87.9092 162.316 87.7284 161.082C87.7284 160.769 87.5772 160.002 87.1344 159.926C86.6916 159.851 86.5944 160.466 86.4648 160.747C86.1024 161.551 85.6572 162.315 85.1364 163.026C84.6194 163.721 84.0211 164.352 83.3544 164.905C83.16 165.024 81.3348 166.45 81.1836 166.32Z" fill="#E6E6E6"/>
<path d="M88.9921 160.218C89.2613 160.644 89.4174 161.131 89.4458 161.633C89.4741 162.136 89.3737 162.638 89.1541 163.091C88.833 163.671 88.3998 164.181 87.8797 164.592C87.5341 164.894 87.0697 165.208 86.6485 165.035C86.2273 164.862 86.1193 164.236 86.1301 163.739C86.1301 162.972 86.1301 162.216 86.2165 161.449C86.1822 160.722 86.255 159.995 86.4325 159.289C86.6701 158.749 87.1885 158.944 87.7501 159.203C88.25 159.42 88.6799 159.771 88.9921 160.218Z" fill="#E6E6E6"/>
<g opacity="0.2">
<path d="M81.475 164.948C81.0801 164.999 80.679 164.935 80.3192 164.765C79.9594 164.594 79.6559 164.325 79.4446 163.987C79.1422 163.49 78.8938 162.13 79.5526 161.827C79.9913 162.979 80.6435 164.038 81.475 164.948Z" fill="#FAFAFA"/>
</g>
<g opacity="0.2">
<path d="M86.7021 163.933C87.0495 163.758 87.3483 163.499 87.5724 163.181C87.7965 162.863 87.939 162.494 87.9874 162.108C87.9874 161.687 87.5013 159.656 87.0477 160.628C86.9941 161.16 86.9941 161.695 87.0477 162.227C86.998 162.807 86.882 163.379 86.7021 163.933Z" fill="#FAFAFA"/>
</g>
<g opacity="0.2">
<path d="M84.132 165.715C84.4653 165.896 84.8489 165.963 85.2236 165.904C85.5984 165.846 85.9434 165.665 86.2056 165.391C86.2056 165.802 85.0068 166.363 84.6396 166.558C83.6784 167.033 83.0628 166.687 82.0044 166.46C82.0044 166.46 83.6028 166.406 84.132 165.715Z" fill="#FAFAFA"/>
</g>
<path d="M89.9315 207.425L84.4235 176.753L84.2939 167.141L84.9095 167.13L85.0391 176.699L90.6227 207.9L89.9315 207.425Z" fill="#E0E0E0"/>
<path d="M84.9418 176.494L84.5206 176.947C83.8457 176.28 83.228 175.558 82.6738 174.787C81.5716 173.291 80.2832 171.941 78.8398 170.77L79.2178 170.284C80.7023 171.497 82.0269 172.895 83.1598 174.442C83.6969 175.173 84.2929 175.859 84.9418 176.494Z" fill="#E0E0E0"/>
<path d="M84.5532 172.314C85.3389 171.946 85.9643 171.305 86.3136 170.51C86.6428 169.59 86.7789 168.612 86.7132 167.638C85.7088 168.156 84.4776 167.843 83.4084 168.167C82.9802 168.304 82.5887 168.537 82.2632 168.848C81.9378 169.158 81.6868 169.538 81.5292 169.96C81.1404 171.04 81.108 172.206 81.702 172.562C82.6478 172.86 83.673 172.771 84.5532 172.314Z" fill="#E6E6E6"/>
<path d="M80.0927 170.942C79.6601 171.339 79.1459 171.637 78.5862 171.814C78.0266 171.991 77.4349 172.044 76.8527 171.968C75.6863 171.817 75.0599 170.219 74.4443 169.225C75.7839 168.838 77.1586 168.584 78.5483 168.469C78.839 168.433 79.1342 168.461 79.4125 168.553C79.6908 168.644 79.9453 168.796 80.1575 168.998C80.3611 169.211 80.48 169.491 80.4919 169.785C80.5038 170.08 80.408 170.368 80.2223 170.597L80.0927 170.942Z" fill="#E6E6E6"/>
<path d="M75.395 173.653C75.7548 173.139 76.2224 172.709 76.7651 172.394C77.3079 172.079 77.9128 171.886 78.5378 171.828C79.049 171.827 79.5533 171.946 80.0094 172.177C80.4656 172.408 80.8606 172.744 81.1622 173.156C81.0584 173.507 80.8605 173.822 80.5901 174.067C80.3197 174.313 79.9872 174.48 79.6286 174.55C78.9149 174.685 78.1823 174.685 77.4686 174.55C76.7549 174.415 76.0223 174.415 75.3086 174.55L75.395 173.653Z" fill="#E6E6E6"/>
<path d="M92.1779 188.6H85.6979C85.4583 188.59 85.2221 188.66 85.0266 188.799C84.831 188.938 84.6872 189.138 84.6179 189.367C83.4248 193.603 82.8679 197.993 82.9655 202.392C82.9655 209.952 84.9527 220.126 85.5791 223.117C85.6274 223.367 85.7621 223.591 85.9597 223.751C86.1572 223.911 86.4049 223.997 86.6591 223.992H91.1519C91.4061 223.997 91.6538 223.911 91.8513 223.751C92.0489 223.591 92.1836 223.367 92.2319 223.117C92.8583 220.126 94.8455 210.006 94.8455 202.392C94.9431 197.993 94.3862 193.603 93.1931 189.367C93.1268 189.148 92.9928 188.956 92.8104 188.819C92.628 188.681 92.4065 188.604 92.1779 188.6Z" fill="#F0F0F0"/>
</svg>
