<svg width="64" height="75" viewBox="0 0 64 75" fill="none" xmlns="http://www.w3.org/2000/svg">
<g opacity="0.3">
<path d="M4.88623 73.5384C4.9843 73.7128 4.06901 74.6281 7.06548 74.7044C14.5294 75.0095 27.7684 74.5082 32.6826 67.7198C39.7652 58.0331 23.4426 58.9266 25.0552 53.5547C26.6679 48.1828 44.1782 52.574 47.5996 44.9466C51.021 37.3193 38.2615 38.812 38.8826 34.8785C39.5037 30.9449 52.8516 36.0444 57.2646 27.9485C61.6776 19.8525 49.9859 24.1893 51.8164 20.8332C53.647 17.4772 68.5967 3.55172 62.582 0.435386C56.5672 -2.68095 42.6309 11.8983 38.0327 13.5109C33.4344 15.1236 32.3666 0.784057 26.3301 5.56752C20.2935 10.351 24.2489 31.9147 17.199 34.5952C11.947 36.5892 14.8127 28.8529 8.32945 29.1471C-0.463833 29.5066 -3.36224 59.7547 4.88623 73.5384Z" fill="white"/>
</g>
</svg>
