<svg width="45" height="45" viewBox="0 0 45 45" fill="none" xmlns="http://www.w3.org/2000/svg">
<path d="M36.1312 9.99384C33.6375 8.83134 30.9375 7.98759 28.125 7.50009C28.1003 7.4993 28.0758 7.50393 28.0531 7.51364C28.0305 7.52336 28.0102 7.53794 27.9937 7.55634C27.6562 8.17509 27.2625 8.98134 27 9.60009C24.0169 9.15009 20.9831 9.15009 18 9.60009C17.7375 8.96259 17.3437 8.17509 16.9875 7.55634C16.9687 7.51884 16.9125 7.50009 16.8562 7.50009C14.0437 7.98759 11.3625 8.83134 8.85 9.99384C8.83125 9.99384 8.8125 10.0126 8.79375 10.0313C3.69375 17.6626 2.2875 25.0876 2.98125 32.4376C2.98125 32.4751 3 32.5126 3.0375 32.5313C6.4125 35.0063 9.65625 36.5063 12.8625 37.5001C12.9187 37.5188 12.975 37.5001 12.9937 37.4626C13.7437 36.4313 14.4187 35.3438 15 34.2001C15.0375 34.1251 15 34.0501 14.925 34.0313C13.8562 33.6188 12.8437 33.1313 11.85 32.5688C11.775 32.5313 11.775 32.4188 11.8312 32.3626C12.0375 32.2126 12.2437 32.0438 12.45 31.8938C12.4875 31.8563 12.5437 31.8563 12.5812 31.8751C19.0312 34.8188 25.9875 34.8188 32.3625 31.8751C32.4 31.8563 32.4562 31.8563 32.4937 31.8938C32.7 32.0626 32.9062 32.2126 33.1125 32.3813C33.1875 32.4376 33.1875 32.5501 33.0937 32.5876C32.1187 33.1688 31.0875 33.6376 30.0187 34.0501C29.9437 34.0688 29.925 34.1626 29.9437 34.2188C30.5437 35.3626 31.2188 36.4501 31.95 37.4813C32.0063 37.5001 32.0625 37.5188 32.1187 37.5001C35.3437 36.5063 38.5875 35.0063 41.9625 32.5313C42 32.5126 42.0187 32.4751 42.0187 32.4376C42.8437 23.9438 40.65 16.5751 36.2062 10.0313C36.1875 10.0126 36.1687 9.99384 36.1312 9.99384ZM15.975 27.9563C14.0437 27.9563 12.4312 26.1751 12.4312 23.9813C12.4312 21.7876 14.0062 20.0063 15.975 20.0063C17.9625 20.0063 19.5375 21.8063 19.5187 23.9813C19.5187 26.1751 17.9437 27.9563 15.975 27.9563ZM29.0437 27.9563C27.1125 27.9563 25.5 26.1751 25.5 23.9813C25.5 21.7876 27.075 20.0063 29.0437 20.0063C31.0312 20.0063 32.6062 21.8063 32.5875 23.9813C32.5875 26.1751 31.0312 27.9563 29.0437 27.9563Z" fill="#606C38"/>
</svg>
