<svg width="9" height="50" viewBox="0 0 9 50" fill="none" xmlns="http://www.w3.org/2000/svg">
<path d="M8.03803 50C7.87501 49.3527 7.78086 48.69 7.75713 48.0229C7.60587 46.6292 7.41141 44.7817 7.17372 42.621C6.67675 38.0618 5.89888 31.8172 4.79689 24.8703C3.6949 17.9235 2.45247 11.7545 1.49093 7.28175C1.02637 5.12099 0.648228 3.33835 0.345721 1.96627C0.170991 1.3227 0.0552721 0.664572 0 0C0.255998 0.615237 0.458425 1.2514 0.605018 1.90145C0.95074 3.14388 1.4153 4.93732 1.95549 7.17371C3.03587 11.6357 4.34313 17.8479 5.45592 24.7731C6.56871 31.6983 7.27096 37.9969 7.61668 42.5777C7.80035 44.8573 7.92999 46.7156 7.98401 47.9796C8.05802 48.6504 8.07609 49.3262 8.03803 50Z" fill="#263238"/>
</svg>
