<svg width="14" height="5" viewBox="0 0 14 5" fill="none" xmlns="http://www.w3.org/2000/svg">
<path d="M13.5028 4.67512C13.3757 4.67272 13.2546 4.62026 13.166 4.52914C11.4958 3.01771 9.47612 1.94521 7.28859 1.40813C5.10106 0.871047 2.81433 0.886247 0.634122 1.45234C0.504572 1.48657 0.366729 1.46794 0.25091 1.40056C0.13509 1.33317 0.0507738 1.22253 0.0165101 1.09299C-0.000309006 1.02957 -0.00433007 0.963439 0.00468728 0.898447C0.0137046 0.833455 0.0355767 0.770905 0.0690272 0.714457C0.102478 0.658009 0.146837 0.60879 0.199515 0.569671C0.252193 0.530552 0.312138 0.502306 0.375845 0.486603C2.72322 -0.141537 5.19186 -0.161865 7.54928 0.427489C9.90669 1.01684 12.0753 2.19649 13.8509 3.85538C13.8981 3.9014 13.9356 3.95641 13.9612 4.01716C13.9869 4.07791 14.0001 4.14317 14.0001 4.2091C14.0001 4.27503 13.9869 4.34029 13.9612 4.40104C13.9356 4.46179 13.8981 4.51679 13.8509 4.56282C13.8033 4.60378 13.748 4.6348 13.6882 4.65408C13.6284 4.67336 13.5654 4.68053 13.5028 4.67512Z" fill="#263238"/>
</svg>
