<svg width="341" height="338" viewBox="0 0 341 338" fill="none" xmlns="http://www.w3.org/2000/svg">
<path d="M263.845 143.617L237.837 139.85L185.81 147.546L171.21 152.708L173.796 184.636L223.821 193.847L257.567 183.846L270.328 165.068L263.845 143.617Z" fill="#FFBE9D"/>
<path d="M280.242 146.669L258.466 141.539C258.466 141.539 243.086 189.16 205.108 187.072C174.154 185.394 173.796 150.847 173.796 150.847L151.49 157.99C151.49 157.99 142.951 215.212 152.399 255.755C154.564 265.225 157.562 277.986 157.562 277.986L154.542 337.221L319.53 337.481L280.242 146.669Z" fill="#606C38"/>
<g opacity="0.3">
<path d="M215.563 325.726C223.593 325.521 230.996 326.203 239.027 326.008C248.66 325.77 258.368 325.532 267.882 327.09C275.003 328.27 281.952 330.434 289.073 331.56C298.814 333.097 309.193 332.556 317.852 327.869L316.456 319.785L283.575 311.84L215.563 325.726Z" fill="black"/>
</g>
<path d="M132.863 171.324C140.439 161.583 152.951 157.524 152.951 157.524L161.393 231.002L145.407 338L93.045 337.751C93.045 337.751 121.921 185.448 132.863 171.324Z" fill="#606C38"/>
<path d="M277.699 146.128C277.699 146.128 312.939 148.952 325.58 206.737C331.295 232.853 338.568 263.45 340.613 284.025C342.118 298.939 334.011 322.296 319.14 324.211L300.438 326.722C296.771 327.25 293.039 327.115 289.42 326.322C277.612 323.605 276.432 315.499 274.268 306.84L268.856 289.61C265.869 273.224 281.14 270.128 289.572 270.355L283.283 195.557L277.699 146.128Z" fill="#606C38"/>
<path d="M148.589 198.382C148.507 198.642 148.452 198.911 148.427 199.183C148.34 199.767 148.221 200.546 148.07 201.509C148.005 202.018 147.918 202.592 147.832 203.198C147.745 203.804 147.702 204.486 147.626 205.211C147.475 206.65 147.301 208.296 147.226 210.125C146.975 214.403 146.946 218.691 147.139 222.972C147.397 228.208 147.917 233.427 148.698 238.611C149.509 244.142 150.527 249.359 151.566 254.077C152.605 258.796 153.611 263.028 154.499 266.578C155.386 270.128 156.133 272.975 156.663 274.944C156.923 275.886 157.129 276.644 157.291 277.206C157.349 277.475 157.437 277.736 157.551 277.986C157.528 277.714 157.477 277.446 157.399 277.185C157.269 276.6 157.096 275.843 156.88 274.89C156.393 272.845 155.711 269.987 154.867 266.481C154.023 262.974 153.048 258.688 152.064 253.969C151.079 249.25 150.05 244.044 149.25 238.535C148.449 233.026 147.886 227.712 147.648 222.939C147.41 218.166 147.399 213.783 147.648 210.146C147.702 208.317 147.843 206.683 147.962 205.233C148.012 204.511 148.066 203.84 148.124 203.22C148.189 202.613 148.254 202.051 148.308 201.531C148.416 200.568 148.503 199.789 148.557 199.193C148.594 198.924 148.605 198.653 148.589 198.382Z" fill="#263238"/>
<path d="M317.224 290.595C317.2 290.092 317.117 289.595 316.975 289.112C316.63 287.809 316.174 286.538 315.612 285.313C313.762 281.228 310.884 277.693 307.259 275.054C303.633 272.415 299.384 270.762 294.929 270.258C293.589 270.095 292.238 270.052 290.892 270.128C290.396 270.134 289.902 270.196 289.42 270.312C291.228 270.323 293.035 270.435 294.831 270.648C299.186 271.252 303.324 272.921 306.879 275.508C310.434 278.094 313.296 281.518 315.211 285.475C315.971 287.145 316.643 288.854 317.224 290.595Z" fill="#263238"/>
<path d="M309.085 261.827C308.806 261.756 308.518 261.731 308.23 261.751C307.453 261.737 306.676 261.773 305.903 261.859C303.348 262.119 300.844 262.746 298.468 263.721C296.094 264.706 293.872 266.022 291.866 267.628C291.261 268.112 290.686 268.632 290.145 269.186C289.766 269.587 289.571 269.814 289.593 269.847C289.615 269.879 290.545 269.089 292.115 267.942C296.196 264.945 300.948 262.99 305.958 262.249C307.873 261.967 309.085 261.924 309.085 261.827Z" fill="#263238"/>
<path d="M272.601 187.072C272.68 186.56 272.709 186.041 272.687 185.524C272.687 184.528 272.752 183.099 272.871 181.335C273.503 172.108 276.03 163.111 280.296 154.905C281.108 153.336 281.811 152.08 282.32 151.236C282.605 150.806 282.848 150.349 283.045 149.872C282.7 150.257 282.392 150.674 282.125 151.117C281.562 151.94 280.805 153.163 279.961 154.721C275.468 162.9 272.913 172.002 272.493 181.324C272.428 183.099 272.428 184.571 272.493 185.535C272.476 186.049 272.512 186.564 272.601 187.072Z" fill="#263238"/>
<path d="M205.108 239.488C205.131 239.696 205.182 239.9 205.259 240.094C205.389 240.484 205.551 241.079 205.844 241.793C206.633 243.862 207.615 245.851 208.777 247.735C212.618 254.018 218.193 259.057 224.831 262.244C231.469 265.432 238.887 266.632 246.192 265.702C248.396 265.428 250.569 264.953 252.686 264.284C253.433 264.056 253.996 263.807 254.375 263.667C254.573 263.602 254.765 263.519 254.948 263.418C254.948 263.364 254.115 263.645 252.621 264.067C250.496 264.663 248.323 265.076 246.127 265.301C238.906 266.15 231.592 264.931 225.037 261.785C218.482 258.638 212.956 253.695 209.101 247.53C207.923 245.678 206.895 243.734 206.028 241.717C205.497 240.289 205.151 239.466 205.108 239.488Z" fill="#263238"/>
<path d="M279.376 320.715C279.43 320.661 279.982 321.451 281.303 322.534C283.234 323.992 285.445 325.038 287.797 325.608C291.261 326.474 294.84 326.792 298.403 326.549C302.429 326.257 306.878 325.781 311.488 325.099C315.831 324.537 320.109 323.551 324.26 322.155C325.992 321.393 327.578 320.335 328.946 319.027C330.152 317.896 331.24 316.645 332.193 315.293C333.604 313.34 334.812 311.247 335.797 309.048C336.133 308.258 336.392 307.652 336.555 307.23C336.619 307.008 336.714 306.797 336.836 306.602C336.795 306.826 336.738 307.047 336.663 307.262C336.533 307.706 336.306 308.345 335.992 309.135C335.084 311.393 333.918 313.54 332.518 315.531C331.571 316.918 330.483 318.202 329.271 319.363C327.875 320.722 326.248 321.822 324.465 322.61C320.289 324.061 315.972 325.073 311.586 325.629C306.943 326.322 302.505 326.776 298.447 327.047C294.829 327.26 291.201 326.894 287.699 325.965C285.329 325.353 283.116 324.247 281.205 322.718C280.702 322.283 280.242 321.801 279.831 321.278C279.656 321.111 279.503 320.922 279.376 320.715Z" fill="#263238"/>
<path d="M273.564 205.471C273.705 205.471 277.428 219.855 281.854 237.691C286.281 255.528 289.755 270.009 289.604 270.052C289.452 270.096 285.74 255.658 281.313 237.821C276.887 219.985 273.412 205.503 273.564 205.471Z" fill="#263238"/>
<path d="M269.072 286.947C268.957 286.561 268.895 286.16 268.888 285.757C268.78 284.678 268.755 283.593 268.812 282.51C268.936 280.858 269.484 279.266 270.403 277.888C270.924 277.069 271.53 276.307 272.211 275.616C272.965 274.895 273.805 274.27 274.711 273.754C277.917 272.072 281.387 270.952 284.971 270.442C286.047 270.287 287.132 270.193 288.218 270.161C288.617 270.102 289.021 270.102 289.42 270.161C289.42 270.247 287.72 270.312 285.025 270.799C281.521 271.403 278.132 272.549 274.982 274.198C274.113 274.692 273.306 275.288 272.579 275.973C271.922 276.632 271.334 277.358 270.826 278.137C269.929 279.421 269.371 280.91 269.202 282.467C269.106 283.546 269.073 284.63 269.105 285.714C269.142 286.125 269.131 286.539 269.072 286.947Z" fill="#263238"/>
<g opacity="0.3">
<path d="M150.213 246.902C141.219 231.674 141.024 211.889 148.871 196.033C146.358 212.927 146.9 230.135 150.472 246.837" fill="black"/>
</g>
<path d="M164.553 315.206C167.389 309.86 189.501 295.725 189.501 295.725L183.515 294.339L176.902 297.132C176.402 299.373 175.432 301.484 174.056 303.323C171.632 306.786 167.508 303.203 167.508 303.203L170.3 289.815L183.375 281.947C183.375 281.947 195.67 283.83 197.661 284.783L202.9 289.577C205.205 291.385 211.85 298.495 213.669 298.712C215.487 298.928 272.6 286.103 272.6 286.103C280.426 292.305 284.506 304.611 285.783 313.496C285.783 313.496 287.179 317.826 285.664 320.228L215.606 325.726L200.757 329.828C196.78 331.473 192.707 332.872 188.559 334.017C183.624 335.099 180.301 333.465 180.16 330.77C180.019 328.075 183.862 327.74 183.862 327.74C187.138 326.564 190.327 325.161 193.408 323.54C195.663 322.037 197.52 320.01 198.819 317.631L193.527 318.258C193.527 318.258 182.271 326.073 178.039 328.367C173.807 330.662 172.974 326.452 172.627 325.12C172.281 323.789 185.269 311.148 185.269 311.148C185.269 311.148 172.92 318.724 170.701 320.672C168.482 322.62 165.192 323.172 164.488 321.884C163.785 320.596 161.728 320.553 164.553 315.206Z" fill="#FFBE9D"/>
<path d="M225.445 316.44C225.507 316.156 225.529 315.865 225.509 315.575C225.522 315.234 225.5 314.893 225.445 314.557C225.401 314.107 225.318 313.661 225.196 313.226C224.492 310.698 223.272 308.343 221.613 306.31C219.996 304.27 218.183 302.392 216.202 300.704C215.424 299.961 214.572 299.301 213.658 298.734C214.378 299.525 215.145 300.273 215.953 300.974C217.838 302.728 219.589 304.62 221.191 306.635C222.813 308.616 224.047 310.885 224.828 313.323C225.39 315.207 225.336 316.451 225.445 316.44Z" fill="#EB996E"/>
<path d="M190.009 295.324C191.276 295.511 192.568 295.396 193.782 294.987C194.995 294.579 196.094 293.89 196.99 292.976C196.904 292.857 195.551 293.863 193.614 294.491C191.676 295.119 190.009 295.173 190.009 295.324Z" fill="#EB996E"/>
<path d="M186.33 309.979C190.14 308.784 193.841 307.263 197.391 305.433C195.459 305.944 193.575 306.625 191.763 307.468C189.884 308.149 188.066 308.99 186.33 309.979Z" fill="#EB996E"/>
<path d="M198.192 317.469C199.188 317.24 200.155 316.895 201.07 316.44C202.053 316.154 202.998 315.751 203.884 315.239C201.819 315.449 199.85 316.22 198.192 317.469Z" fill="#EB996E"/>
<path d="M188.18 310.953C188.974 311.501 189.701 312.14 190.345 312.858C190.868 313.677 191.29 314.556 191.6 315.477C191.665 315.477 191.73 315.12 191.6 314.557C191.469 313.825 191.164 313.135 190.713 312.544C190.266 311.953 189.683 311.478 189.014 311.159C188.527 310.921 188.18 310.899 188.18 310.953Z" fill="#EB996E"/>
<path d="M182.963 302.782C182.888 302.911 183.862 303.442 184.5 304.557C184.825 305.273 185.09 306.015 185.29 306.775C185.447 306.361 185.497 305.913 185.435 305.474C185.372 305.035 185.2 304.619 184.933 304.264C184.208 303.009 182.985 302.641 182.963 302.782Z" fill="#EB996E"/>
<path d="M184.717 288.17C184.782 288.17 184.977 287.954 185.139 287.467C185.306 286.828 185.306 286.157 185.139 285.519C184.984 284.877 184.663 284.287 184.208 283.809C183.851 283.452 183.559 283.322 183.516 283.376C183.969 284.086 184.332 284.849 184.598 285.649C184.752 286.48 184.792 287.328 184.717 288.17Z" fill="#EB996E"/>
<path d="M286.238 322.231C286.166 321.696 286.137 321.157 286.151 320.618C286.151 320.099 286.151 319.471 286.076 318.735C286 317.999 286.011 317.165 285.902 316.256C285.496 311.453 284.467 306.723 282.839 302.186C281.925 299.708 280.818 297.305 279.528 295C278.878 293.917 278.315 292.954 277.666 292.077C277.363 291.634 277.06 291.212 276.768 290.8C276.475 290.389 276.162 290.021 275.869 289.718C273.542 286.85 271.757 285.389 271.843 285.302C272.297 285.591 272.718 285.929 273.099 286.309C273.586 286.717 274.049 287.155 274.484 287.618C274.993 288.149 275.566 288.701 276.183 289.458C276.475 289.826 276.789 290.194 277.114 290.541C277.439 290.887 277.731 291.374 278.056 291.818C278.727 292.694 279.311 293.712 279.971 294.751C281.308 297.067 282.445 299.493 283.37 302.002C285.012 306.574 285.999 311.354 286.303 316.202C286.379 317.122 286.368 317.966 286.389 318.702C286.411 319.438 286.389 320.077 286.389 320.596C286.395 321.145 286.344 321.692 286.238 322.231Z" fill="#263238"/>
<g opacity="0.3">
<path d="M310.276 272.174C303.707 269.461 296.47 268.801 289.518 270.28C295.493 270.004 301.406 271.602 306.43 274.851C311.454 278.099 315.337 282.835 317.539 288.398C318.036 289.74 319.032 291.331 320.461 291.125C321.889 290.919 322.279 289.264 322.279 287.932C322.29 280.93 316.738 274.869 310.276 272.174Z" fill="black"/>
</g>
<path d="M148.135 193.425C147.811 193.366 147.497 193.26 147.204 193.111C146.609 192.883 145.775 192.505 144.758 192.028C142.103 190.703 139.568 189.15 137.182 187.385C134.804 185.63 132.581 183.674 130.536 181.541C129.757 180.718 129.14 180.026 128.751 179.539C128.361 179.052 128.144 178.759 128.177 178.727C128.209 178.694 129.194 179.701 130.818 181.259C132.928 183.294 135.165 185.192 137.517 186.942C139.876 188.677 142.346 190.257 144.909 191.671C146.944 192.786 148.2 193.349 148.135 193.425Z" fill="white"/>
<path d="M273.109 197.505C273.028 197.578 272.937 197.64 272.839 197.689L272.005 198.187C271.28 198.631 270.176 199.269 268.759 199.983C264.695 202.069 260.48 203.845 256.15 205.298C249.717 207.426 243.117 209.011 236.419 210.038C228.218 211.259 219.946 211.946 211.656 212.094C202.835 212.3 194.436 212.094 186.763 211.965C179.991 211.87 173.232 211.36 166.523 210.439C161.997 209.797 157.535 208.761 153.189 207.343C151.663 206.824 150.483 206.391 149.704 206.055L148.817 205.676C148.711 205.64 148.609 205.593 148.514 205.536L148.838 205.622L149.747 205.947C150.538 206.25 151.728 206.65 153.265 207.138C157.618 208.46 162.07 209.434 166.577 210.049C173.277 210.905 180.02 211.371 186.773 211.445C194.35 211.586 202.792 211.737 211.591 211.532C219.858 211.386 228.108 210.714 236.289 209.519C242.966 208.526 249.551 206.988 255.976 204.919C260.304 203.505 264.528 201.79 268.618 199.789C270.057 199.074 271.172 198.501 271.865 198.089L272.72 197.646C273.001 197.537 273.099 197.494 273.109 197.505Z" fill="white"/>
<path d="M148.546 236.079C148.089 236.037 147.639 235.942 147.204 235.797L143.6 234.812C140.569 233.957 136.392 232.734 131.781 231.36C127.17 229.985 123.014 228.697 120.005 227.745L116.455 226.598C116.015 226.471 115.588 226.305 115.178 226.1C115.635 226.142 116.085 226.236 116.52 226.381L120.124 227.366C123.155 228.221 127.333 229.444 131.943 230.819C136.554 232.193 140.71 233.47 143.719 234.423L147.269 235.581C147.711 235.701 148.139 235.868 148.546 236.079Z" fill="white"/>
<path d="M151.695 295.898C151.695 296.039 140.872 292.943 127.56 288.971C114.247 284.999 103.543 281.655 103.587 281.503C103.63 281.352 114.41 284.447 127.722 288.43C141.035 292.413 151.739 295.746 151.695 295.898Z" fill="white"/>
<path d="M308.122 166.475C307.758 166.828 307.359 167.144 306.931 167.417C306.152 167.99 304.983 168.791 303.522 169.744C295.878 174.688 287.679 178.717 279.094 181.746C277.449 182.32 276.107 182.753 275.166 183.024C274.689 183.197 274.196 183.32 273.694 183.392C274.144 183.158 274.615 182.966 275.101 182.818L278.965 181.379C282.211 180.134 286.66 178.294 291.422 175.967C296.184 173.64 300.362 171.237 303.327 169.419L306.834 167.254C307.237 166.953 307.668 166.692 308.122 166.475Z" fill="white"/>
<path d="M329.682 227.972C329.118 228.292 328.532 228.571 327.929 228.806C326.792 229.314 325.104 229.985 323.004 230.754C312.028 234.751 300.505 237.043 288.835 237.551C286.595 237.648 284.788 237.67 283.532 237.626C282.885 237.641 282.238 237.612 281.595 237.54C282.236 237.443 282.884 237.399 283.532 237.41C284.777 237.41 286.584 237.302 288.814 237.15C294.611 236.782 300.378 236.034 306.077 234.91C311.771 233.766 317.386 232.255 322.885 230.386C324.996 229.661 326.695 229.044 327.864 228.6C328.451 228.339 329.059 228.129 329.682 227.972Z" fill="white"/>
<path d="M298.576 326.333C298.568 326.129 298.586 325.925 298.63 325.726C298.695 325.283 298.793 324.72 298.901 324.027C299.009 323.335 299.172 322.382 299.28 321.321C299.388 320.261 299.572 319.07 299.615 317.728C299.615 317.068 299.702 316.364 299.745 315.639C299.789 314.914 299.745 314.146 299.745 313.366C299.745 311.797 299.68 310.12 299.594 308.355C299.309 304.535 298.727 300.742 297.851 297.013C296.933 293.292 295.728 289.648 294.247 286.114C293.511 284.512 292.851 282.964 292.082 281.59C291.714 280.897 291.379 280.215 291 279.577L289.918 277.78C289.258 276.611 288.543 275.615 287.97 274.739C287.396 273.862 286.887 273.104 286.4 272.509L285.383 271.113C285.252 270.959 285.143 270.788 285.058 270.604C285.208 270.736 285.346 270.881 285.47 271.037L286.552 272.379C287.141 273.071 287.694 273.794 288.208 274.544C288.814 275.421 289.55 276.395 290.232 277.553L291.314 279.349C291.693 279.977 292.039 280.67 292.396 281.362C293.176 282.737 293.868 284.285 294.561 285.897C297.679 292.989 299.512 300.579 299.973 308.312C300.037 310.087 300.135 311.775 300.07 313.356C300.07 314.146 300.07 314.914 300.005 315.65C299.94 316.386 299.897 317.079 299.843 317.75C299.767 319.103 299.55 320.293 299.41 321.354C299.269 322.415 299.107 323.324 298.944 324.049C298.782 324.774 298.663 325.294 298.566 325.748C298.59 325.942 298.594 326.138 298.576 326.333Z" fill="white"/>
<path d="M340.332 293.16C340.278 293.16 340.245 292.272 339.996 290.714C339.614 288.513 338.883 286.386 337.832 284.415C336.291 281.487 334.217 278.874 331.716 276.709C328.669 274.036 325.139 271.971 321.315 270.626C317.47 269.341 313.453 268.641 309.399 268.548C306.083 268.456 302.764 268.583 299.464 268.927C296.639 269.187 294.355 269.479 292.775 269.652L290.957 269.847C290.745 269.876 290.53 269.876 290.318 269.847C290.517 269.773 290.724 269.726 290.935 269.706L292.742 269.403C294.312 269.154 296.595 268.819 299.42 268.494C302.738 268.098 306.08 267.932 309.421 267.996C313.53 268.077 317.602 268.782 321.499 270.085C325.389 271.463 328.976 273.58 332.063 276.319C334.592 278.54 336.672 281.226 338.189 284.231C339.216 286.266 339.886 288.463 340.169 290.725C340.254 291.334 340.298 291.949 340.299 292.565C340.332 292.761 340.343 292.961 340.332 293.16Z" fill="white"/>
<path d="M223.897 261.827C223.696 261.888 223.489 261.924 223.28 261.935L221.516 262.119L215.022 262.66C209.535 263.082 201.948 263.602 193.57 264.035C185.193 264.468 177.585 264.738 172.076 264.803C169.327 264.803 167.097 264.803 165.582 264.803H163.818C163.61 264.81 163.402 264.788 163.201 264.738C163.404 264.696 163.611 264.678 163.818 264.684H165.582L172.076 264.522C177.563 264.359 185.161 264.035 193.538 263.591L214.989 262.379L221.483 262.011L223.258 261.935C223.465 261.871 223.68 261.835 223.897 261.827Z" fill="white"/>
<g opacity="0.3">
<path d="M230.185 264.078C237.004 266.08 246.42 266.567 253.098 264.078C247.902 271.47 237.869 274.144 229.157 271.741C220.444 269.338 212.424 260.626 211.753 251.61C215.974 257.292 223.366 262.054 230.185 264.078Z" fill="black"/>
</g>
<path d="M285.48 256.946C285.301 257.012 285.116 257.062 284.928 257.097L283.359 257.433C281.985 257.714 280.004 258.082 277.536 258.515C272.612 259.381 265.782 260.442 258.217 261.372C250.652 262.303 243.757 262.909 238.735 263.256C236.246 263.429 234.222 263.548 232.826 263.602L231.224 263.656C231.038 263.687 230.848 263.687 230.661 263.656C230.842 263.609 231.027 263.58 231.213 263.569L232.815 263.407L238.703 262.877C243.681 262.433 250.543 261.794 258.12 260.831C265.696 259.868 272.503 258.905 277.439 258.147L283.283 257.238L284.885 257.011C285.078 256.954 285.28 256.932 285.48 256.946Z" fill="white"/>
<g opacity="0.3">
<path d="M274.137 208.761C272.427 228.351 277.763 247.789 283.056 266.73C283.291 267.907 283.787 269.016 284.506 269.977C284.878 270.457 285.395 270.803 285.98 270.965C286.565 271.127 287.187 271.095 287.753 270.875C289.409 270.031 289.181 267.628 288.716 265.853L274.007 209.573" fill="black"/>
</g>
<path d="M0.0958505 228.275L22.3374 337.48H215.422C216.444 337.48 217.424 337.074 218.146 336.352C218.869 335.629 219.275 334.649 219.275 333.627C219.275 332.606 218.869 331.625 218.146 330.903C217.424 330.18 216.444 329.774 215.422 329.774H176.545L155.927 228.21C155.734 227.264 155.223 226.413 154.478 225.799C153.734 225.184 152.801 224.844 151.836 224.833L4.27358 223.221C3.64462 223.213 3.02187 223.346 2.45111 223.61C1.88034 223.875 1.37605 224.263 0.975312 224.748C0.574573 225.233 0.287562 225.802 0.13537 226.412C-0.0168215 227.022 -0.0303251 227.659 0.0958505 228.275Z" fill="#E0E0E0"/>
<path d="M0.0960898 228.275C0.0675601 228.168 0.0458725 228.06 0.0311537 227.95C-0.0103846 227.62 -0.0103846 227.285 0.0311537 226.955C0.107511 226.302 0.331374 225.676 0.685783 225.122C1.04019 224.569 1.51585 224.104 2.07672 223.762C2.47221 223.527 2.90368 223.359 3.35384 223.264C3.8532 223.171 4.36193 223.138 4.86909 223.167H8.34331L17.0018 223.242L72.795 223.773L111.693 224.162L133.491 224.39L144.92 224.509L150.754 224.563C151.252 224.563 151.717 224.563 152.248 224.563C152.768 224.614 153.274 224.761 153.741 224.996C154.707 225.449 155.476 226.238 155.906 227.214C156.094 227.692 156.229 228.19 156.306 228.697L156.609 230.169C156.804 231.143 157.01 232.128 157.205 233.113C157.616 235.094 158.016 237.085 158.428 239.077L160.895 251.231C162.562 259.42 164.265 267.801 166.004 276.373C169.489 293.495 173.115 311.299 176.827 329.655L176.567 329.439H214.794C215.298 329.415 215.802 329.444 216.299 329.525C217.335 329.782 218.233 330.425 218.81 331.322C219.138 331.799 219.362 332.34 219.468 332.909C219.574 333.479 219.559 334.064 219.425 334.627C219.29 335.19 219.039 335.719 218.687 336.179C218.334 336.639 217.89 337.019 217.381 337.296C216.821 337.599 216.199 337.765 215.563 337.783H165.268H112.992H22.3376H22.1753V337.621C15.3675 304.069 9.83689 276.752 6.00551 257.833C4.11146 248.374 2.62871 241.014 1.62215 236.014C1.12429 233.513 0.745481 231.609 0.539842 230.321C0.334202 229.033 0.182677 228.373 0.182677 228.373C0.182677 228.373 0.3342 229.033 0.604778 230.31L1.79531 235.981C2.82351 240.981 4.33876 248.341 6.28692 257.779L22.6298 337.545L22.4242 337.372H113.079H215.639C216.19 337.351 216.73 337.207 217.219 336.95C217.661 336.708 218.047 336.375 218.353 335.974C218.658 335.573 218.876 335.112 218.992 334.621C219.109 334.131 219.121 333.621 219.028 333.125C218.935 332.63 218.739 332.159 218.453 331.744C217.945 330.998 217.17 330.475 216.288 330.283C215.826 330.209 215.359 330.18 214.892 330.196H176.329V329.991C172.606 311.592 169.002 293.82 165.506 276.698C163.767 268.14 162.068 259.76 160.408 251.556L157.876 239.239C157.475 237.237 157.075 235.256 156.674 233.275C156.469 232.29 156.274 231.306 156.068 230.321L155.776 228.86C155.705 228.381 155.578 227.912 155.397 227.463C155.035 226.601 154.379 225.896 153.546 225.472C153.128 225.266 152.678 225.134 152.215 225.082C151.761 225.082 151.241 225.082 150.765 225.082L144.92 225.017L133.491 224.887L111.704 224.628L72.8058 224.173L17.0126 223.491L8.35414 223.372L4.87991 223.318C4.38078 223.288 3.8798 223.313 3.38631 223.394C2.94902 223.492 2.52928 223.656 2.14166 223.881C1.58424 224.209 1.10977 224.66 0.755029 225.201C0.40029 225.741 0.174817 226.356 0.0960898 226.998C0.0418558 227.422 0.0418558 227.851 0.0960898 228.275Z" fill="#263238"/>
<path d="M89.0621 278.289C89.0621 279.55 88.6882 280.782 87.9878 281.83C87.2873 282.879 86.2917 283.696 85.1268 284.178C83.962 284.661 82.6802 284.787 81.4436 284.541C80.207 284.295 79.0711 283.688 78.1796 282.796C77.2881 281.905 76.6809 280.769 76.435 279.532C76.189 278.296 76.3152 277.014 76.7977 275.849C77.2802 274.684 78.0973 273.689 79.1456 272.988C80.194 272.288 81.4265 271.914 82.6873 271.914C84.378 271.914 85.9995 272.586 87.195 273.781C88.3905 274.977 89.0621 276.598 89.0621 278.289Z" fill="white"/>
<path d="M0.26913 229.163C0.26913 229.163 0.49641 229.163 0.940158 229.163H10.3996L38.0094 229.293L129.086 229.931L142.258 230.039H145.505C146.059 230.014 146.614 230.046 147.161 230.137C147.715 230.245 148.244 230.458 148.719 230.765C149.684 231.374 150.383 232.325 150.678 233.427C150.927 234.509 151.1 235.505 151.317 236.544C152.951 244.77 154.564 252.703 156.025 260.258C159.012 275.41 161.707 288.993 163.958 300.433L169.272 327.491C169.878 330.684 170.355 333.162 170.69 334.861C170.842 335.695 170.961 336.333 171.047 336.788C171.134 337.242 171.145 337.437 171.145 337.437C171.145 337.437 171.08 337.221 170.993 336.799C170.907 336.377 170.755 335.716 170.582 334.883C170.235 333.184 169.727 330.716 169.067 327.534C167.768 321.127 165.906 311.884 163.59 300.476L155.538 260.323C154.033 252.746 152.442 244.835 150.808 236.609C150.592 235.592 150.397 234.531 150.18 233.535C149.911 232.563 149.29 231.726 148.438 231.187C148.012 230.929 147.543 230.752 147.052 230.667C146.541 230.583 146.022 230.554 145.505 230.581H142.258L129.086 230.483L37.9985 229.682L10.3996 229.379L2.88832 229.271H0.940158L0.26913 229.163Z" fill="#263238"/>
<path d="M258.13 63.3091C258.353 73.4066 256.435 83.4367 252.502 92.7397C248.57 102.043 242.713 110.408 235.315 117.284C231.902 107.435 228.5 97.5859 225.109 87.7369" fill="#263238"/>
<path d="M181.243 4.53953C189.999 -0.244289 200.573 -0.936968 210.357 1.02202C220.141 2.981 229.254 7.40765 237.891 12.4079C242.74 15.2111 247.567 18.2957 251.052 22.6683C257.405 30.6666 263.693 43.8058 264.299 54.0553C264.797 62.3025 261.637 82.9422 258.152 90.4318C254.959 97.3045 239.991 102.543 232.598 104.242L164.802 25.3416C166.028 20.9579 168.112 16.8616 170.935 13.2905C173.757 9.71941 177.261 6.74481 181.243 4.53953Z" fill="#263238"/>
<path d="M169.554 15.1678L185.788 12.2672C176.903 33.4264 174.489 81.8057 169.413 104.188C163.417 95.5295 149.509 69.0128 150.256 58.4819C151.003 47.951 150.299 13.382 169.554 15.1678Z" fill="#263238"/>
<path d="M246.625 50.3862C245.749 38.0262 237.74 27.8958 225.737 24.8329L188.3 15.2869C172.13 13.5443 161.328 33.4373 160.268 49.6719C159.088 67.7141 158.363 86.7411 160.473 100.205C164.705 127.263 185.442 130.77 185.442 130.77C185.442 130.77 185.442 143.649 185.442 151.55L197.965 203.404L238.324 147.643L246.679 50.7326C246.712 50.2564 246.625 51.0032 246.625 50.3862Z" fill="#FFBE9D"/>
<path d="M168.396 70.1169C168.387 71.0219 168.731 71.8946 169.356 72.5496C169.98 73.2045 170.836 73.5898 171.74 73.6236C172.182 73.6589 172.626 73.6055 173.047 73.4666C173.468 73.3276 173.856 73.1059 174.19 72.8144C174.524 72.5229 174.796 72.1677 174.991 71.7695C175.185 71.3713 175.298 70.9382 175.322 70.4957C175.332 69.5926 174.989 68.7213 174.366 68.0667C173.744 67.4121 172.891 67.0256 171.989 66.989C171.546 66.9522 171.101 67.0044 170.679 67.1427C170.257 67.281 169.867 67.5025 169.532 67.7941C169.197 68.0857 168.924 68.4415 168.728 68.8405C168.533 69.2394 168.42 69.6735 168.396 70.1169Z" fill="#263238"/>
<path d="M164.369 60.2677C164.802 60.7223 167.432 58.7849 171.166 58.7957C174.9 58.8066 177.66 60.6898 178.039 60.2352C178.245 60.0296 177.801 59.2178 176.61 58.3412C174.997 57.2188 173.077 56.6216 171.112 56.6311C169.171 56.6244 167.277 57.2304 165.701 58.3628C164.51 59.2503 164.121 60.062 164.369 60.2677Z" fill="#263238"/>
<path d="M200.951 70.1169C200.942 71.0219 201.287 71.8947 201.911 72.5496C202.536 73.2045 203.392 73.5898 204.296 73.6236C204.739 73.6605 205.185 73.6078 205.607 73.4687C206.029 73.3297 206.419 73.1071 206.753 72.8142C207.087 72.5213 207.359 72.1642 207.552 71.764C207.746 71.3638 207.857 70.9288 207.878 70.4849C207.888 69.5818 207.545 68.7105 206.922 68.0559C206.3 67.4013 205.447 67.0147 204.545 66.9782C204.101 66.9414 203.655 66.994 203.232 67.1329C202.81 67.2719 202.419 67.4943 202.084 67.7871C201.749 68.0798 201.476 68.4369 201.281 68.8371C201.087 69.2373 200.975 69.6725 200.951 70.1169Z" fill="#263238"/>
<path d="M199.793 60.2678C200.226 60.7224 202.867 58.7851 206.601 58.7959C210.335 58.8067 213.095 60.6899 213.474 60.2354C213.669 60.0297 213.236 59.218 212.045 58.3413C210.439 57.2291 208.533 56.6326 206.58 56.6313C204.639 56.6282 202.746 57.2338 201.168 58.363C199.977 59.2505 199.588 60.0622 199.793 60.2678Z" fill="#263238"/>
<path d="M188.18 89.5985C188.18 89.3929 185.875 88.9816 182.109 88.5162C181.156 88.4188 180.258 88.224 180.096 87.5746C180.017 86.5887 180.244 85.6024 180.745 84.7498C181.647 82.4481 182.592 80.0273 183.581 77.4875C187.52 67.1622 190.367 58.666 189.955 58.5145C189.544 58.363 186.005 66.5994 182.065 76.9138C181.113 79.4537 180.207 81.8853 179.349 84.2086C178.746 85.3587 178.566 86.6841 178.84 87.9534C178.977 88.2907 179.19 88.5919 179.462 88.8339C179.735 89.076 180.058 89.2524 180.409 89.3496C180.934 89.5005 181.477 89.577 182.022 89.5769C185.756 89.7934 188.105 89.815 188.18 89.5985Z" fill="#263238"/>
<path d="M221.342 121.126C221.342 121.126 212.532 139.753 185.453 137.123V130.759C198.077 130.933 210.502 127.598 221.342 121.126Z" fill="#EB996E"/>
<path d="M200.973 46.7713C201.341 47.7887 205.064 47.3125 209.448 47.8536C213.831 48.3948 217.37 49.5962 217.955 48.687C218.214 48.2433 217.597 47.2908 216.169 46.3059C214.273 45.0906 212.112 44.3483 209.87 44.1413C207.629 43.8674 205.356 44.127 203.235 44.8989C201.623 45.4942 200.811 46.2843 200.973 46.7713Z" fill="#263238"/>
<path d="M165.549 48.8386C166.199 49.6936 168.796 48.8386 171.87 48.7845C174.944 48.7304 177.584 49.3689 178.191 48.4814C178.45 48.0485 178.039 47.2043 176.903 46.3926C175.366 45.4297 173.579 44.9436 171.766 44.9957C169.954 45.0477 168.197 45.6354 166.718 46.6848C165.614 47.5506 165.257 48.4273 165.549 48.8386Z" fill="#263238"/>
<path d="M167.617 24.941C169.273 20.8715 173.743 18.4471 178.126 18.209C182.509 17.9709 186.784 19.6485 190.616 21.8456C206.731 31.1643 215.022 53.6656 230.943 63.309C234.861 65.6792 239.958 63.5038 243.292 66.6425C246.625 69.7812 248.779 74.8031 246.939 78.9917C249.221 76.1592 251.083 73.0136 252.47 69.6513C253.682 66.2204 253.834 62.2483 252.015 59.0988C250.641 56.7069 248.206 54.8886 247.545 52.2153C246.95 49.8558 247.881 47.399 247.784 44.9746C247.508 42.511 246.659 40.1461 245.305 38.0695C239.06 27.0407 230.477 17.0618 219.427 10.8493C212.212 6.68382 204 4.56231 195.67 4.71259C187.293 4.90033 179.26 8.08349 173.028 13.685C169.467 17.0077 165.723 20.4386 167.617 24.941Z" fill="#263238"/>
<path d="M242.902 69.9979C243.184 69.2186 257.308 64.1317 257.492 79.1326C257.676 93.7113 242.967 90.8432 242.935 90.4211C242.902 89.999 242.902 69.9979 242.902 69.9979Z" fill="#FFBE9D"/>
<path d="M247.383 84.8579C247.448 84.8579 247.632 85.031 248.065 85.2259C248.676 85.4693 249.358 85.4693 249.97 85.2259C251.496 84.6522 252.773 82.1846 252.816 79.5654C252.846 78.3134 252.595 77.0706 252.08 75.9288C251.936 75.4754 251.685 75.0636 251.348 74.7282C251.01 74.3928 250.597 74.1437 250.143 74.0023C249.852 73.9266 249.545 73.9557 249.274 74.0843C249.002 74.213 248.785 74.433 248.66 74.7058C248.465 75.1171 248.563 75.4093 248.476 75.4309C248.389 75.4526 248.162 75.1928 248.281 74.5867C248.361 74.2288 248.559 73.9084 248.844 73.6776C249.04 73.5236 249.264 73.4099 249.503 73.3431C249.743 73.2762 249.993 73.2574 250.24 73.2879C250.841 73.3997 251.403 73.6647 251.871 74.0572C252.339 74.4497 252.698 74.9564 252.914 75.5283C253.551 76.7807 253.867 78.1715 253.834 79.5762C253.769 82.5201 252.297 85.28 250.186 85.9077C249.798 86.0256 249.388 86.0547 248.987 85.9929C248.586 85.9311 248.205 85.7799 247.87 85.5506C247.405 85.215 247.329 84.8903 247.383 84.8579Z" fill="#EB996E"/>
<path d="M248.703 62.5083C248.398 62.3716 248.104 62.2087 247.827 62.0212C247.264 61.6641 246.398 61.1879 245.381 60.4627C242.506 58.3624 239.865 55.9604 237.501 53.2978C234.064 49.3134 230.851 45.14 227.88 40.7971C224.3 35.4749 220.277 30.4641 215.855 25.8179C213.495 23.4966 210.889 21.4389 208.084 19.6812C205.455 18.0787 202.643 16.7995 199.707 15.8714C194.724 14.2729 189.484 13.6303 184.262 13.9774C180.739 14.1922 177.26 14.8728 173.916 16.0013C172.714 16.3693 171.827 16.7698 171.21 17.0079C170.903 17.1484 170.584 17.2607 170.257 17.3434C170.545 17.1705 170.846 17.0186 171.156 16.8888C172.024 16.4735 172.916 16.112 173.829 15.8065C177.171 14.5628 180.673 13.8047 184.23 13.5553C189.513 13.123 194.83 13.7109 199.891 15.287C202.884 16.2091 205.752 17.4959 208.43 19.1184C211.277 20.9019 213.923 22.9885 216.321 25.3417C220.771 30.0339 224.805 35.1037 228.378 40.494C231.317 44.8375 234.482 49.0245 237.859 53.0381C240.174 55.7057 242.744 58.1415 245.532 60.3112C246.528 61.058 247.361 61.5667 247.892 61.9563C248.177 62.1176 248.448 62.3022 248.703 62.5083Z" fill="#455A64"/>
<path d="M249.039 87.4337C249.756 87.3014 250.497 87.4475 251.111 87.8424C251.724 88.2372 252.164 88.8511 252.341 89.559C252.518 90.2668 252.419 91.0155 252.063 91.6526C251.707 92.2897 251.122 92.7672 250.427 92.988C249.731 93.2088 248.978 93.1562 248.32 92.841C247.662 92.5257 247.148 91.9715 246.885 91.2912C246.621 90.6109 246.626 89.8557 246.9 89.1792C247.173 88.5028 247.694 87.956 248.357 87.6502" fill="white"/>
<path d="M248.357 87.6503C247.731 88.1549 247.274 88.8383 247.047 89.6093C246.944 90.0067 246.941 90.4237 247.039 90.8225C247.138 91.2213 247.334 91.5892 247.61 91.893C247.936 92.2767 248.367 92.5557 248.85 92.6951C249.334 92.8346 249.847 92.8282 250.327 92.6768C250.807 92.5253 251.231 92.2356 251.547 91.8439C251.863 91.4523 252.056 90.9761 252.102 90.4751C252.146 90.071 252.09 89.6622 251.939 89.2847C251.788 88.9072 251.547 88.5726 251.236 88.3105C250.617 87.8149 249.862 87.5204 249.071 87.4663C249.071 87.4663 249.288 87.3148 249.753 87.304C250.413 87.3093 251.053 87.5339 251.571 87.9425C251.977 88.2428 252.297 88.6428 252.502 89.1037C252.707 89.5645 252.789 90.0706 252.74 90.5726C252.699 91.2004 252.47 91.8013 252.082 92.2967C251.694 92.7921 251.166 93.1591 250.566 93.3496C249.967 93.5401 249.324 93.5454 248.721 93.3647C248.118 93.184 247.584 92.8257 247.188 92.3367C246.86 91.9557 246.636 91.4965 246.537 91.0036C246.439 90.5106 246.469 90.0006 246.625 89.5227C246.797 88.8919 247.179 88.3384 247.708 87.9534C248.086 87.6611 248.346 87.6178 248.357 87.6503Z" fill="#263238"/>
<path d="M245.034 66.6319C245.261 70.6148 245.445 74.8142 243.606 78.3533C241.766 81.8925 237.112 84.306 233.67 82.3254C230.845 80.7128 230.001 77.087 229.514 73.8725C228.139 64.5863 227.501 55.2026 226.04 45.9272L245.034 66.6319Z" fill="#263238"/>
<path d="M171.21 18.0143C171.21 18.0901 172.498 17.7654 174.824 17.6896C178.127 17.6392 181.407 18.2386 184.479 19.4538C186.597 20.2743 188.622 21.3193 190.518 22.5708C192.691 24.0296 194.773 25.6199 196.752 27.333C201.338 31.2113 205.437 35.6304 208.961 40.4939C210.811 43.0915 212.456 45.7648 214.231 48.2433C215.917 50.6532 217.879 52.858 220.076 54.8129C223.856 58.0164 227.988 60.7796 232.393 63.0493C236.127 65.0191 239.244 66.4045 241.398 67.3786L243.887 68.4609C244.174 68.6014 244.475 68.7102 244.785 68.7856C244.529 68.5998 244.254 68.4437 243.963 68.3202L241.527 67.1188C239.363 66.0365 236.343 64.6079 232.674 62.5839C228.349 60.2552 224.292 57.4607 220.574 54.2501C218.429 52.3157 216.518 50.1361 214.881 47.7562C213.138 45.3102 211.504 42.6369 209.632 40.0069C206.07 35.0914 201.911 30.6378 197.25 26.7486C195.229 25.0307 193.104 23.4403 190.886 21.9864C188.937 20.7352 186.858 19.7009 184.684 18.9018C181.537 17.7089 178.175 17.1855 174.814 17.3649C173.907 17.4178 173.005 17.5445 172.119 17.7437C171.805 17.7918 171.499 17.8828 171.21 18.0143Z" fill="#455A64"/>
<path d="M245.435 57.6269C245.828 57.9651 246.261 58.2557 246.723 58.4927L250.424 60.6574L251.658 61.3609C252.145 61.6558 252.693 61.8371 253.26 61.8912C253.604 61.9287 253.951 61.8486 254.245 61.6639C254.401 61.5541 254.531 61.4106 254.625 61.2438C254.718 61.0771 254.773 60.8915 254.786 60.7007C254.754 60.0317 254.515 59.389 254.104 58.8607L249.775 51.9989L249.19 52.5292C252.048 54.6343 255.549 55.6789 259.093 55.4839C259.546 55.4805 259.996 55.4037 260.425 55.2566C260.664 55.1782 260.885 55.0499 261.071 54.8801C261.258 54.7104 261.406 54.503 261.507 54.2717C261.59 54.0249 261.611 53.7613 261.567 53.5045C261.524 53.2477 261.418 53.0056 261.258 52.7998C261.017 52.4681 260.741 52.1633 260.435 51.8906C258.511 50.0298 256.84 47.9227 255.468 45.624C254.257 43.4646 253.201 41.2223 252.307 38.9137C252.375 39.5844 252.532 40.2431 252.773 40.8727C253.317 42.6244 254.043 44.3147 254.937 45.9163C256.267 48.3032 257.929 50.4896 259.873 52.4101C260.414 52.9297 260.955 53.4925 260.749 53.9795C260.544 54.4665 259.743 54.6722 258.974 54.6722C257.307 54.7561 255.638 54.5547 254.039 54.0769C252.446 53.6092 250.942 52.8775 249.591 51.9123L247.859 50.6352L249.017 52.4426L253.346 59.2504C253.684 59.6579 253.898 60.1536 253.963 60.679C253.963 61.0903 253.595 61.3284 253.13 61.2959C252.194 61.1115 251.304 60.7436 250.511 60.2136L246.701 58.2655C246.302 58.0086 245.878 57.7946 245.435 57.6269Z" fill="#455A64"/>
<path d="M202.326 96.4603C202.054 95.3512 201.401 94.3729 200.481 93.6963C199.561 93.0198 198.433 92.6879 197.293 92.7588C196.461 92.861 195.667 93.1687 194.983 93.6543C194.299 94.1399 193.746 94.788 193.375 95.5404C193.012 96.2973 192.805 97.1194 192.766 97.9579C192.727 98.7964 192.857 99.6342 193.148 100.422L193.235 100.768C194.012 101.606 195.029 102.183 196.147 102.421C197.264 102.659 198.428 102.547 199.48 102.099C200.509 101.604 201.346 100.783 201.861 99.7633C202.375 98.7437 202.539 97.5825 202.326 96.4603Z" fill="#EB996E"/>
<path d="M190.518 100.876C190.518 100.313 194.295 100.486 197.142 97.391C199.988 94.2956 199.761 90.2478 200.292 90.2478C200.53 90.2478 200.984 91.1785 200.941 92.8886C200.863 95.0986 200.009 97.2103 198.527 98.8522C197.098 100.431 195.111 101.394 192.986 101.536C191.427 101.601 190.486 101.136 190.518 100.876Z" fill="#263238"/>
<path d="M317.755 330.24C317.672 330.251 317.589 330.251 317.506 330.24L316.748 330.316L313.859 330.554C311.348 330.759 307.711 330.997 303.209 331.268C294.215 331.798 281.779 332.35 268.033 332.578C254.288 332.805 241.82 332.675 232.815 332.437C228.313 332.329 224.665 332.199 222.154 332.091L219.254 331.939H222.154L232.826 332.123C241.831 332.253 254.277 332.318 268.023 332.123C281.768 331.928 294.193 331.409 303.187 330.976L313.848 330.445L316.748 330.316H317.495L317.755 330.24Z" fill="white"/>
</svg>
