<svg width="11" height="11" viewBox="0 0 11 11" fill="none" xmlns="http://www.w3.org/2000/svg">
<path d="M0.0335033 6.10604C0.153291 7.18634 0.590492 8.20692 1.2899 9.03893C1.98931 9.87093 2.91957 10.4771 3.96321 10.7807C5.00685 11.0844 6.11708 11.0721 7.1537 10.7453C8.19033 10.4184 9.10686 9.79174 9.78759 8.94438C10.4683 8.09701 10.8827 7.06695 10.9784 5.98425C11.0741 4.90154 10.8469 3.81474 10.3254 2.86109C9.80389 1.90744 9.01151 1.12969 8.0483 0.626058C7.0851 0.122422 5.99426 -0.0845318 4.91353 0.0313495C4.19373 0.10853 3.49624 0.327045 2.86108 0.674382C2.22592 1.02172 1.66557 1.49104 1.21219 2.05541C0.758806 2.61978 0.421301 3.26812 0.219034 3.96322C0.0167667 4.65831 -0.0462792 5.38652 0.0335033 6.10604Z" fill="#606C38"/>
</svg>
