<svg width="179" height="320" viewBox="0 0 179 320" fill="none" xmlns="http://www.w3.org/2000/svg">
<path d="M115.897 304.834L126.663 303.267L123.95 278.084L113.174 279.651L115.897 304.834Z" fill="#E8BFBF"/>
<path d="M134.942 303.645C135.875 303.574 136.757 303.194 137.449 302.564C137.594 302.381 137.692 302.165 137.736 301.936C137.779 301.706 137.766 301.469 137.698 301.246C137.666 301.107 137.6 300.98 137.505 300.874C137.411 300.768 137.291 300.688 137.157 300.64C135.72 300.122 131.753 303.029 131.343 303.353C131.299 303.386 131.266 303.432 131.248 303.484C131.231 303.536 131.23 303.592 131.245 303.645C131.263 303.693 131.296 303.735 131.338 303.764C131.381 303.793 131.432 303.808 131.483 303.807C132.639 303.856 133.796 303.802 134.942 303.645ZM136.455 301.116C136.615 301.079 136.781 301.079 136.941 301.116C136.998 301.134 137.048 301.166 137.088 301.21C137.128 301.253 137.156 301.307 137.168 301.365C137.213 301.513 137.221 301.67 137.193 301.822C137.165 301.974 137.101 302.118 137.006 302.24C136.455 302.921 134.693 303.321 132.251 303.321C133.53 302.365 134.962 301.634 136.487 301.159L136.455 301.116Z" fill="#606C38"/>
<path d="M131.548 303.818H131.635C132.834 303.029 134.985 300.284 134.574 299.106C134.49 298.898 134.336 298.727 134.138 298.622C133.941 298.518 133.712 298.486 133.494 298.533C133.235 298.54 132.981 298.601 132.747 298.711C132.512 298.82 132.303 298.977 132.132 299.171C130.975 300.511 131.202 303.494 131.202 303.58C131.203 303.624 131.213 303.666 131.232 303.706C131.25 303.745 131.277 303.779 131.31 303.807C131.347 303.826 131.387 303.836 131.428 303.838C131.469 303.84 131.51 303.833 131.548 303.818ZM133.353 299.041L133.504 298.965C133.98 298.965 134.034 299.127 134.045 299.181C134.304 299.905 132.867 302.013 131.678 302.986C131.57 301.742 131.861 300.497 132.51 299.43C132.738 299.194 133.047 299.051 133.375 299.03L133.353 299.041Z" fill="#606C38"/>
<path d="M125.517 298.803L115.973 301.084C115.766 301.125 115.582 301.242 115.456 301.412C115.33 301.582 115.272 301.792 115.292 302.002L115.606 315.826C115.637 316.055 115.714 316.276 115.831 316.476C115.949 316.675 116.104 316.85 116.289 316.989C116.473 317.129 116.684 317.231 116.908 317.289C117.132 317.347 117.365 317.361 117.594 317.329C117.663 317.335 117.731 317.335 117.8 317.329C121.928 316.248 123.885 315.599 129.138 314.378C132.38 313.643 142.572 312.865 146.755 311.006C150.938 309.147 149.306 304.91 147.404 305.31C141.264 306.628 133.353 304.002 128.911 300.003C128.349 299.668 126.219 298.641 125.517 298.803Z" fill="#263238"/>
<path opacity="0.2" d="M123.95 278.084L125.344 291.064L114.579 292.642L113.174 279.662L123.95 278.084Z" fill="black"/>
<path d="M129.7 285.725L109.78 289.443C109.78 289.443 100.106 275.63 98.2799 265.827C96.3776 255.613 98.4096 220.854 98.2799 220.432C92.6487 201.409 77.3334 152.124 69.9513 133.966C65.855 123.914 62.98 117.148 62.98 117.148L65.0444 116.683L81.3109 110.025L93.2 112.252C93.2 112.252 129.202 185.067 132.974 212.456C135.752 232.883 129.7 285.725 129.7 285.725Z" fill="#606C38"/>
<path opacity="0.3" d="M129.7 285.725L109.78 289.443C109.78 289.443 100.106 275.63 98.2799 265.827C96.3776 255.613 98.4096 220.854 98.2799 220.432C92.6487 201.409 77.3334 152.124 69.9513 133.966C65.855 123.914 62.98 117.148 62.98 117.148L65.0444 116.683L81.3109 110.025L93.2 112.252C93.2 112.252 129.202 185.067 132.974 212.456C135.752 232.883 129.7 285.725 129.7 285.725Z" fill="white"/>
<path opacity="0.2" d="M93.5895 203.917C87.9584 184.894 76.588 156.047 69.1952 137.911L64.299 120.617L63.3587 117.289L65.0772 120.434L84.37 163.17C92.8869 179.609 93.7192 204.382 93.5895 203.917Z" fill="black"/>
<path d="M6.16098 298.911L15.7587 302.953L25.9942 280.98L16.4072 276.938L6.16098 298.911Z" fill="#E8BFBF"/>
<path d="M22.0058 307.547C22.7659 308.023 23.6658 308.225 24.5565 308.12C24.7732 308.062 24.9724 307.953 25.1364 307.8C25.3004 307.647 25.4242 307.456 25.4968 307.244C25.552 307.121 25.574 306.985 25.5607 306.851C25.5475 306.716 25.4994 306.587 25.4212 306.477C24.5997 305.266 19.9198 305.277 19.401 305.277C19.3496 305.282 19.3005 305.301 19.2587 305.332C19.2169 305.362 19.184 305.403 19.1632 305.45C19.1498 305.499 19.1508 305.55 19.1662 305.598C19.1816 305.646 19.2105 305.689 19.2496 305.72C20.11 306.413 21.0327 307.024 22.0058 307.547ZM24.5998 306.466C24.7494 306.528 24.8799 306.629 24.978 306.758C25.0045 306.806 25.0184 306.86 25.0184 306.915C25.0184 306.969 25.0045 307.023 24.978 307.071C24.9275 307.21 24.8456 307.334 24.7387 307.436C24.6318 307.537 24.5028 307.612 24.362 307.655C23.5405 307.871 21.9733 307.179 20.0387 305.796C21.5796 305.761 23.1151 305.992 24.5781 306.477L24.5998 306.466Z" fill="#606C38"/>
<path d="M19.293 305.764H19.3795C20.7522 305.839 23.9622 304.931 24.3189 303.796C24.3769 303.585 24.3576 303.36 24.2645 303.162C24.1714 302.964 24.0105 302.806 23.8109 302.716C23.6089 302.574 23.3794 302.477 23.1372 302.43C22.8951 302.384 22.6459 302.389 22.4058 302.445C20.7414 302.813 19.2606 305.223 19.1634 305.32C19.1452 305.357 19.1358 305.398 19.1358 305.439C19.1358 305.481 19.1452 305.521 19.1634 305.558C19.1656 305.601 19.1787 305.642 19.2014 305.678C19.2241 305.714 19.2557 305.743 19.293 305.764ZM23.3894 303.094H23.5407C23.919 303.343 23.8541 303.515 23.8325 303.57C23.6272 304.261 21.3358 305.083 19.8659 305.169C20.4792 304.147 21.4033 303.348 22.5031 302.889C22.8181 302.835 23.1417 302.9 23.411 303.072L23.3894 303.094Z" fill="#606C38"/>
<path d="M17.4989 298.5L8.85224 294.869C8.66476 294.775 8.44833 294.756 8.24734 294.816C8.04636 294.876 7.87607 295.011 7.77141 295.193L0.205605 306.001C0.0993057 306.196 0.0325969 306.41 0.0092994 306.631C-0.0139981 306.852 0.00658492 307.076 0.0698586 307.288C0.133132 307.501 0.237846 307.7 0.377998 307.872C0.51815 308.044 0.690973 308.187 0.886533 308.293L1.07027 308.379C4.84237 309.925 6.74463 310.487 11.4895 312.519C14.3969 313.772 22.7193 318.95 26.9994 319.868C31.2795 320.787 32.4035 316.626 30.7174 315.837C25.2376 313.383 20.6333 306.898 19.4336 301.289C19.1634 300.748 18.1041 298.749 17.4989 298.5Z" fill="#263238"/>
<path opacity="0.2" d="M26.4157 281.24L20.871 292.426L11.3705 288.168L16.9044 276.97L26.4157 281.24Z" fill="black"/>
<path d="M28.4153 293.431L9.30622 283.25C9.30622 283.25 5.64221 269.642 9.30622 260.963C16.3532 244.264 34.7057 219.708 34.8246 219.243C39.7208 200.026 48.3026 147.379 51.2424 128.021C52.8637 117.289 53.8256 114.976 53.8256 114.976L55.8467 115.635L85.0292 115.689C85.0292 115.689 90.5414 160.003 69.4004 228.528C64.1475 245.583 55.3496 259.764 40.834 278.948C36.9474 283.987 32.8023 288.821 28.4153 293.431Z" fill="#606C38"/>
<path opacity="0.3" d="M28.4153 293.431L9.30622 283.25C9.30622 283.25 5.64221 269.642 9.30622 260.963C16.3532 244.264 34.7057 219.708 34.8246 219.243C39.7208 200.026 48.3026 147.379 51.2424 128.021C52.8637 117.289 53.8256 114.976 53.8256 114.976L55.8467 115.635L85.0292 115.689C85.0292 115.689 90.5414 160.003 69.4004 228.528C64.1475 245.583 55.3496 259.764 40.834 278.948C36.9474 283.987 32.8023 288.821 28.4153 293.431Z" fill="white"/>
<path d="M110.99 79.5136C111.433 76.0011 112.92 72.7026 115.26 70.0455C115.854 69.4186 118.135 68.4675 119.432 67.6244C125.776 63.4632 138.487 58.2644 138.487 58.2644L142.41 61.6799C142.41 61.6799 134.671 69.1592 130.067 72.7476C129.159 73.4609 128.111 74.3148 127.008 75.2227C124.998 76.8871 115.573 83.1019 113.779 84.6691L110.99 79.5136Z" fill="#E8BFBF"/>
<path d="M149.663 56.3298L142.41 61.7339L138.346 58.74C139.39 57.4196 140.512 56.1635 141.708 54.9788C142.075 54.6219 142.368 54.1953 142.568 53.7238C142.769 53.2524 142.873 52.7457 142.875 52.2334C142.793 50.5619 143.167 48.8995 143.956 47.4238C143.954 47.395 143.954 47.3661 143.956 47.3373C144.326 46.8171 144.836 46.4129 145.427 46.1719C146.018 45.9309 146.665 45.8632 147.293 45.9765C147.921 46.0899 148.504 46.3797 148.973 46.8121C149.443 47.2444 149.779 47.8015 149.944 48.4181L151.025 52.2875C151.223 53.0204 151.2 53.7958 150.957 54.5153C150.715 55.2349 150.264 55.8664 149.663 56.3298Z" fill="#E8BFBF"/>
<path d="M113.304 80.9618L111.391 82.7128C110.796 82.2372 109.856 81.4698 108.667 80.4754C99.3503 72.7475 75.9935 53.9843 85.2995 48.6342C93.2868 44.0407 101.76 58.0807 105.987 62.3067C107.971 64.422 109.691 66.7701 111.11 69.2997C113.098 72.888 114.568 77.2221 113.304 80.9618Z" fill="#263238"/>
<path d="M111.099 67.6244C107.784 70.0496 104.982 73.1056 102.852 76.6169C103.632 79.171 104.951 81.5284 106.718 83.5306C108.485 85.5329 110.661 87.1335 113.098 88.225C115.807 82.0821 116.968 75.3688 116.481 68.6728C114.795 68.2837 112.785 67.9919 111.099 67.6244Z" fill="#263238"/>
<path d="M59.8131 47.5426C56.4734 48.6234 52.658 47.748 50.518 50.5257C48.378 53.3034 47.7403 56.9458 47.7403 60.4477C47.9372 65.3188 48.6841 70.1519 49.9668 74.8552C51.307 80.6196 52.6508 86.366 53.9983 92.0944C54.917 96.0286 53.9442 114.305 54.9278 114.608C54.9278 114.608 85.4828 114.014 93.1459 112.933C93.1459 112.933 93.8052 94.148 94.4213 87.7495C94.5618 86.3336 96.7126 80.3026 96.9612 78.7894C98.1609 71.6559 95.8155 66.6301 93.3513 59.8208C93.3513 59.8208 87.9471 48.9369 85.2991 48.6343C80.5975 48.1047 69.0975 44.5055 59.8131 47.5426Z" fill="#263238"/>
<path d="M58.5056 56.5459C58.3975 55.9191 52.9717 44.9595 47.7729 52.6225C40.5422 63.2795 40.0558 76.6602 40.0558 76.6602C40.0558 76.6602 35.6136 89.6301 38.7048 92.5051C41.7959 95.3802 45.1897 97.1743 47.3514 95.5639C48.8771 94.2317 50.0943 92.583 50.9181 90.7326C50.9181 90.7326 60.4295 67.7001 58.5056 56.5459Z" fill="#263238"/>
<path d="M58.1705 43.4786C57.6433 43.9531 57.2317 44.5418 56.9672 45.1999C56.7027 45.8579 56.5923 46.5678 56.6444 47.2751C56.6966 47.9824 56.9099 48.6684 57.2681 49.2805C57.6263 49.8927 58.1199 50.4147 58.7109 50.8067C58.3939 51.918 58.3969 53.0962 58.7198 54.2059C59.0426 55.3156 59.6721 56.3116 60.5359 57.0793C61.3996 57.8471 62.4626 58.3555 63.6025 58.546C64.7423 58.7366 65.9128 58.6015 66.9793 58.1563C66.0714 59.7992 67.0982 61.9716 68.687 62.9876C70.3629 63.8542 72.2064 64.3483 74.0911 64.4359C75.9832 64.526 77.7987 65.2106 79.2791 66.3922L85.0508 58.0806C85.8985 57.0647 86.4484 55.834 86.6396 54.5247C86.6936 53.2169 85.6993 51.7686 84.3915 51.8659C85.0471 51.1584 85.4122 50.2299 85.4141 49.2654C85.416 48.3008 85.0546 47.371 84.4018 46.6609C83.749 45.9508 82.8526 45.5127 81.8913 45.4337C80.93 45.3548 79.9742 45.6408 79.2143 46.2348C79.3068 45.6679 79.2312 45.0863 78.9968 44.562C78.7625 44.0376 78.3797 43.5933 77.8957 43.2841C76.9135 42.6916 75.799 42.3536 74.6532 42.3005L58.1705 43.4786Z" fill="#263238"/>
<path d="M61.6398 29.3739C63.1422 34.8861 64.9688 45.0567 61.3264 49.0774C68.0014 51.9587 74.01 56.1864 78.9763 61.4961C80.2883 60.2897 81.1881 58.7017 81.5489 56.9563C81.9096 55.2109 81.7129 53.3963 80.9866 51.7687C80.562 50.7351 79.9336 49.7976 79.1388 49.0121C78.344 48.2266 77.3992 47.6092 76.3607 47.1967C72.34 45.489 72.3076 41.544 72.9777 37.7503L61.6398 29.3739Z" fill="#E8BFBF"/>
<path opacity="0.2" d="M63.9099 38.7662L67.7036 39.793C69.3299 40.235 71.0303 40.3343 72.697 40.0848C72.5571 41.2534 72.6789 42.4386 73.0537 43.5543C71.7839 44.0446 70.399 44.1554 69.0674 43.8734C67.7357 43.5913 66.5147 42.9285 65.5528 41.9654C64.8511 40.9854 64.2975 39.9075 63.9099 38.7662Z" fill="black"/>
<path d="M54.2797 24.6722C58.2896 33.1459 59.8136 36.8207 65.9959 39.5228C75.3127 43.5975 84.824 36.7883 83.4189 27.2878C82.1435 18.7385 75.7882 6.2981 65.8986 6.25486C63.7214 6.23466 61.5752 6.77076 59.6632 7.81236C57.7512 8.85397 56.1369 10.3666 54.9732 12.2068C53.8095 14.047 53.135 16.1539 53.0137 18.3278C52.8923 20.5018 53.3281 22.6706 54.2797 24.629V24.6722Z" fill="#E8BFBF"/>
<path d="M58.6892 8.48146C55.7601 7.11962 52.1285 8.23287 49.6859 10.3729C47.2432 12.513 45.6976 15.6041 44.2817 18.5764C43.4289 20.1577 42.7754 21.8386 42.3362 23.5807C41.8991 25.3434 42.1382 27.2059 43.0064 28.8011C43.4695 29.5464 44.1028 30.1711 44.8544 30.6239C45.606 31.0768 46.4543 31.3447 47.3297 31.4059C47.8681 31.439 48.3873 31.6186 48.8311 31.9253C49.2749 32.232 49.6265 32.6541 49.848 33.146C50.0698 34.055 50.0698 35.0039 49.848 35.9129C49.6424 36.7946 49.6424 37.7117 49.848 38.5934C50.1426 39.2867 50.6261 39.8833 51.2434 40.3152C51.8606 40.747 52.5868 40.9968 53.3391 41.036C54.8443 41.0778 56.344 40.8358 57.7597 40.3227C58.1909 40.1754 58.6536 40.1459 59.1001 40.2371C59.5466 40.3283 59.9607 40.5369 60.2996 40.8415C60.4727 41.0005 60.6188 41.1867 60.7319 41.3927C60.8422 41.5802 61.0023 41.7335 61.1944 41.8357C61.3864 41.9378 61.603 41.9847 61.8201 41.9713C62.0373 41.9579 62.2464 41.8846 62.4245 41.7596C62.6025 41.6346 62.7424 41.4627 62.8288 41.263C64.1366 38.1502 62.2343 33.1892 59.4025 29.3739C57.9002 27.3636 57.9758 27.8716 57.3922 25.4289C56.895 23.3969 57.6408 21.2785 58.5487 19.3978C59.77 16.8795 61.3264 14.4368 60.84 11.4321C60.7485 10.8025 60.5047 10.2047 60.1299 9.6905C59.7551 9.17634 59.2606 8.76134 58.6892 8.48146Z" fill="#263238"/>
<path d="M54.5283 33.3513C55.8632 34.7677 57.706 35.5958 59.6515 35.6535C62.2346 35.7184 62.8939 33.2541 61.6402 31.1464C60.5593 29.255 57.814 26.9528 55.4795 27.904C53.1449 28.8551 52.9071 31.5355 54.5283 33.3513Z" fill="#E8BFBF"/>
<path d="M70.3945 23.1699C70.6971 23.9048 71.2916 24.3048 71.7563 24.1102C72.2211 23.9157 72.34 23.2131 72.0806 22.489C71.8212 21.7648 71.1943 21.4081 70.7187 21.5486C70.2432 21.6891 70.1459 22.4565 70.3945 23.1699Z" fill="#263238"/>
<path d="M78.3386 19.7545C78.6305 20.5003 79.2249 20.8893 79.6897 20.7056C80.1544 20.5219 80.2733 19.8085 80.0139 19.0844C79.7545 18.3602 79.1276 18.0035 78.6629 18.144C78.1981 18.2845 78.0576 19.0519 78.3386 19.7545Z" fill="#263238"/>
<path d="M78.4577 18.2737L79.96 17.0956C79.96 17.0956 79.6358 18.7709 78.4577 18.2737Z" fill="#263238"/>
<path d="M76.2851 21.3433C78.1225 23.1591 79.5276 23.5049 81.4947 24.7371C81.4754 25.2333 81.2984 25.7105 80.9893 26.0993C80.6803 26.488 80.2553 26.7681 79.7762 26.8987L76.2851 21.3433Z" fill="#ED847E"/>
<path d="M78.9333 30.3682C79.2774 30.242 79.61 30.0865 79.9276 29.9035C79.9776 29.876 80.0147 29.83 80.0309 29.7753C80.0471 29.7207 80.0411 29.6618 80.0141 29.6116C79.9828 29.5628 79.9348 29.5271 79.8791 29.5112C79.8234 29.4952 79.7638 29.5002 79.7114 29.5252C78.8846 30.0055 77.9551 30.2815 77.0002 30.3304C76.0452 30.3793 75.0924 30.1995 74.2208 29.8062C74.1677 29.7795 74.1062 29.7748 74.0496 29.793C73.9931 29.8112 73.9459 29.8509 73.9182 29.9035C73.9031 29.9288 73.8934 29.9569 73.8896 29.9862C73.8858 30.0154 73.888 30.0451 73.8961 30.0734C73.9042 30.1018 73.918 30.1282 73.9367 30.151C73.9553 30.1738 73.9785 30.1926 74.0047 30.2061C74.7738 30.5607 75.6061 30.7577 76.4526 30.7856C77.299 30.8134 78.1425 30.6715 78.9333 30.3682Z" fill="#263238"/>
<path d="M70.1355 17.2794C70.1302 17.3785 70.094 17.4735 70.0319 17.5511C69.9699 17.6286 69.8852 17.6848 69.7896 17.7117C67.7144 18.3278 66.7957 20.9542 66.7957 20.9542C66.7765 21.0124 66.7461 21.0662 66.7061 21.1127C66.6662 21.1591 66.6174 21.1972 66.5627 21.2248C66.508 21.2524 66.4484 21.269 66.3873 21.2735C66.3262 21.2781 66.2648 21.2706 66.2067 21.2514C66.1485 21.2323 66.0946 21.2018 66.0482 21.1618C66.0017 21.1219 65.9636 21.0731 65.936 21.0184C65.9084 20.9638 65.8919 20.9042 65.8873 20.8431C65.8827 20.782 65.8903 20.7206 65.9094 20.6624C65.9851 20.5543 66.9903 17.5388 69.5194 16.7822C69.6397 16.7516 69.7671 16.7681 69.8756 16.8283C69.9842 16.8886 70.0655 16.9881 70.103 17.1064C70.1286 17.1603 70.1397 17.2199 70.1355 17.2794Z" fill="#263238"/>
<path d="M79.7007 16.004C79.6202 16.0612 79.5239 16.092 79.4251 16.092C79.3263 16.092 79.23 16.0612 79.1495 16.004C77.4634 14.6421 74.7721 15.3879 74.7613 15.3987C74.7024 15.417 74.6405 15.4233 74.5791 15.4174C74.5178 15.4115 74.4582 15.3934 74.4039 15.3642C74.3495 15.3351 74.3016 15.2954 74.2627 15.2475C74.2239 15.1996 74.195 15.1444 74.1777 15.0853C74.1438 14.9663 74.1575 14.8389 74.2161 14.7299C74.2746 14.6209 74.3732 14.539 74.4911 14.5016C74.6208 14.5016 77.7336 13.6153 79.7332 15.2582C79.8269 15.3381 79.8868 15.4506 79.9009 15.5729C79.9149 15.6953 79.882 15.8185 79.8088 15.9175C79.7782 15.9526 79.7416 15.9818 79.7007 16.004Z" fill="#263238"/>
<path d="M70.5678 21.6675L72.0702 20.5002C72.0702 20.5002 71.7243 22.1755 70.5678 21.6675Z" fill="#263238"/>
<path d="M59.3378 7.06553C58.155 7.16972 57.0113 7.54097 55.9928 8.1513C54.9743 8.76164 54.1077 9.59514 53.4581 10.589C52.5934 11.9293 52.2908 13.9612 53.5661 14.9123C54.2167 15.3093 54.9658 15.5153 55.7278 15.5068C58.9703 15.7986 63.0666 13.2587 63.0666 13.2587C61.8021 7.85453 73.0751 3.72576 78.6306 12.0482C80.2626 14.4908 79.8195 16.2634 82.5324 17.3983C83.8078 17.9279 85.4939 17.7765 86.3153 18.9006C87.6663 20.7488 85.0615 23.8832 86.7152 25.4721C87.8501 26.5529 90.4224 26.1422 90.5845 27.7094C90.6494 28.4443 90.1739 29.5036 90.8764 29.7197C91.2655 29.8386 91.633 29.4819 91.8816 29.1577C92.5569 28.4322 93.053 27.5586 93.3299 26.6069C93.4618 26.1311 93.4326 25.6251 93.2468 25.1676C93.0611 24.7102 92.7293 24.327 92.3031 24.0778C91.6113 23.7644 89.7847 24.0778 89.9036 24.856C89.6237 23.1418 89.533 21.402 89.6334 19.668C89.936 18.2197 91.3195 16.9551 90.898 15.5284C90.4765 14.1017 88.6499 13.3668 87.0827 13.1722C85.5155 12.9777 83.7321 12.7507 82.7594 11.4969C81.7866 10.2432 82.1757 8.08151 81.8298 6.34137C81.5405 5.25381 80.998 4.25012 80.2466 3.41232C79.4953 2.57452 78.5563 1.92639 77.5065 1.52087C71.1837 -1.19201 61.4886 -0.802912 59.3378 7.06553Z" fill="#263238"/>
<path d="M77.1393 35.8588L55.5227 46.7211C52.0858 48.4433 49.4185 51.3901 48.0461 54.981C46.6738 58.572 46.6959 62.5466 48.1082 66.122L58.5058 92.7105C59.9087 96.2826 62.5939 99.2029 66.0361 100.9C69.4783 102.597 73.4298 102.949 77.1177 101.887L100.356 95.1855C102.416 94.5945 104.331 93.5795 105.976 92.2055C107.622 90.8315 108.963 89.1289 109.912 87.2068C110.861 85.2846 111.399 83.1854 111.49 81.0435C111.58 78.9016 111.223 76.7643 110.44 74.7687L98.3884 44.0515C97.6117 42.0535 96.4266 40.2397 94.9088 38.726C93.3909 37.2123 91.5738 36.0322 89.5737 35.261C87.5736 34.4899 85.4345 34.1447 83.2934 34.2477C81.1523 34.3506 79.0562 34.8993 77.1393 35.8588ZM73.5617 81.5131C71.8359 82.1896 69.9483 82.3391 68.1375 81.9427C66.3267 81.5462 64.6742 80.6216 63.3889 79.2858C62.1037 77.9501 61.2435 76.2631 60.9172 74.4384C60.5908 72.6137 60.813 70.7331 61.5556 69.0347C62.2982 67.3363 63.5278 65.8962 65.089 64.8967C66.6501 63.8973 68.4726 63.3832 70.3259 63.4197C72.1793 63.4562 73.9801 64.0415 75.5008 65.1016C77.0214 66.1617 78.1934 67.649 78.8686 69.3753C79.3233 70.5233 79.5467 71.7497 79.5258 72.9843C79.505 74.2188 79.2404 75.437 78.7472 76.569C78.2541 77.7009 77.5421 78.7242 76.6522 79.5801C75.7623 80.436 74.712 81.1076 73.5617 81.5563V81.5131Z" fill="#606C38"/>
<path d="M77.1393 35.8588L55.5227 46.7211C52.0858 48.4433 49.4185 51.3901 48.0461 54.981C46.6738 58.572 46.6959 62.5466 48.1082 66.122L58.5058 92.7105C59.9087 96.2826 62.5939 99.2029 66.0361 100.9C69.4783 102.597 73.4298 102.949 77.1177 101.887L100.356 95.1855C102.416 94.5945 104.331 93.5795 105.976 92.2055C107.622 90.8315 108.963 89.1289 109.912 87.2068C110.861 85.2846 111.399 83.1854 111.49 81.0435C111.58 78.9016 111.223 76.7643 110.44 74.7687L98.3884 44.0515C97.6117 42.0535 96.4266 40.2397 94.9088 38.726C93.3909 37.2123 91.5738 36.0322 89.5737 35.261C87.5736 34.4899 85.4345 34.1447 83.2934 34.2477C81.1523 34.3506 79.0562 34.8993 77.1393 35.8588ZM73.5617 81.5131C71.8359 82.1896 69.9483 82.3391 68.1375 81.9427C66.3267 81.5462 64.6742 80.6216 63.3889 79.2858C62.1037 77.9501 61.2435 76.2631 60.9172 74.4384C60.5908 72.6137 60.813 70.7331 61.5556 69.0347C62.2982 67.3363 63.5278 65.8962 65.089 64.8967C66.6501 63.8973 68.4726 63.3832 70.3259 63.4197C72.1793 63.4562 73.9801 64.0415 75.5008 65.1016C77.0214 66.1617 78.1934 67.649 78.8686 69.3753C79.3233 70.5233 79.5467 71.7497 79.5258 72.9843C79.505 74.2188 79.2404 75.437 78.7472 76.569C78.2541 77.7009 77.5421 78.7242 76.6522 79.5801C75.7623 80.436 74.712 81.1076 73.5617 81.5563V81.5131Z" fill="#606C38"/>
<path opacity="0.1" d="M110.44 74.7687L98.3883 44.0515C97.6116 42.0535 96.4265 40.2397 94.9086 38.726C93.3908 37.2123 91.5737 36.0322 89.5736 35.261C87.5735 34.4899 85.4344 34.1447 83.2933 34.2477C81.1521 34.3506 79.0561 34.8993 77.1392 35.8588L70.8595 39.1013L66.6443 41.263L55.5334 46.8508C52.1251 48.569 49.4775 51.4932 48.1051 55.0548C46.7328 58.6164 46.7339 62.5611 48.1081 66.122L58.5057 92.7105C59.9086 96.2826 62.5938 99.2029 66.036 100.9C69.4782 102.597 73.4297 102.949 77.1176 101.887L100.366 95.1855C102.206 94.6551 103.93 93.7824 105.446 92.6132C106.586 91.7549 107.594 90.7355 108.44 89.5869C110.009 87.4923 111.016 85.0313 111.366 82.4377C111.716 79.8442 111.397 77.2042 110.44 74.7687ZM73.5616 81.5347C71.8366 82.2084 69.9507 82.3559 68.1419 81.9585C66.3332 81.5612 64.6827 80.6368 63.3989 79.3022C62.1151 77.9675 61.2556 76.2824 60.9288 74.4595C60.602 72.6367 60.8226 70.7579 61.5629 69.0604C62.3031 67.3629 63.5297 65.9228 65.0878 64.9218C66.6459 63.9209 68.4656 63.4041 70.3172 63.4366C72.1688 63.4692 73.9692 64.0496 75.4912 65.1046C77.0132 66.1597 78.1884 67.642 78.8685 69.3645C79.3248 70.5131 79.5495 71.7405 79.5295 72.9763C79.5095 74.212 79.2453 75.4315 78.7521 76.5647C78.2588 77.6979 77.5462 78.7223 76.6554 79.579C75.7646 80.4356 74.7132 81.1076 73.5616 81.5563V81.5347Z" fill="white"/>
<path d="M77.3551 37.934L57.0895 48.1154C53.8745 49.7296 51.3785 52.4866 50.0909 55.8457C48.8032 59.2048 48.8168 62.9237 50.129 66.2733L59.9105 91.1973C61.2179 94.5556 63.7329 97.3041 66.9623 98.9038C70.1916 100.503 73.9021 100.839 77.3659 99.8439L99.1554 93.5535C101.084 92.9972 102.876 92.0445 104.416 90.7562C105.956 89.4679 107.21 87.8725 108.098 86.0719C108.986 84.2714 109.489 82.3053 109.574 80.2994C109.658 78.2935 109.324 76.292 108.591 74.4228L97.2964 45.5863C96.5643 43.7141 95.4497 42.0153 94.0237 40.5984C92.5978 39.1815 90.892 38.0776 89.0152 37.3574C87.1384 36.6372 85.1321 36.3165 83.1243 36.4158C81.1166 36.5151 79.1516 37.0322 77.3551 37.934ZM61.4128 76.2494C60.7372 74.5239 60.5884 72.6368 60.9851 70.8266C61.3819 69.0165 62.3064 67.3647 63.6418 66.0799C64.9772 64.7952 66.6635 63.9352 68.4876 63.6087C70.3117 63.2822 72.1917 63.5039 73.8898 64.2457C75.5879 64.9875 77.028 66.2161 78.028 67.7763C79.0279 69.3364 79.5429 71.158 79.5077 73.0107C79.4726 74.8635 78.8889 76.6642 77.8305 78.1852C76.772 79.7063 75.2864 80.8794 73.5613 81.5563C72.4154 82.0074 71.1917 82.228 69.9603 82.2054C68.729 82.1827 67.5142 81.9173 66.3856 81.4243C65.2571 80.9313 64.2369 80.2204 63.3835 79.3324C62.5302 78.4444 61.8605 77.3967 61.4128 76.2494Z" fill="#606C38"/>
<path opacity="0.1" d="M77.3551 37.934L57.0895 48.1154C53.8745 49.7296 51.3785 52.4866 50.0909 55.8457C48.8032 59.2048 48.8168 62.9237 50.129 66.2733L59.9105 91.1973C61.2179 94.5556 63.7329 97.3041 66.9623 98.9038C70.1916 100.503 73.9021 100.839 77.3659 99.8439L99.1554 93.5535C101.084 92.9972 102.876 92.0445 104.416 90.7562C105.956 89.4679 107.21 87.8725 108.098 86.0719C108.986 84.2714 109.489 82.3053 109.574 80.2994C109.658 78.2935 109.324 76.292 108.591 74.4228L97.2964 45.5863C96.5643 43.7141 95.4497 42.0153 94.0237 40.5984C92.5978 39.1815 90.892 38.0776 89.0152 37.3574C87.1384 36.6372 85.1321 36.3165 83.1243 36.4158C81.1166 36.5151 79.1516 37.0322 77.3551 37.934ZM61.4128 76.2494C60.7372 74.5239 60.5884 72.6368 60.9851 70.8266C61.3819 69.0165 62.3064 67.3647 63.6418 66.0799C64.9772 64.7952 66.6635 63.9352 68.4876 63.6087C70.3117 63.2822 72.1917 63.5039 73.8898 64.2457C75.5879 64.9875 77.028 66.2161 78.028 67.7763C79.0279 69.3364 79.5429 71.158 79.5077 73.0107C79.4726 74.8635 78.8889 76.6642 77.8305 78.1852C76.772 79.7063 75.2864 80.8794 73.5613 81.5563C72.4154 82.0074 71.1917 82.228 69.9603 82.2054C68.729 82.1827 67.5142 81.9173 66.3856 81.4243C65.2571 80.9313 64.2369 80.2204 63.3835 79.3324C62.5302 78.4444 61.8605 77.3967 61.4128 76.2494Z" fill="#606C38"/>
<path d="M178.067 28.293L177.451 29.3739L177.105 30.0008L176.121 31.7841L176.532 36.356C176.554 36.5494 176.532 36.7453 176.467 36.9289C176.4 37.1278 176.291 37.3099 176.148 37.4628C176.004 37.6158 175.829 37.7359 175.635 37.8152L167.096 41.1549C166.901 41.2327 166.691 41.2653 166.481 41.2503C166.271 41.2353 166.068 41.1732 165.886 41.0685C165.765 41.008 165.655 40.9276 165.561 40.8307L160.73 35.9129L153.856 38.6042L154.85 41.1441L147.987 43.8246L149.619 48.0074L144.572 49.9853C144.37 50.0635 144.154 50.0981 143.938 50.0869C143.722 50.0758 143.511 50.019 143.318 49.9204C143.186 49.8577 143.066 49.7737 142.961 49.6719L140.054 46.9374L133.18 49.6178L134.823 53.8006L127.603 56.6324L129.246 60.826C129.31 60.9892 129.342 61.1635 129.339 61.3389C129.336 61.5144 129.298 61.6875 129.228 61.8483C129.157 62.009 129.056 62.1543 128.929 62.2756C128.802 62.397 128.653 62.4921 128.489 62.5553L108.721 70.2941L100.139 48.4073L171.668 20.403L172.749 20.9758L176.37 22.8457C176.848 23.0827 177.272 23.414 177.618 23.8198C177.964 24.2256 178.225 24.6973 178.383 25.2065C178.542 25.7156 178.596 26.2517 178.541 26.7822C178.487 27.3127 178.325 27.8267 178.067 28.293Z" fill="#606C38"/>
<g opacity="0.1">
<path d="M178.067 28.293L177.451 29.3739L177.105 30.0008L176.121 31.7841L176.532 36.356C176.554 36.5494 176.532 36.7453 176.467 36.9289C176.4 37.1278 176.291 37.3099 176.148 37.4628C176.004 37.6158 175.829 37.7359 175.635 37.8152L167.096 41.1549C166.901 41.2327 166.691 41.2653 166.481 41.2503C166.271 41.2353 166.068 41.1732 165.886 41.0685C165.765 41.008 165.655 40.9276 165.561 40.8307L160.73 35.9129L153.856 38.6042L154.85 41.1441L147.987 43.8246L149.619 48.0074L144.572 49.9853C144.37 50.0635 144.154 50.0981 143.938 50.0869C143.722 50.0758 143.511 50.019 143.318 49.9204C143.186 49.8577 143.066 49.7737 142.961 49.6719L140.054 46.9374L133.18 49.6178L134.823 53.8006L127.603 56.6324L129.246 60.826C129.31 60.9892 129.342 61.1635 129.339 61.3389C129.336 61.5144 129.298 61.6875 129.228 61.8483C129.157 62.009 129.056 62.1543 128.929 62.2756C128.802 62.397 128.653 62.4921 128.489 62.5553L108.721 70.2941L100.139 48.4073L171.668 20.403L172.749 20.9758L176.37 22.8457C176.848 23.0827 177.272 23.414 177.618 23.8198C177.964 24.2256 178.225 24.6973 178.383 25.2065C178.542 25.7156 178.596 26.2517 178.541 26.7822C178.487 27.3127 178.325 27.8267 178.067 28.293Z" fill="white"/>
</g>
<path d="M177.786 25.8287L101.306 55.7677L99.08 50.1474L171.993 21.6026L175.624 23.4617C177.008 24.175 177.797 24.8343 177.786 25.8287Z" fill="#606C38"/>
<path opacity="0.1" d="M177.786 25.8287L101.306 55.7677L99.08 50.1474L171.993 21.6026L175.624 23.4617C177.008 24.175 177.797 24.8343 177.786 25.8287Z" fill="black"/>
<path d="M176.316 30.044L175.581 31.7085C175.575 31.737 175.575 31.7665 175.581 31.795L176.003 36.3128C176.03 36.4738 176.03 36.6383 176.003 36.7992C175.996 36.8263 175.982 36.8513 175.963 36.872C175.944 36.8927 175.921 36.9085 175.894 36.9181L166.61 40.5713C166.587 40.5846 166.561 40.5916 166.535 40.5916C166.508 40.5916 166.482 40.5846 166.459 40.5713C166.366 40.5157 166.282 40.4464 166.21 40.3659L160.893 35.0266C160.866 35.008 160.834 34.9981 160.801 34.9981C160.768 34.9981 160.736 35.008 160.709 35.0266L153.143 37.9881C153.102 38.0071 153.069 38.0409 153.051 38.0828C153.033 38.1248 153.031 38.1719 153.046 38.2151L153.943 40.4956C153.952 40.5169 153.956 40.5397 153.956 40.5627C153.956 40.5857 153.951 40.6084 153.942 40.6295C153.933 40.6507 153.92 40.6698 153.903 40.6858C153.887 40.7018 153.867 40.7143 153.846 40.7226L147.415 43.2518C147.393 43.2601 147.374 43.2726 147.357 43.2886C147.341 43.3046 147.327 43.3237 147.318 43.3448C147.309 43.366 147.305 43.3887 147.304 43.4117C147.304 43.4347 147.309 43.4575 147.317 43.4787L148.863 47.4021C148.873 47.4232 148.879 47.4462 148.88 47.4697C148.88 47.4932 148.876 47.5165 148.867 47.5381C148.858 47.5597 148.844 47.579 148.826 47.5947C148.809 47.6104 148.788 47.6222 148.766 47.6291L144.053 49.4881C144.03 49.5014 144.004 49.5084 143.978 49.5084C143.951 49.5084 143.925 49.5014 143.902 49.4881C143.803 49.432 143.712 49.363 143.632 49.2828L140.173 46.1051C140.147 46.09 140.117 46.082 140.087 46.082C140.056 46.082 140.026 46.09 140 46.1051L132.51 49.0558C132.488 49.0628 132.467 49.0745 132.449 49.0902C132.432 49.1059 132.418 49.1252 132.409 49.1468C132.4 49.1684 132.395 49.1917 132.396 49.2152C132.397 49.2387 132.402 49.2617 132.413 49.2828L133.991 53.3035C134.001 53.3245 134.007 53.3476 134.008 53.371C134.008 53.3945 134.004 53.4178 133.995 53.4394C133.985 53.461 133.971 53.4803 133.954 53.496C133.937 53.5118 133.916 53.5235 133.893 53.5305L105.133 64.8467C105.091 64.8611 105.045 64.859 105.005 64.841C104.965 64.8229 104.933 64.7901 104.916 64.7494L101.955 57.4755C101.94 57.4323 101.942 57.3852 101.96 57.3432C101.978 57.3012 102.011 57.2675 102.052 57.2485L176.997 27.7527C177.029 27.7405 177.065 27.7383 177.098 27.7465C177.132 27.7546 177.162 27.7726 177.186 27.7982C177.209 27.8239 177.224 27.8559 177.229 27.8901C177.234 27.9244 177.228 27.9593 177.213 27.9904L176.316 30.044Z" fill="#606C38"/>
<path opacity="0.1" d="M176.316 30.044L175.581 31.7085C175.575 31.737 175.575 31.7665 175.581 31.795L176.003 36.3128C176.03 36.4738 176.03 36.6383 176.003 36.7992C175.996 36.8263 175.982 36.8513 175.963 36.872C175.944 36.8927 175.921 36.9085 175.894 36.9181L166.61 40.5713C166.587 40.5846 166.561 40.5916 166.535 40.5916C166.508 40.5916 166.482 40.5846 166.459 40.5713C166.366 40.5157 166.282 40.4464 166.21 40.3659L160.893 35.0266C160.866 35.008 160.834 34.9981 160.801 34.9981C160.768 34.9981 160.736 35.008 160.709 35.0266L153.143 37.9881C153.102 38.0071 153.069 38.0409 153.051 38.0828C153.033 38.1248 153.031 38.1719 153.046 38.2151L153.943 40.4956C153.952 40.5169 153.956 40.5397 153.956 40.5627C153.956 40.5857 153.951 40.6084 153.942 40.6295C153.933 40.6507 153.92 40.6698 153.903 40.6858C153.887 40.7018 153.867 40.7143 153.846 40.7226L147.415 43.2518C147.393 43.2601 147.374 43.2726 147.357 43.2886C147.341 43.3046 147.327 43.3237 147.318 43.3448C147.309 43.366 147.305 43.3887 147.304 43.4117C147.304 43.4347 147.309 43.4575 147.317 43.4787L148.863 47.4021C148.873 47.4232 148.879 47.4462 148.88 47.4697C148.88 47.4932 148.876 47.5165 148.867 47.5381C148.858 47.5597 148.844 47.579 148.826 47.5947C148.809 47.6104 148.788 47.6222 148.766 47.6291L144.053 49.4881C144.03 49.5014 144.004 49.5084 143.978 49.5084C143.951 49.5084 143.925 49.5014 143.902 49.4881C143.803 49.432 143.712 49.363 143.632 49.2828L140.173 46.1051C140.147 46.09 140.117 46.082 140.087 46.082C140.056 46.082 140.026 46.09 140 46.1051L132.51 49.0558C132.488 49.0628 132.467 49.0745 132.449 49.0902C132.432 49.1059 132.418 49.1252 132.409 49.1468C132.4 49.1684 132.395 49.1917 132.396 49.2152C132.397 49.2387 132.402 49.2617 132.413 49.2828L133.991 53.3035C134.001 53.3245 134.007 53.3476 134.008 53.371C134.008 53.3945 134.004 53.4178 133.995 53.4394C133.985 53.461 133.971 53.4803 133.954 53.496C133.937 53.5118 133.916 53.5235 133.893 53.5305L105.133 64.8467C105.091 64.8611 105.045 64.859 105.005 64.841C104.965 64.8229 104.933 64.7901 104.916 64.7494L101.955 57.4755C101.94 57.4323 101.942 57.3852 101.96 57.3432C101.978 57.3012 102.011 57.2675 102.052 57.2485L176.997 27.7527C177.029 27.7405 177.065 27.7383 177.098 27.7465C177.132 27.7546 177.162 27.7726 177.186 27.7982C177.209 27.8239 177.224 27.8559 177.229 27.8901C177.234 27.9244 177.228 27.9593 177.213 27.9904L176.316 30.044Z" fill="black"/>
<path opacity="0.3" d="M66.147 61.7987C63.9852 62.6482 62.1237 64.1195 60.7978 66.0266C59.4719 67.9337 58.741 70.191 58.6975 72.5133C58.654 74.8356 59.2999 77.1187 60.5535 79.0741C61.8071 81.0295 63.6121 82.5694 65.7406 83.4993C67.8691 84.4292 70.2254 84.7073 72.5119 84.2985C74.7983 83.8897 76.9123 82.8123 78.5867 81.2025C80.2611 79.5927 81.4207 77.5227 81.9191 75.254C82.4174 72.9854 82.2322 70.62 81.3867 68.4566C80.8267 67.0161 79.9876 65.7005 78.9175 64.5854C77.8473 63.4703 76.5674 62.5777 75.1511 61.959C73.7349 61.3403 72.2103 61.0076 70.665 60.9801C69.1198 60.9525 67.5843 61.2308 66.147 61.7987ZM73.5614 81.5779C71.8356 82.2544 69.9479 82.4039 68.1372 82.0075C66.3264 81.611 64.6738 80.6864 63.3886 79.3507C62.1034 78.0149 61.2432 76.3279 60.9169 74.5032C60.5905 72.6785 60.8127 70.798 61.5553 69.0995C62.2979 67.4011 63.5275 65.9611 65.0887 64.9616C66.6498 63.9621 68.4723 63.4481 70.3256 63.4845C72.179 63.521 73.9798 64.1063 75.5004 65.1664C77.0211 66.2265 78.1931 67.7138 78.8683 69.4402C79.7664 71.751 79.7122 74.3235 78.7175 76.5944C77.7229 78.8653 75.8688 80.6495 73.5614 81.5563V81.5779Z" fill="white"/>
<path opacity="0.1" d="M108.45 89.5761C107.608 90.7245 106.603 91.7439 105.467 92.6024L66.6332 41.1658C66.6332 41.1658 70.0594 39.4472 70.8376 38.9284C70.8437 38.9857 70.8622 39.0411 70.8916 39.0906C72.5561 42.6897 103.079 82.3346 108.45 89.5761Z" fill="white"/>
<path opacity="0.1" d="M102.819 94.2236C102.582 94.3317 91.2653 97.7795 91.2653 97.7795L78.652 81.0807C80.5553 79.1784 81.7479 76.6803 82.0304 74.0042C82.3128 71.328 81.668 68.636 80.2037 66.3783C78.7395 64.1205 76.5445 62.4338 73.9859 61.6002C71.4272 60.7667 68.66 60.8367 66.1468 61.7987C65.625 61.9939 65.1222 62.2363 64.6444 62.5229L53.4903 47.7479C53.4903 47.7479 63.2934 43.0787 64.3742 42.3438C64.666 44.4298 102.819 93.7913 102.819 94.2236Z" fill="white"/>
<path d="M56.5491 13.0966C55.915 13.849 55.4621 14.737 55.2251 15.692C54.9882 16.647 54.9736 17.6437 55.1824 18.6053C55.3912 19.5669 55.8179 20.4677 56.4296 21.2385C57.0413 22.0092 57.8217 22.6293 58.7108 23.051C59.6403 23.4833 60.6563 23.6887 61.5642 24.1318C62.0381 24.3231 62.4565 24.63 62.7812 25.0246C63.106 25.4192 63.3267 25.8889 63.4232 26.3908C63.5313 27.4716 62.699 28.5524 62.7855 29.6333C62.8783 30.1393 63.0751 30.6205 63.3635 31.0466C63.6518 31.4726 64.0255 31.8342 64.4608 32.1084C65.3361 32.6555 66.0753 33.3947 66.6224 34.27C66.7453 34.4923 66.8211 34.7376 66.845 34.9905C66.8689 35.2434 66.8404 35.4985 66.7613 35.7399C66.6821 35.9812 66.5541 36.2037 66.3852 36.3934C66.2162 36.5831 66.01 36.736 65.7794 36.8424C65.6629 37.0485 65.6017 37.2812 65.6017 37.5179C65.6017 37.7547 65.6629 37.9874 65.7794 38.1934C65.9181 38.3339 66.0998 38.424 66.2956 38.4495C66.4915 38.4749 66.6901 38.4343 66.8602 38.3339C67.6287 37.8536 68.2666 37.1908 68.7173 36.4045C69.1679 35.6182 69.4174 34.7328 69.4434 33.8269C69.4332 32.9292 69.1702 32.0526 68.6846 31.2975C68.1991 30.5424 67.5106 29.9394 66.6981 29.5576C66.5952 29.2342 66.5584 28.8933 66.5899 28.5554C66.6215 28.2174 66.7208 27.8893 66.8818 27.5905C67.3682 26.3584 67.8654 25.1154 68.3626 23.8833C68.4424 23.581 68.4557 23.2651 68.4016 22.9572C68.3475 22.6493 68.2272 22.3568 68.0491 22.0999C67.6804 21.7288 67.2336 21.4445 66.7413 21.2676L63.5529 19.9058C62.3532 19.387 58.7756 14.6097 63.0125 13.2155C62.7577 12.6747 62.3584 12.2148 61.8586 11.8868C61.3589 11.5587 60.7782 11.3752 60.1807 11.3564C59.4785 11.3224 58.7789 11.4637 58.1449 11.7675C57.511 12.0713 56.9625 12.528 56.5491 13.0966Z" fill="#263238"/>
<path d="M62.3318 7.95177L62.0076 11.7239C63.0884 9.99454 65.0231 6.63316 64.9582 6.76286C64.126 7.21681 63.164 7.49782 62.3318 7.95177Z" fill="#263238"/>
<path d="M63.7584 10.0162L68.1898 5.91989C67.6131 5.72008 66.9917 5.68711 66.397 5.82477C65.8024 5.96244 65.2587 6.26515 64.8284 6.69809C64.8609 6.60081 64.1691 8.69761 63.7584 10.0162Z" fill="#263238"/>
<path d="M54.7551 112.273C48.9942 119.429 50.9073 124.908 42.9524 137.576C52.9933 145.012 63.9962 146.222 77.6687 145.141C79.2899 142.277 80.1005 139.294 81.7218 136.43C84.0347 139.305 85.8938 141.715 88.2067 144.601C95.3726 143.52 103.89 141.456 109.553 137.803C104.549 132.063 101.436 124.898 98.2368 118.575C96.7345 115.602 97.3614 114.359 93.3731 110.468C80.6734 111.052 68.0817 111.355 55.3927 111.949C55.7386 112.003 54.42 112.252 54.7551 112.273Z" fill="#263238"/>
<path d="M56.3439 111.074L55.5549 114.413C55.436 114.684 55.7494 114.932 56.1709 114.9L91.179 113.354C91.3123 113.37 91.447 113.339 91.5596 113.266C91.6722 113.193 91.7555 113.083 91.7951 112.954L91.9788 109.636C91.9788 109.42 91.687 109.226 91.3195 109.258L56.9383 110.771C56.8216 110.766 56.7056 110.792 56.6015 110.845C56.4974 110.898 56.4087 110.977 56.3439 111.074Z" fill="#606C38"/>
<path d="M56.3439 111.074L55.5549 114.413C55.436 114.684 55.7494 114.932 56.1709 114.9L91.179 113.354C91.3123 113.37 91.447 113.339 91.5596 113.266C91.6722 113.193 91.7555 113.083 91.7951 112.954L91.9788 109.636C91.9788 109.42 91.687 109.226 91.3195 109.258L56.9383 110.771C56.8216 110.766 56.7056 110.792 56.6015 110.845C56.4974 110.898 56.4087 110.977 56.3439 111.074Z" fill="#606C38"/>
<path d="M64.0501 114.911H63.0341C62.8396 114.911 62.6775 114.824 62.6883 114.705L62.9585 110.382C62.9585 110.252 63.1422 110.144 63.3368 110.144L64.3636 110.09C64.5473 110.09 64.7094 110.177 64.6986 110.306L64.4284 114.63C64.4176 114.759 64.2447 114.9 64.0501 114.911Z" fill="#263238"/>
<path d="M89.32 113.819H88.304C88.1095 113.819 87.9473 113.733 87.9582 113.614L88.2284 109.29C88.2284 109.161 88.4121 109.042 88.6067 109.042H89.6226C89.8172 109.042 89.9685 109.128 89.9577 109.247L89.6875 113.57C89.6875 113.679 89.5254 113.808 89.32 113.819Z" fill="#263238"/>
<path d="M68.5683 93.921C68.6331 94.2345 71.346 98.5578 73.486 98.2443C73.7904 98.2023 74.1004 98.2412 74.3849 98.3569C74.6695 98.4726 74.9186 98.6612 75.1073 98.9036C75.9611 99.9845 76.4799 100.655 77.0528 101.39C77.5069 101.97 78.1451 102.378 78.8622 102.547C79.5792 102.716 80.3324 102.635 80.9978 102.319C81.3977 102.135 81.7976 101.93 82.1975 101.714C82.8431 101.376 83.3563 100.831 83.6543 100.167C83.9524 99.502 84.0179 98.7563 83.8404 98.0498C83.4439 96.4561 82.8292 94.9249 82.0138 93.4995C81.7728 92.992 81.3994 92.5588 80.9329 92.2457C78.6864 91.3862 76.3342 90.8336 73.94 90.6029C72.1026 90.6785 70.3084 93.1428 68.5683 93.921Z" fill="#E8BFBF"/>
<path d="M74.048 90.4731C74.048 90.4731 45.3195 81.7724 39.1156 87.5657C35.4732 90.9703 37.1917 94.1912 39.2345 96.2123C40.7476 97.7579 44.0442 97.3796 46.2058 97.2931L68.8384 95.0666L74.048 90.4731Z" fill="#E8BFBF"/>
<path d="M57.533 86.4957C57.4039 85.7225 57.0843 84.9936 56.6032 84.3747C56.122 83.7558 55.4944 83.2664 54.7769 82.9506C53.338 82.341 51.8074 81.9757 50.2482 81.8697L39.4399 80.4971C37.4976 82.8927 36.4064 85.8658 36.3379 88.9492C36.4145 91.931 37.5048 94.7978 39.4291 97.077C41.1584 93.7372 43.439 90.3002 46.8112 88.6357C50.1834 86.9713 53.8366 85.8256 57.533 86.4957Z" fill="#263238"/>
<path opacity="0.1" d="M50.1293 34.0214C50.1293 33.9566 50.1293 33.9242 50.1293 33.9133C50.3563 33.8485 50.3238 33.8917 50.1293 34.0214Z" fill="white"/>
</svg>
