<svg width="45" height="45" viewBox="0 0 45 45" fill="none" xmlns="http://www.w3.org/2000/svg">
<path d="M31.125 10.9125C29.8433 9.44929 29.137 7.57019 29.1375 5.625H23.3438V28.875C23.2991 30.1332 22.7679 31.3249 21.8621 32.1993C20.9562 33.0736 19.7465 33.5623 18.4875 33.5625C15.825 33.5625 13.6125 31.3875 13.6125 28.6875C13.6125 25.4625 16.725 23.0437 19.9313 24.0375V18.1125C13.4625 17.25 7.8 22.275 7.8 28.6875C7.8 34.9312 12.975 39.375 18.4688 39.375C24.3563 39.375 29.1375 34.5938 29.1375 28.6875V16.8938C31.4869 18.581 34.3076 19.4862 37.2 19.4813V13.6875C37.2 13.6875 33.675 13.8563 31.125 10.9125Z" fill="#606C38"/>
</svg>
