<svg width="7" height="25" viewBox="0 0 7 25" fill="none" xmlns="http://www.w3.org/2000/svg">
<path d="M6.12505 24.9979C6.06176 24.9939 5.99994 24.977 5.94337 24.9483C5.88681 24.9196 5.83669 24.8797 5.79608 24.831C5.75548 24.7823 5.72524 24.7258 5.70722 24.6649C5.6892 24.6041 5.68378 24.5403 5.69128 24.4773C6.85165 11.4639 0.138877 0.825385 0.0629653 0.727784C0.00143787 0.618712 -0.0158063 0.490167 0.014804 0.368737C0.0454143 0.247307 0.121534 0.142289 0.227414 0.0754175C0.333293 0.00854623 0.46083 -0.0150792 0.583631 0.00945936C0.706432 0.033998 0.815102 0.104809 0.887152 0.207234C0.952219 0.31568 7.84934 11.247 6.6456 24.564C6.64015 24.6268 6.62234 24.6879 6.59317 24.7437C6.56401 24.7996 6.52409 24.8491 6.4757 24.8894C6.4273 24.9297 6.3714 24.9601 6.31122 24.9787C6.25104 24.9973 6.18777 25.0038 6.12505 24.9979Z" fill="#263238"/>
</svg>
