<svg width="263" height="257" viewBox="0 0 263 257" fill="none" xmlns="http://www.w3.org/2000/svg">
<path fill-rule="evenodd" clip-rule="evenodd" d="M37.9596 37.0937C21.9166 52.7922 21.9166 78.021 21.9166 128.5C21.9166 178.979 21.9166 204.219 37.9596 219.896C54.0245 235.583 79.8424 235.583 131.5 235.583C183.158 235.583 208.986 235.583 225.029 219.896C241.083 204.229 241.083 178.979 241.083 128.5C241.083 78.021 241.083 52.7815 225.029 37.0937C208.997 21.4167 183.158 21.4167 131.5 21.4167C79.8424 21.4167 54.0136 21.4167 37.9596 37.0937ZM115.545 80.4946C116.289 79.7303 116.871 78.8303 117.259 77.846C117.647 76.8617 117.833 75.8123 117.806 74.7578C117.779 73.7032 117.54 72.6642 117.102 71.7001C116.664 70.7359 116.036 69.8655 115.254 69.1384C114.472 68.4114 113.551 67.842 112.544 67.4628C111.536 67.0836 110.463 66.902 109.383 66.9284C108.304 66.9547 107.241 67.1885 106.254 67.6164C105.268 68.0443 104.377 68.6579 103.633 69.4222L78.2753 95.4435L71.7003 88.6972C70.9644 87.9025 70.0731 87.2597 69.079 86.8068C68.0849 86.3539 67.008 86.1 65.9119 86.0602C64.8158 86.0203 63.7227 86.1952 62.6968 86.5746C61.671 86.9541 60.7333 87.5303 59.9389 88.2694C59.1445 89.0085 58.5096 89.8954 58.0715 90.8781C57.6334 91.8607 57.401 92.919 57.388 93.9908C57.375 95.0625 57.5817 96.126 57.9959 97.1185C58.4101 98.1109 59.0233 99.0124 59.7996 99.7696L72.325 112.62C73.0925 113.407 74.0157 114.034 75.0386 114.462C76.0614 114.89 77.1626 115.111 78.2753 115.111C79.3881 115.111 80.4893 114.89 81.5121 114.462C82.5349 114.034 83.4581 113.407 84.2257 112.62L115.545 80.4946ZM142.458 88.3438C140.279 88.3438 138.188 89.19 136.647 90.6961C135.105 92.2023 134.24 94.2451 134.24 96.3751C134.24 98.5051 135.105 100.548 136.647 102.054C138.188 103.56 140.279 104.406 142.458 104.406H197.25C199.43 104.406 201.52 103.56 203.062 102.054C204.603 100.548 205.469 98.5051 205.469 96.3751C205.469 94.2451 204.603 92.2023 203.062 90.6961C201.52 89.19 199.43 88.3438 197.25 88.3438H142.458ZM115.534 155.453C116.31 154.696 116.923 153.794 117.337 152.802C117.752 151.809 117.958 150.746 117.945 149.674C117.932 148.602 117.7 147.544 117.262 146.561C116.824 145.579 116.189 144.692 115.394 143.953C114.6 143.214 113.662 142.637 112.636 142.258C111.611 141.879 110.517 141.704 109.421 141.744C108.325 141.783 107.248 142.037 106.254 142.49C105.26 142.943 104.369 143.586 103.633 144.381L78.2753 170.402L71.7003 163.656C70.9644 162.861 70.0731 162.218 69.079 161.765C68.0849 161.312 67.008 161.058 65.9119 161.019C64.8158 160.979 63.7227 161.154 62.6968 161.533C61.671 161.912 60.7333 162.489 59.9389 163.228C59.1445 163.967 58.5096 164.854 58.0715 165.836C57.6334 166.819 57.401 167.877 57.388 168.949C57.375 170.021 57.5817 171.084 57.9959 172.077C58.4101 173.069 59.0233 173.971 59.7996 174.728L72.325 187.578C73.0925 188.365 74.0157 188.992 75.0386 189.42C76.0614 189.848 77.1626 190.069 78.2753 190.069C79.3881 190.069 80.4893 189.848 81.5121 189.42C82.5349 188.992 83.4581 188.365 84.2257 187.578L115.534 155.453ZM142.458 163.302C140.279 163.302 138.188 164.148 136.647 165.654C135.105 167.161 134.24 169.203 134.24 171.333C134.24 173.463 135.105 175.506 136.647 177.012C138.188 178.519 140.279 179.365 142.458 179.365H197.25C199.43 179.365 201.52 178.519 203.062 177.012C204.603 175.506 205.469 173.463 205.469 171.333C205.469 169.203 204.603 167.161 203.062 165.654C201.52 164.148 199.43 163.302 197.25 163.302H142.458Z" fill="#606C38"/>
</svg>
