<svg width="22" height="91" viewBox="0 0 22 91" fill="none" xmlns="http://www.w3.org/2000/svg">
<path d="M0 90.0376C4.98401 78.7477 8.28128 66.7864 9.78605 54.5375C10.7593 46.1355 9.01831 34.7707 6.42311 19.6105C5.41535 14.0661 4.91227 8.44177 4.92006 2.80656C4.92594 2.17931 5.13981 1.57174 5.52815 1.07913C5.9165 0.58652 6.45735 0.236723 7.0659 0.084586C7.67444 -0.0675508 8.31628 -0.0134084 8.89075 0.238496C9.46522 0.490401 9.93985 0.92582 10.2402 1.47651C11.6784 4.03927 15.8307 12.7873 16.8904 18.2696C19.7667 33.2353 23.0215 40.7181 20.5345 54.9268C18.0474 69.1355 8.82367 91 8.82367 91L0 90.0376Z" fill="#455A64"/>
</svg>
