<svg width="16" height="9" viewBox="0 0 16 9" fill="none" xmlns="http://www.w3.org/2000/svg">
<path d="M4.98143 8.99553C7.44538 8.73387 16.0038 5.7793 15.7313 3.30443C15.4587 0.829572 6.47506 -0.206164 4.01111 0.0336909C3.42409 0.0974031 2.85538 0.276115 2.33744 0.559617C1.81949 0.843119 1.36246 1.22587 0.992429 1.686C0.622401 2.14613 0.346626 2.67464 0.180849 3.24135C0.015072 3.80806 -0.0374602 4.40187 0.026252 4.98888C0.0899641 5.57589 0.268668 6.1446 0.55217 6.66255C0.835671 7.18049 1.21842 7.63753 1.67855 8.00756C2.13868 8.37758 2.66719 8.65334 3.23389 8.81912C3.8006 8.9849 4.39441 9.03745 4.98143 8.97373V8.99553Z" fill="#606C38"/>
</svg>
