<svg width="11" height="90" viewBox="0 0 11 90" fill="none" xmlns="http://www.w3.org/2000/svg">
<path d="M3.19133 0C3.34628 0.272211 3.47048 0.560813 3.56165 0.860471L4.50925 3.3874C4.93404 4.4766 5.41328 5.82718 5.87074 7.4283C6.3282 9.02941 6.95994 10.8157 7.40651 12.8743L8.19072 16.0656C8.45212 17.1548 8.63729 18.3529 8.87692 19.5619C9.39973 21.969 9.71559 24.5831 10.0968 27.3278C10.7775 33.2999 11.0323 39.313 10.8592 45.3213C10.6031 51.3311 9.91881 57.3151 8.81156 63.2276C8.23429 65.9288 7.72237 68.5211 7.04707 70.8519C6.70942 72.0392 6.43712 73.2046 6.09947 74.2938L5.08652 77.4742C4.48747 79.4783 3.74682 81.2319 3.16954 82.7895C2.59227 84.347 2.08036 85.6649 1.52487 86.7214L0.435678 89.1721C0.32105 89.4631 0.174955 89.7407 0 89.9999C0.0736734 89.6969 0.175783 89.4015 0.304972 89.1177C0.566378 88.4859 0.904028 87.6582 1.31792 86.6234C1.73181 85.5887 2.30909 84.2272 2.84279 82.6479C3.3765 81.0685 4.09536 79.3803 4.67263 77.3217C4.97761 76.3305 5.29347 75.2849 5.63112 74.1957C5.96877 73.1065 6.21929 71.952 6.53515 70.7648C7.18867 68.4012 7.62434 65.8308 8.23429 63.1404C9.29598 57.2559 9.95827 51.3062 10.2166 45.3322C10.3883 39.3581 10.1554 33.3793 9.51954 27.4367C9.14921 24.7029 8.85513 22.0997 8.36499 19.6926C8.13626 18.4945 7.96199 17.3182 7.71148 16.2072C7.46097 15.0962 7.21045 14.0288 6.97083 13.0159C6.54604 10.9791 5.96877 9.1819 5.54398 7.5699C5.1192 5.95789 4.67264 4.60727 4.29142 3.4963L3.47452 0.936722C3.34939 0.634619 3.25453 0.32083 3.19133 0Z" fill="#263238"/>
</svg>
