<svg width="47" height="124" viewBox="0 0 47 124" fill="none" xmlns="http://www.w3.org/2000/svg">
<path d="M46.1876 124C46.1517 123.891 46.1299 123.779 46.1227 123.665C46.1227 123.394 46.0361 123.07 45.9712 122.669C45.8414 121.793 45.7224 120.505 45.4519 118.828C44.9866 115.496 44.1644 110.703 42.8011 104.85C41.1788 98.0071 39.1998 91.2538 36.8722 84.6178C34.2647 77.1092 31.0081 68.9947 27.3187 60.5989C19.8642 43.8398 12.4206 28.9633 7.51941 17.9709C5.05261 12.4747 3.19169 8.00629 1.87174 4.87951C1.2334 3.32154 0.789811 2.09897 0.454413 1.2767C0.302942 0.898027 0.194748 0.58424 0.0973739 0.335396C0.0490324 0.228832 0.0162398 0.115883 0 0C0.0658294 0.0942418 0.120305 0.195924 0.162291 0.302939L0.573422 1.22259C0.952097 2.08813 1.4606 3.27826 2.12058 4.78215C3.45136 7.86565 5.43129 12.3557 7.95219 17.7653C12.9507 28.682 20.4701 43.5369 27.9354 60.3284C31.6248 68.735 34.8814 76.8711 37.4564 84.4122C39.7663 91.0801 41.706 97.8705 43.2664 104.752C44.3186 109.396 45.1347 114.091 45.7115 118.818C45.9387 120.484 46.0145 121.793 46.1118 122.669L46.1876 123.675C46.2001 123.783 46.2001 123.892 46.1876 124Z" fill="#263238"/>
</svg>
