<svg width="467" height="320" viewBox="0 0 467 320" fill="none" xmlns="http://www.w3.org/2000/svg">
<path d="M408.469 0.291853H0.183814V319.652H408.469V0.291853Z" fill="#FAFAFA"/>
<path d="M408.469 319.652C408.469 317.716 408.372 193.022 408.232 0.291946L408.469 0.51902L0.21626 0.573084L0.497394 0.291946C0.497394 115.45 0.497394 224.347 0.497394 319.652L0.248697 319.403L408.534 319.652L0.248697 319.901H0V319.641C0 224.336 0 115.439 0 0.281134V0H0.313576H408.567H408.794V0.237882C408.534 193.022 408.469 317.716 408.469 319.652Z" fill="#E0E0E0"/>
<path d="M59.7091 78.4803H35.6287C35.2307 78.4789 34.8369 78.3987 34.47 78.2445C34.1031 78.0902 33.7704 77.8648 33.4909 77.5814C33.2115 77.298 32.991 76.962 32.8419 76.593C32.6929 76.2239 32.6184 75.829 32.6227 75.431V42.1488C32.6227 41.3506 32.939 40.5849 33.5025 40.0194C34.0659 39.454 34.8305 39.1349 35.6287 39.132H50.8966L62.7151 51.3182V75.431C62.7194 75.829 62.6449 76.2239 62.4958 76.593C62.3468 76.962 62.1263 77.298 61.8468 77.5814C61.5674 77.8648 61.2347 78.0902 60.8678 78.2445C60.5009 78.3987 60.1071 78.4789 59.7091 78.4803Z" fill="#EBEBEB"/>
<path d="M50.8963 39.132V48.5176C50.8963 48.8854 50.9688 49.2496 51.1095 49.5894C51.2502 49.9291 51.4565 50.2379 51.7166 50.4979C51.9766 50.758 52.2854 50.9643 52.6252 51.105C52.9649 51.2457 53.3291 51.3182 53.6969 51.3182H62.7149L50.8963 39.132Z" fill="#F5F5F5"/>
<path d="M51.0264 49.3395C51.031 50.0483 51.2781 50.7342 51.7266 51.283C52.1751 51.8319 52.798 52.2106 53.4917 52.3563C53.5865 52.3882 53.6843 52.41 53.7837 52.4212C54.9623 52.6375 62.7151 54.0107 62.7151 53.8377V51.3183H53.6972C53.6972 51.3183 51.4481 51.2426 51.0264 49.3395Z" fill="#E0E0E0"/>
<path d="M59.709 78.4802C59.709 78.4802 59.882 78.4802 60.228 78.4154C60.7283 78.3198 61.1967 78.1005 61.5904 77.7774C61.9116 77.5123 62.1737 77.183 62.3599 76.8105C62.5461 76.4381 62.6523 76.0308 62.6717 75.6148C62.6717 74.6416 62.6717 73.5171 62.6717 72.252C62.6717 67.2132 62.6717 59.9901 62.6717 51.2749L50.8207 39.2077H50.8964H36.3098C35.9246 39.1803 35.538 39.1803 35.1528 39.2077C34.7806 39.286 34.4275 39.4372 34.1139 39.6525C33.8003 39.8677 33.5324 40.1428 33.3254 40.462C32.9988 40.8807 32.7965 41.3827 32.7415 41.9109C32.7415 42.4407 32.7415 42.9922 32.7415 43.5436V46.7875C32.7415 48.9501 32.7415 51.0586 32.7415 53.1455V65.1911C32.7415 67.105 32.7415 68.9648 32.7415 70.7814V74.7714C32.7031 75.1922 32.7031 75.6157 32.7415 76.0365C32.8602 76.6339 33.1627 77.1792 33.6067 77.596C34.0507 78.0129 34.614 78.2805 35.2177 78.3613C35.6101 78.3884 36.0039 78.3884 36.3963 78.3613C35.9965 78.3827 35.5958 78.3827 35.1961 78.3613C34.7773 78.3076 34.3752 78.1637 34.0174 77.9396C33.6467 77.7189 33.3263 77.423 33.0768 77.0711C32.8272 76.7191 32.6541 76.3188 32.5685 75.8959C32.5251 75.4645 32.5251 75.0298 32.5685 74.5984V65.1911C32.5685 61.3634 32.5685 57.3409 32.5685 53.178V43.5761C32.5685 43.0246 32.5685 42.4948 32.5685 41.9217C32.606 41.3485 32.8047 40.7975 33.1416 40.3322C33.6262 39.6664 34.3518 39.2163 35.1636 39.0779C35.5592 39.0405 35.9574 39.0405 36.353 39.0779H50.9397L62.7798 51.2533C62.7798 59.9685 62.7798 67.1915 62.7798 72.2304C62.7798 73.4955 62.7798 74.6092 62.7798 75.5932C62.7566 76.0083 62.6486 76.4143 62.4627 76.7862C62.2768 77.1581 62.0167 77.4881 61.6985 77.7558C61.2922 78.0764 60.8131 78.2918 60.3037 78.3829H59.9144L59.709 78.4802Z" fill="#E0E0E0"/>
<path d="M62.7149 51.3183H62.4878H61.8174H59.3737H55.7513H53.5888C53.1907 51.3048 52.7995 51.2107 52.4389 51.0416C52.0783 50.8724 51.7559 50.6318 51.4911 50.3343C51.2248 50.0174 51.0261 49.6494 50.9072 49.253C50.7958 48.8818 50.7518 48.4936 50.7774 48.1068V45.9442C50.7774 44.5926 50.7774 43.3599 50.7774 42.3219C50.7774 41.2839 50.7774 40.4837 50.7774 39.8782C50.7774 39.6079 50.7774 39.3916 50.7774 39.2186C50.7774 39.0456 50.7774 38.9807 50.7774 38.9807C50.7928 39.0593 50.7928 39.1401 50.7774 39.2186C50.7774 39.3916 50.7774 39.6079 50.7774 39.8782C50.7774 40.4837 50.7774 41.3163 50.7774 42.3219C50.7774 43.3275 50.7774 44.5926 50.7774 45.9442C50.7774 46.6255 50.7774 47.3391 50.7774 48.1068C50.7457 48.4767 50.7887 48.8492 50.9038 49.2022C51.019 49.5551 51.204 49.8813 51.4478 50.1613C51.6928 50.4386 51.9917 50.6631 52.3264 50.8212C52.661 50.9792 53.0243 51.0674 53.3941 51.0804H55.5567H59.1791H61.6228H62.2932C62.6392 51.2966 62.7149 51.3074 62.7149 51.3183Z" fill="#E0E0E0"/>
<path d="M50.4422 47.5012C50.4422 47.5661 47.5984 47.6094 44.095 47.6094C40.5916 47.6094 37.7478 47.6094 37.7478 47.5012C37.7478 47.3931 40.5808 47.3931 44.095 47.3931C47.6092 47.3931 50.4422 47.4472 50.4422 47.5012Z" fill="#E0E0E0"/>
<path d="M56.465 52.1831C56.465 52.1831 52.2804 52.2912 47.1118 52.2912C41.9432 52.2912 37.7478 52.2912 37.7478 52.1831C37.7478 52.075 41.9324 52.075 47.1118 52.075C52.2912 52.075 56.465 52.1182 56.465 52.1831Z" fill="#E0E0E0"/>
<path d="M56.465 56.8545C56.465 56.9193 52.2804 56.9626 47.1118 56.9626C41.9432 56.9626 37.7478 56.9626 37.7478 56.8545C37.7478 56.7463 41.9324 56.7572 47.1118 56.7572C52.2912 56.7572 56.465 56.8004 56.465 56.8545Z" fill="#E0E0E0"/>
<path d="M56.465 61.5363C56.465 61.5363 52.2804 61.6445 47.1118 61.6445C41.9432 61.6445 37.7478 61.6445 37.7478 61.5363C37.7478 61.4282 41.9324 61.4282 47.1118 61.4282C52.2912 61.4282 56.465 61.4823 56.465 61.5363Z" fill="#E0E0E0"/>
<path d="M56.465 66.2185C56.465 66.2185 52.2804 66.3158 47.1118 66.3158C41.9432 66.3158 37.7478 66.3158 37.7478 66.2185C37.7478 66.1211 41.9324 66.1103 47.1118 66.1103C52.2912 66.1103 56.465 66.1536 56.465 66.2185Z" fill="#E0E0E0"/>
<path d="M56.465 71.9817C56.465 72.0466 52.2804 72.0898 47.1118 72.0898C41.9432 72.0898 37.7478 72.0898 37.7478 71.9817C37.7478 71.8736 41.9324 71.8736 47.1118 71.8736C52.2912 71.8736 56.465 71.9276 56.465 71.9817Z" fill="#E0E0E0"/>
<path d="M62.5747 88.4606C62.5747 88.6228 55.8923 88.7417 47.6637 88.7417C39.435 88.7417 32.7418 88.6228 32.7418 88.4606C32.7418 88.2984 39.4242 88.1794 47.6637 88.1794C55.9031 88.1794 62.5747 88.3092 62.5747 88.4606Z" fill="#E0E0E0"/>
<path d="M57.2546 92.364C54.066 92.6489 50.8633 92.7428 47.6635 92.6451C44.4602 92.743 41.2538 92.6491 38.0616 92.364C41.2542 92.0854 44.4602 91.9915 47.6635 92.0828C50.8633 91.9917 54.0657 92.0855 57.2546 92.364Z" fill="#E0E0E0"/>
<path d="M59.7089 163.654H35.6285C34.8303 163.651 34.0657 163.332 33.5023 162.766C32.9389 162.201 32.6225 161.435 32.6225 160.637V127.333C32.6225 126.535 32.9389 125.769 33.5023 125.204C34.0657 124.638 34.8303 124.319 35.6285 124.316H50.8964L62.7149 136.503V160.637C62.7149 161.435 62.3986 162.201 61.8351 162.766C61.2717 163.332 60.5072 163.651 59.7089 163.654Z" fill="#EBEBEB"/>
<path d="M50.8963 124.305V133.691C50.8963 134.434 51.1914 135.146 51.7166 135.671C52.2418 136.197 52.9541 136.492 53.6969 136.492H62.7149L50.8963 124.305Z" fill="#F5F5F5"/>
<path d="M51.0264 134.513C51.031 135.222 51.2781 135.908 51.7266 136.456C52.1751 137.005 52.798 137.384 53.4917 137.53L53.7837 137.595C54.9623 137.811 62.7151 139.184 62.7151 139.011V136.492H53.6972C53.6972 136.492 51.4481 136.416 51.0264 134.513Z" fill="#E0E0E0"/>
<path d="M59.7092 163.654C59.7092 163.654 59.8822 163.654 60.2282 163.589C60.7285 163.493 61.1969 163.274 61.5906 162.951C61.9118 162.686 62.1739 162.356 62.3601 161.984C62.5463 161.611 62.6525 161.204 62.6719 160.788C62.6719 159.815 62.6719 158.691 62.6719 157.425C62.6719 152.387 62.6719 145.164 62.6719 136.448V136.502L50.8209 124.381H50.8966H36.31C35.9248 124.354 35.5382 124.354 35.153 124.381C34.7808 124.459 34.4277 124.611 34.1141 124.826C33.8005 125.041 33.5326 125.316 33.3256 125.635C33.0127 126.069 32.829 126.583 32.7958 127.117C32.7958 127.647 32.7958 128.198 32.7958 128.749V131.993C32.7958 134.156 32.7958 136.264 32.7958 138.351V150.365C32.7958 152.278 32.7958 154.138 32.7958 155.955V159.945C32.7573 160.366 32.7573 160.789 32.7958 161.21C32.9145 161.807 33.217 162.353 33.661 162.769C34.105 163.186 34.6683 163.454 35.2719 163.535C35.6643 163.562 36.0582 163.562 36.4506 163.535C36.0508 163.556 35.6501 163.556 35.2503 163.535C34.8316 163.481 34.4295 163.337 34.0717 163.113C33.701 162.892 33.3806 162.596 33.131 162.244C32.8815 161.893 32.7084 161.492 32.6228 161.069C32.5794 160.638 32.5794 160.203 32.6228 159.772V150.365C32.6228 146.537 32.6228 142.514 32.6228 138.351V128.749C32.6228 128.198 32.6228 127.668 32.6228 127.095C32.6603 126.522 32.8589 125.971 33.1959 125.506C33.6805 124.84 34.4061 124.39 35.2179 124.251C35.6135 124.214 36.0117 124.214 36.4073 124.251H50.9399L62.7476 136.437C62.7476 145.153 62.7476 152.376 62.7476 157.415C62.7476 158.68 62.7476 159.793 62.7476 160.777C62.7243 161.193 62.6164 161.599 62.4305 161.97C62.2445 162.342 61.9845 162.672 61.6663 162.94C61.26 163.261 60.7809 163.476 60.2714 163.567H59.8822L59.7092 163.654Z" fill="#E0E0E0"/>
<path d="M62.7149 136.492H62.4878H61.8174H59.3737H55.7513H53.5888C53.1907 136.478 52.7995 136.384 52.4389 136.215C52.0783 136.046 51.7559 135.805 51.4911 135.508C51.2248 135.191 51.0261 134.823 50.9072 134.426C50.7958 134.055 50.7518 133.667 50.7774 133.28V131.118C50.7774 129.766 50.7774 128.533 50.7774 127.495C50.7774 126.457 50.7774 125.657 50.7774 125.052C50.7774 124.781 50.7774 124.565 50.7774 124.392C50.7774 124.219 50.7774 124.154 50.7774 124.154C50.7928 124.233 50.7928 124.313 50.7774 124.392C50.7774 124.565 50.7774 124.781 50.7774 125.052C50.7774 125.657 50.7774 126.49 50.7774 127.495C50.7774 128.501 50.7774 129.766 50.7774 131.118C50.7774 131.799 50.7774 132.513 50.7774 133.28C50.7457 133.65 50.7887 134.023 50.9038 134.376C51.019 134.729 51.204 135.055 51.4478 135.335C51.6928 135.612 51.9917 135.837 52.3264 135.995C52.661 136.153 53.0243 136.241 53.3941 136.254H55.5567H59.1791H61.6228H62.2932C62.6392 136.47 62.7149 136.481 62.7149 136.492Z" fill="#E0E0E0"/>
<path d="M50.4422 132.675C50.4422 132.74 47.5984 132.783 44.095 132.783C40.5916 132.783 37.7478 132.783 37.7478 132.675C37.7478 132.567 40.5808 132.567 44.095 132.567C47.6092 132.567 50.4422 132.621 50.4422 132.675Z" fill="#E0E0E0"/>
<path d="M56.465 137.357C56.465 137.357 52.2804 137.465 47.1118 137.465C41.9432 137.465 37.7478 137.411 37.7478 137.357C37.7478 137.303 41.9324 137.249 47.1118 137.249C52.2912 137.249 56.465 137.292 56.465 137.357Z" fill="#E0E0E0"/>
<path d="M56.465 142.028C56.465 142.093 52.2804 142.136 47.1118 142.136C41.9432 142.136 37.7478 142.136 37.7478 142.028C37.7478 141.92 41.9324 141.931 47.1118 141.931C52.2912 141.931 56.465 141.974 56.465 142.028Z" fill="#E0E0E0"/>
<path d="M56.465 146.71C56.465 146.764 52.2804 146.818 47.1118 146.818C41.9432 146.818 37.7478 146.764 37.7478 146.71C37.7478 146.656 41.9324 146.602 47.1118 146.602C52.2912 146.602 56.465 146.656 56.465 146.71Z" fill="#E0E0E0"/>
<path d="M56.465 151.392C56.465 151.446 52.2804 151.489 47.1118 151.489C41.9432 151.489 37.7478 151.489 37.7478 151.392C37.7478 151.295 41.9324 151.284 47.1118 151.284C52.2912 151.284 56.465 151.327 56.465 151.392Z" fill="#E0E0E0"/>
<path d="M56.465 157.155C56.465 157.22 52.2804 157.263 47.1118 157.263C41.9432 157.263 37.7478 157.263 37.7478 157.155C37.7478 157.047 41.9324 157.047 47.1118 157.047C52.2912 157.047 56.465 157.101 56.465 157.155Z" fill="#E0E0E0"/>
<path d="M62.5747 173.634C62.5747 173.796 55.8923 173.915 47.6637 173.915C39.435 173.915 32.7418 173.796 32.7418 173.634C32.7418 173.472 39.4242 173.353 47.6637 173.353C55.9031 173.353 62.5747 173.483 62.5747 173.634Z" fill="#E0E0E0"/>
<path d="M57.2546 177.538C54.066 177.823 50.8633 177.916 47.6635 177.819C44.4602 177.917 41.2538 177.823 38.0616 177.538C41.2542 177.259 44.4602 177.165 47.6635 177.257C50.8633 177.165 54.0657 177.259 57.2546 177.538Z" fill="#E0E0E0"/>
<path d="M58.0546 268.139H33.9742C33.176 268.136 32.4114 267.817 31.848 267.252C31.2845 266.686 30.9682 265.92 30.9682 265.122V231.808C30.9682 231.009 31.2845 230.244 31.848 229.678C32.4114 229.113 33.176 228.794 33.9742 228.791H49.2421L61.0606 240.977V265.122C61.0606 265.92 60.7442 266.686 60.1808 267.252C59.6174 267.817 58.8528 268.136 58.0546 268.139Z" fill="#EBEBEB"/>
<path d="M49.242 228.791V238.166C49.242 238.908 49.5371 239.621 50.0623 240.146C50.5875 240.671 51.2998 240.966 52.0426 240.966H61.0605L49.242 228.791Z" fill="#F5F5F5"/>
<path d="M49.372 238.988C49.3762 239.698 49.6229 240.385 50.0713 240.936C50.5197 241.486 51.1428 241.867 51.8374 242.015C51.9369 242.043 52.038 242.065 52.1402 242.08C53.308 242.296 61.0608 243.67 61.0608 243.497V240.977H52.0428C52.0428 240.977 49.7937 240.869 49.372 238.988Z" fill="#E0E0E0"/>
<path d="M58.0547 268.139C58.0547 268.139 58.2277 268.139 58.5737 268.074C59.074 267.979 59.5424 267.759 59.9361 267.436C60.2573 267.171 60.5194 266.842 60.7056 266.469C60.8918 266.097 60.9981 265.69 61.0174 265.274C61.0174 264.301 61.0174 263.165 61.0174 261.911C61.0174 256.872 61.0174 249.649 61.0174 240.934L49.1665 228.867H49.2422H34.6555C34.2705 228.834 33.8835 228.834 33.4985 228.867C33.1227 228.929 32.7629 229.066 32.44 229.268C32.1171 229.47 31.8374 229.734 31.6171 230.045C31.3041 230.479 31.1204 230.993 31.0872 231.527C31.0872 232.056 31.0872 232.608 31.0872 233.159V236.403C31.0872 238.566 31.0872 240.674 31.0872 242.761V254.774C31.0872 256.688 31.0872 258.548 31.0872 260.365V264.355C31.0728 264.817 31.0981 265.28 31.1629 265.739C31.2816 266.336 31.5841 266.881 32.0282 267.298C32.4722 267.715 33.0354 267.983 33.6391 268.063C34.0317 268.085 34.4251 268.085 34.8177 268.063H39.3699H53.0807H56.8004H53.0267H39.3159H34.7636C34.364 268.09 33.963 268.09 33.5634 268.063C32.942 267.986 32.3585 267.723 31.8896 267.308C31.4206 266.893 31.0882 266.346 30.9359 265.739C30.8929 265.307 30.8929 264.873 30.9359 264.441C30.9359 264.009 30.9359 263.565 30.9359 263.133V254.861C30.9359 251.033 30.9359 247.011 30.9359 242.848V233.246C30.9359 232.694 30.9359 232.165 30.9359 231.591C30.9851 230.895 31.2682 230.235 31.7391 229.718C32.2101 229.202 32.8414 228.86 33.531 228.748C33.9254 228.698 34.3231 228.68 34.7204 228.694H49.2854L61.1256 240.869C61.1256 249.584 61.1256 256.807 61.1256 261.846C61.1256 263.111 61.1256 264.225 61.1256 265.209C61.1023 265.624 60.9944 266.03 60.8084 266.402C60.6225 266.774 60.3624 267.104 60.0443 267.371C59.6416 267.696 59.1605 267.909 58.6494 267.988C58.5199 267.999 58.3896 267.999 58.2601 267.988L58.0547 268.139Z" fill="#E0E0E0"/>
<path d="M61.0608 240.977H60.8338H60.1634H57.7196H54.0973H51.9347C51.538 240.965 51.1481 240.871 50.7891 240.702C50.4301 240.532 50.1098 240.291 49.8478 239.993C49.5767 239.678 49.3742 239.31 49.2531 238.912C49.1417 238.54 49.0978 238.152 49.1234 237.766V235.603C49.1234 234.241 49.1234 233.019 49.1234 231.981C49.1234 230.943 49.1234 230.142 49.1234 229.537C49.1234 229.267 49.1234 229.05 49.1234 228.877C49.1234 228.704 49.1234 228.639 49.1234 228.639C49.1388 228.718 49.1388 228.799 49.1234 228.877V229.537C49.1234 230.142 49.1234 230.975 49.1234 231.981C49.1234 232.986 49.1234 234.241 49.1234 235.603C49.1234 236.284 49.1234 236.998 49.1234 237.766C49.0929 238.135 49.1364 238.508 49.2515 238.86C49.3667 239.213 49.551 239.539 49.7938 239.82C50.0377 240.098 50.3366 240.322 50.6716 240.478C51.0066 240.635 51.3705 240.72 51.7401 240.728H53.9027H57.525H59.9687H60.6391C60.9852 240.955 61.0608 240.966 61.0608 240.977Z" fill="#E0E0E0"/>
<path d="M48.7879 237.16C48.7879 237.214 45.9441 237.268 42.4407 237.268C38.9373 237.268 36.0935 237.268 36.0935 237.16C36.0935 237.052 38.9373 237.052 42.4407 237.052C45.9441 237.052 48.7879 237.106 48.7879 237.16Z" fill="#E0E0E0"/>
<path d="M54.8107 241.842C54.8107 241.896 50.6261 241.939 45.4575 241.939C40.2889 241.939 36.0935 241.939 36.0935 241.842C36.0935 241.745 40.2781 241.734 45.4575 241.734C50.6369 241.734 54.8107 241.777 54.8107 241.842Z" fill="#E0E0E0"/>
<path d="M54.8107 246.513C54.8107 246.578 50.6261 246.621 45.4575 246.621C40.2889 246.621 36.0935 246.621 36.0935 246.513C36.0935 246.405 40.2781 246.405 45.4575 246.405C50.6369 246.405 54.8107 246.459 54.8107 246.513Z" fill="#E0E0E0"/>
<path d="M54.8107 251.195C54.8107 251.249 50.6261 251.303 45.4575 251.303C40.2889 251.303 36.0935 251.303 36.0935 251.195C36.0935 251.087 40.2781 251.087 45.4575 251.087C50.6369 251.087 54.8107 251.13 54.8107 251.195Z" fill="#E0E0E0"/>
<path d="M54.8107 255.866C54.8107 255.931 50.6261 255.975 45.4575 255.975C40.2889 255.975 36.0935 255.975 36.0935 255.866C36.0935 255.758 40.2781 255.769 45.4575 255.769C50.6369 255.769 54.8107 255.812 54.8107 255.866Z" fill="#E0E0E0"/>
<path d="M54.8107 261.64C54.8107 261.695 50.6261 261.749 45.4575 261.749C40.2889 261.749 36.0935 261.695 36.0935 261.64C36.0935 261.586 40.2781 261.532 45.4575 261.532C50.6369 261.532 54.8107 261.586 54.8107 261.64Z" fill="#E0E0E0"/>
<path d="M60.9203 278.12C60.9203 278.271 54.2379 278.401 46.0093 278.401C37.7806 278.401 31.0982 278.271 31.0982 278.12C31.0982 277.968 37.7698 277.838 46.0093 277.838C54.2487 277.838 60.9203 277.968 60.9203 278.12Z" fill="#E0E0E0"/>
<path d="M55.6111 282.023C52.4185 282.301 49.2126 282.395 46.0092 282.304C42.8058 282.395 39.5999 282.302 36.4073 282.023C39.5999 281.744 42.8058 281.651 46.0092 281.742C49.2126 281.651 52.4185 281.745 55.6111 282.023Z" fill="#E0E0E0"/>
<path d="M216.367 265.739H192.275C191.88 265.74 191.489 265.663 191.123 265.513C190.758 265.362 190.426 265.141 190.147 264.861C189.867 264.582 189.646 264.25 189.495 263.885C189.345 263.519 189.268 263.128 189.269 262.733V229.429C189.268 229.033 189.345 228.641 189.495 228.275C189.646 227.909 189.867 227.576 190.146 227.296C190.425 227.016 190.757 226.794 191.123 226.642C191.488 226.49 191.88 226.412 192.275 226.412H207.543L219.362 238.587V262.743C219.359 263.537 219.042 264.297 218.481 264.858C217.92 265.419 217.16 265.736 216.367 265.739Z" fill="#EBEBEB"/>
<path d="M207.565 226.412V235.787C207.565 236.529 207.86 237.242 208.385 237.767C208.911 238.292 209.623 238.587 210.366 238.587H219.384L207.565 226.412Z" fill="#F5F5F5"/>
<path d="M207.684 236.609C207.689 237.32 207.937 238.009 208.387 238.56C208.838 239.111 209.464 239.491 210.16 239.636L210.452 239.701C211.631 239.907 219.384 241.291 219.384 241.107V238.587H210.366C210.366 238.587 208.116 238.512 207.684 236.609Z" fill="#E0E0E0"/>
<path d="M216.367 265.739C216.541 265.733 216.714 265.715 216.886 265.685C217.39 265.592 217.863 265.372 218.259 265.047C218.581 264.782 218.843 264.453 219.029 264.08C219.216 263.708 219.322 263.3 219.34 262.884C219.34 261.922 219.34 260.786 219.34 259.532C219.34 254.482 219.34 247.27 219.34 238.544V238.609L207.489 226.488H207.565H192.978C192.594 226.455 192.206 226.455 191.822 226.488C191.446 226.55 191.086 226.687 190.763 226.889C190.44 227.091 190.16 227.355 189.94 227.666C189.626 228.096 189.438 228.606 189.399 229.137C189.399 229.677 189.399 230.218 189.399 230.78V252.406C189.399 254.32 189.399 256.18 189.399 257.997V261.986C189.379 262.409 189.397 262.832 189.453 263.252C189.572 263.849 189.875 264.394 190.319 264.811C190.763 265.228 191.326 265.496 191.93 265.576C192.308 265.576 192.719 265.576 193.108 265.576H197.682H193.141C192.741 265.598 192.34 265.598 191.94 265.576C191.524 265.522 191.122 265.382 190.762 265.165C190.392 264.944 190.072 264.648 189.823 264.296C189.573 263.944 189.4 263.544 189.313 263.122C189.254 262.692 189.232 262.258 189.248 261.824V252.244C189.248 248.416 189.248 244.394 189.248 240.231V230.629C189.248 230.078 189.248 229.548 189.248 228.975C189.286 228.401 189.484 227.85 189.821 227.385C190.301 226.713 191.028 226.258 191.843 226.12C192.239 226.093 192.637 226.093 193.033 226.12H207.662L219.47 238.317C219.47 247.043 219.47 254.255 219.47 259.305C219.47 260.57 219.47 261.684 219.47 262.668C219.446 263.083 219.337 263.488 219.151 263.86C218.965 264.232 218.706 264.562 218.389 264.83C217.984 265.151 217.504 265.364 216.994 265.447C216.865 265.465 216.734 265.465 216.605 265.447L216.367 265.739Z" fill="#E0E0E0"/>
<path d="M219.383 238.587C219.383 238.587 219.308 238.587 219.156 238.587H218.486L216.064 238.706H212.442H210.279C209.675 238.692 209.091 238.488 208.61 238.123C208.129 237.758 207.774 237.251 207.597 236.673C207.488 236.302 207.441 235.914 207.457 235.527C207.457 234.781 207.457 234.068 207.457 233.365C207.457 232.002 207.457 230.78 207.457 229.742C207.457 228.704 207.457 227.904 207.457 227.299C207.457 227.028 207.457 226.812 207.457 226.628C207.447 226.553 207.447 226.477 207.457 226.401C207.466 226.477 207.466 226.553 207.457 226.628V227.299C207.457 227.904 207.457 228.726 207.457 229.742C207.457 230.759 207.457 232.002 207.457 233.365C207.457 234.046 207.457 234.76 207.457 235.527C207.426 235.897 207.47 236.269 207.585 236.622C207.7 236.975 207.884 237.301 208.127 237.582C208.371 237.86 208.67 238.084 209.005 238.24C209.34 238.397 209.704 238.482 210.074 238.49H212.236H215.858H218.302H218.973L219.383 238.587Z" fill="#E0E0E0"/>
<path d="M207.111 234.781C207.111 234.781 204.267 234.889 200.764 234.889C197.26 234.889 194.406 234.835 194.406 234.781C194.406 234.727 197.25 234.673 200.764 234.673C204.278 234.673 207.111 234.716 207.111 234.781Z" fill="#E0E0E0"/>
<path d="M213.134 239.453C213.134 239.517 208.949 239.561 203.77 239.561C198.59 239.561 194.406 239.561 194.406 239.453C194.406 239.344 198.601 239.355 203.77 239.355C208.938 239.355 213.134 239.398 213.134 239.453Z" fill="#E0E0E0"/>
<path d="M213.134 244.113C213.134 244.178 208.949 244.221 203.77 244.221C198.59 244.221 194.406 244.221 194.406 244.113C194.406 244.005 198.601 244.005 203.77 244.005C208.938 244.005 213.134 244.113 213.134 244.113Z" fill="#E0E0E0"/>
<path d="M213.134 248.817C213.134 248.817 208.949 248.914 203.77 248.914C198.59 248.914 194.406 248.914 194.406 248.817C194.406 248.719 198.601 248.708 203.77 248.708C208.938 248.708 213.134 248.752 213.134 248.817Z" fill="#E0E0E0"/>
<path d="M213.134 253.488C213.134 253.553 208.949 253.596 203.77 253.596C198.59 253.596 194.406 253.596 194.406 253.488C194.406 253.379 198.601 253.379 203.77 253.379C208.938 253.379 213.134 253.434 213.134 253.488Z" fill="#E0E0E0"/>
<path d="M213.134 259.251C213.134 259.305 208.949 259.359 203.77 259.359C198.59 259.359 194.406 259.305 194.406 259.251C194.406 259.197 198.601 259.143 203.77 259.143C208.938 259.143 213.134 259.251 213.134 259.251Z" fill="#E0E0E0"/>
<path d="M219.243 275.741C219.243 275.892 212.561 276.022 204.321 276.022C196.082 276.022 189.41 275.892 189.41 275.741C189.41 275.589 196.093 275.459 204.321 275.459C212.55 275.459 219.243 275.578 219.243 275.741Z" fill="#E0E0E0"/>
<path d="M213.901 279.644C210.709 279.923 207.503 280.017 204.3 279.925C201.1 280.016 197.897 279.923 194.708 279.644C197.897 279.366 201.1 279.272 204.3 279.363C207.503 279.272 210.709 279.366 213.901 279.644Z" fill="#E0E0E0"/>
<path d="M120.91 24.4264L121.992 45.9657C121.993 46.3072 122.123 46.6356 122.355 46.886C122.588 47.1363 122.905 47.2902 123.246 47.3173H156.463C156.811 47.2791 157.131 47.1084 157.357 46.8406C157.582 46.5729 157.696 46.2286 157.674 45.8792V29.1084C157.701 28.7485 157.584 28.3928 157.349 28.1191C157.114 27.8455 156.78 27.6762 156.42 27.6486L136.048 27.8541C135.879 27.8516 135.712 27.8127 135.559 27.7399C135.406 27.6672 135.27 27.5622 135.162 27.4324L131.615 23.3451C131.507 23.2174 131.373 23.1146 131.222 23.0437C131.071 22.9727 130.906 22.9354 130.739 22.9342H122.089C121.738 22.9828 121.419 23.1652 121.2 23.4433C120.98 23.7214 120.876 24.0736 120.91 24.4264Z" fill="#EBEBEB"/>
<path d="M157.706 25.1077H121.407V50.4208H157.706V25.1077Z" fill="#F5F5F5"/>
<path d="M118.52 27.3783L121.289 53.8051C121.301 54.0154 121.388 54.2143 121.535 54.3652C121.682 54.5162 121.879 54.6091 122.089 54.6269H157.469C157.687 54.6105 157.89 54.5122 158.039 54.3517C158.187 54.1912 158.269 53.9805 158.269 53.7619L160.053 27.3567C160.068 27.2379 160.059 27.1173 160.027 27.0019C159.994 26.8866 159.939 26.7789 159.865 26.6852C159.79 26.5915 159.698 26.5137 159.593 26.4563C159.487 26.3989 159.372 26.3631 159.253 26.3511H119.321C119.199 26.3629 119.082 26.3993 118.975 26.4581C118.868 26.5168 118.775 26.5967 118.7 26.6928C118.625 26.7889 118.57 26.8993 118.54 27.0171C118.509 27.135 118.502 27.2579 118.52 27.3783Z" fill="#EBEBEB"/>
<path d="M154.193 68.0025C154.193 68.1647 147.521 68.2837 139.281 68.2837C131.042 68.2837 124.37 68.1647 124.37 68.0025C124.37 67.8403 131.042 67.7214 139.281 67.7214C147.521 67.7214 154.193 67.8619 154.193 68.0025Z" fill="#E0E0E0"/>
<path d="M148.883 71.906C145.695 72.1906 142.492 72.2845 139.292 72.1871C136.089 72.2846 132.882 72.1907 129.69 71.906C132.883 71.6277 136.089 71.5339 139.292 71.6248C142.492 71.5339 145.694 71.6278 148.883 71.906Z" fill="#E0E0E0"/>
<path d="M121.992 125.69L123.127 147.229C123.123 147.573 123.251 147.906 123.484 148.159C123.717 148.412 124.038 148.567 124.381 148.591H157.674C158.031 148.564 158.363 148.396 158.596 148.124C158.829 147.852 158.945 147.499 158.918 147.142V130.361C158.931 130.183 158.909 130.005 158.853 129.836C158.797 129.667 158.708 129.51 158.592 129.376C158.475 129.241 158.333 129.131 158.174 129.051C158.015 128.972 157.841 128.924 157.664 128.912L137.238 129.063C137.069 129.061 136.902 129.022 136.749 128.949C136.596 128.876 136.46 128.771 136.351 128.642L132.805 124.565C132.698 124.436 132.564 124.332 132.413 124.259C132.262 124.186 132.097 124.147 131.929 124.143H123.278C123.091 124.155 122.907 124.205 122.739 124.291C122.571 124.376 122.422 124.495 122.302 124.639C122.182 124.784 122.092 124.952 122.039 125.132C121.985 125.313 121.969 125.503 121.992 125.69Z" fill="#EBEBEB"/>
<path d="M158.874 126.36H122.575V151.673H158.874V126.36Z" fill="#F5F5F5"/>
<path d="M119.688 128.641L122.467 155.036C122.472 155.247 122.556 155.448 122.702 155.6C122.848 155.752 123.046 155.844 123.257 155.858H158.637C158.854 155.844 159.057 155.748 159.206 155.589C159.355 155.43 159.437 155.221 159.437 155.003L161.221 128.598C161.236 128.479 161.227 128.359 161.195 128.243C161.162 128.128 161.107 128.02 161.033 127.927C160.958 127.833 160.866 127.755 160.761 127.698C160.655 127.64 160.54 127.605 160.421 127.593H120.489C120.365 127.604 120.246 127.641 120.137 127.701C120.029 127.761 119.934 127.843 119.859 127.942C119.784 128.04 119.73 128.153 119.7 128.274C119.671 128.394 119.667 128.519 119.688 128.641Z" fill="#EBEBEB"/>
<path d="M155.36 169.266C155.36 169.417 148.689 169.547 140.449 169.547C132.21 169.547 125.538 169.417 125.538 169.266C125.538 169.114 132.21 168.985 140.449 168.985C148.689 168.985 155.36 169.104 155.36 169.266Z" fill="#E0E0E0"/>
<path d="M150.105 173.169C146.912 173.448 143.706 173.542 140.503 173.45C137.3 173.541 134.094 173.447 130.901 173.169C134.093 172.884 137.3 172.791 140.503 172.888C143.706 172.79 146.913 172.884 150.105 173.169Z" fill="#E0E0E0"/>
<path d="M104.464 250.536L105.61 272.075C105.604 272.418 105.729 272.751 105.96 273.004C106.191 273.258 106.511 273.413 106.853 273.438H140.071C140.428 273.41 140.761 273.242 140.996 272.971C141.231 272.7 141.349 272.347 141.325 271.989V255.207C141.338 255.029 141.316 254.851 141.26 254.682C141.204 254.513 141.116 254.356 140.999 254.222C140.883 254.087 140.741 253.977 140.581 253.897C140.422 253.818 140.248 253.77 140.071 253.758L119.634 253.909C119.465 253.907 119.298 253.868 119.145 253.795C118.992 253.722 118.856 253.618 118.748 253.488L115.201 249.411C115.094 249.282 114.96 249.178 114.809 249.105C114.658 249.032 114.493 248.993 114.325 248.989H105.675C105.494 249.011 105.318 249.068 105.159 249.157C105 249.247 104.86 249.367 104.747 249.511C104.635 249.654 104.552 249.819 104.503 249.995C104.455 250.171 104.441 250.355 104.464 250.536Z" fill="#EBEBEB"/>
<path d="M141.314 251.206H105.015V276.519H141.314V251.206Z" fill="#F5F5F5"/>
<path d="M102.128 253.477L104.907 279.882C104.912 280.093 104.996 280.294 105.142 280.446C105.288 280.598 105.486 280.69 105.697 280.704H141.077C141.295 280.687 141.498 280.589 141.647 280.429C141.795 280.268 141.877 280.057 141.877 279.839L143.618 253.444C143.634 253.325 143.626 253.203 143.595 253.086C143.563 252.97 143.509 252.861 143.434 252.766C143.359 252.671 143.266 252.592 143.16 252.534C143.054 252.476 142.938 252.44 142.817 252.428H102.929C102.805 252.439 102.685 252.476 102.577 252.537C102.469 252.597 102.374 252.679 102.299 252.777C102.224 252.876 102.17 252.989 102.14 253.109C102.111 253.23 102.107 253.355 102.128 253.477Z" fill="#EBEBEB"/>
<path d="M137.8 294.112C137.8 294.263 131.128 294.393 122.889 294.393C114.649 294.393 107.978 294.263 107.978 294.112C107.978 293.96 114.66 293.831 122.889 293.831C131.117 293.831 137.8 293.95 137.8 294.112Z" fill="#E0E0E0"/>
<path d="M132.491 298.015C129.298 298.294 126.092 298.388 122.889 298.296C119.685 298.387 116.479 298.294 113.287 298.015C116.479 297.731 119.685 297.637 122.889 297.734C126.092 297.636 129.298 297.73 132.491 298.015Z" fill="#E0E0E0"/>
<path d="M466.308 18.4901H226.044V229.786H466.308V18.4901Z" fill="white"/>
<path d="M466.308 229.786C466.308 227.785 466.21 145.629 466.07 18.4902L466.308 18.728H226.066L226.347 18.4469C226.347 95.2187 226.347 167.546 226.347 229.742L226.098 229.494L466.362 229.742L226.098 229.991H225.795V229.742C225.795 167.546 225.795 95.2404 225.795 18.4469V18.1658H226.098H466.34H466.578V18.4037C466.405 145.629 466.308 227.785 466.308 229.786Z" fill="#E0E0E0"/>
<path d="M467 40.1699C467 40.2673 413.66 40.3538 347.874 40.3538C282.088 40.3538 228.726 40.2673 228.726 40.1699C228.726 40.0726 282.066 39.9753 347.874 39.9753C413.681 39.9753 467 40.0618 467 40.1699Z" fill="#E0E0E0"/>
<path d="M242.394 30.2762C242.402 30.7656 242.265 31.2464 241.999 31.6575C241.734 32.0685 241.352 32.3913 240.902 32.5845C240.452 32.7778 239.955 32.8328 239.474 32.7426C238.993 32.6524 238.55 32.4211 238.201 32.0781C237.852 31.7351 237.613 31.2959 237.514 30.8166C237.415 30.3372 237.461 29.8393 237.647 29.3863C237.832 28.9333 238.148 28.5457 238.554 28.2728C238.96 27.9999 239.439 27.8542 239.928 27.8541C240.575 27.854 241.195 28.1078 241.656 28.5608C242.117 29.0139 242.382 29.6299 242.394 30.2762Z" fill="#EBEBEB"/>
<path d="M250.493 30.2762C250.501 30.7656 250.364 31.2464 250.098 31.6575C249.833 32.0685 249.451 32.3913 249.001 32.5845C248.551 32.7778 248.054 32.8328 247.573 32.7426C247.092 32.6524 246.649 32.4211 246.3 32.0781C245.951 31.7351 245.712 31.2959 245.613 30.8166C245.514 30.3372 245.56 29.8393 245.746 29.3863C245.931 28.9333 246.247 28.5457 246.653 28.2728C247.059 27.9999 247.538 27.8542 248.027 27.8541C248.674 27.854 249.294 28.1078 249.755 28.5608C250.217 29.0139 250.481 29.6299 250.493 30.2762Z" fill="#EBEBEB"/>
<path d="M258.591 30.2762C258.6 30.7656 258.462 31.2464 258.197 31.6575C257.931 32.0685 257.549 32.3913 257.1 32.5845C256.65 32.7778 256.153 32.8328 255.672 32.7426C255.191 32.6524 254.748 32.4211 254.398 32.0781C254.049 31.7351 253.81 31.2959 253.711 30.8166C253.613 30.3372 253.659 29.8393 253.844 29.3863C254.03 28.9333 254.345 28.5457 254.752 28.2728C255.158 27.9999 255.636 27.8542 256.126 27.8541C256.772 27.854 257.393 28.1078 257.854 28.5608C258.315 29.0139 258.58 29.6299 258.591 30.2762Z" fill="#EBEBEB"/>
<path d="M455.127 58.8114C455.262 58.7963 455.396 58.771 455.527 58.7357C455.716 58.6727 455.889 58.5695 456.035 58.4333C456.181 58.297 456.295 58.1309 456.37 57.9464C456.466 57.6686 456.499 57.3733 456.468 57.0814C456.468 56.7462 456.468 56.3893 456.468 56.0001C456.468 55.2215 456.468 54.3132 456.468 53.3076C456.468 52.302 456.468 51.1451 456.468 49.9232C456.468 49.6096 456.468 49.2852 456.468 48.9825C456.439 48.6695 456.296 48.378 456.067 48.1629C455.838 47.9478 455.538 47.8239 455.224 47.8147H454.143H444.336H387.525C387.225 47.8107 386.935 47.9198 386.713 48.1203C386.49 48.3207 386.351 48.5977 386.324 48.896V57.0381C386.286 57.3421 386.339 57.6505 386.476 57.9248C386.622 58.1757 386.851 58.3672 387.124 58.4654C387.264 58.5088 387.41 58.5307 387.557 58.5303H406.101H431.641L448.855 58.5952H453.537H454.759H455.17C455.033 58.6045 454.896 58.6045 454.759 58.5952H453.537H448.855L431.641 58.66H406.101H391.017H387.557C387.37 58.6586 387.184 58.6295 387.005 58.5735C386.646 58.4431 386.344 58.1905 386.151 57.8599C385.979 57.5271 385.908 57.1513 385.946 56.7786V48.9608C385.981 48.566 386.162 48.1984 386.454 47.9304C386.746 47.6623 387.128 47.5131 387.525 47.5119H444.336H454.143H455.224C455.587 47.5214 455.933 47.6647 456.197 47.9142C456.46 48.1637 456.622 48.5018 456.652 48.8635C456.652 49.2095 456.652 49.5123 456.652 49.8259C456.652 51.0586 456.652 52.1831 456.652 53.2103C456.652 54.2375 456.652 55.1242 456.652 55.9027C456.652 56.3028 456.652 56.6597 456.652 56.984C456.676 57.2882 456.635 57.5941 456.533 57.8815C456.451 58.0714 456.328 58.2407 456.173 58.3772C456.018 58.5137 455.834 58.614 455.635 58.6709C455.482 58.7636 455.306 58.8122 455.127 58.8114Z" fill="#E0E0E0"/>
<path d="M390.477 54.6811L390.661 54.2918C390.991 54.5582 391.404 54.6999 391.828 54.6919C392.445 54.6919 392.704 54.454 392.704 54.1512C392.704 53.2862 390.542 53.8269 390.542 52.5185C390.542 51.967 390.963 51.5021 391.893 51.5021C392.293 51.4995 392.687 51.6081 393.029 51.8157L392.867 52.2265C392.577 52.037 392.239 51.9355 391.893 51.9346C391.288 51.9346 391.028 52.1833 391.028 52.4969C391.028 53.3619 393.191 52.8213 393.191 54.1188C393.191 54.6595 392.758 55.1244 391.818 55.1244C391.334 55.1308 390.862 54.9747 390.477 54.6811Z" fill="#E0E0E0"/>
<path d="M396.283 53.9024H394.121C394.148 54.1349 394.265 54.3475 394.447 54.495C394.629 54.6425 394.861 54.7131 395.094 54.6917C395.238 54.6971 395.381 54.6709 395.514 54.6148C395.646 54.5588 395.765 54.4743 395.862 54.3673L396.132 54.6809C395.995 54.8284 395.827 54.9437 395.64 55.0185C395.453 55.0933 395.252 55.1257 395.051 55.1134C394.87 55.1251 394.689 55.1002 394.518 55.0401C394.348 54.9801 394.191 54.8861 394.058 54.7638C393.924 54.6416 393.817 54.4936 393.743 54.3289C393.668 54.1641 393.627 53.9859 393.623 53.8051C393.616 53.6255 393.645 53.4463 393.71 53.2785C393.774 53.1107 393.872 52.9578 393.998 52.8292C394.123 52.7006 394.274 52.5991 394.44 52.5307C394.606 52.4624 394.784 52.4287 394.964 52.4318C395.144 52.427 395.322 52.4596 395.489 52.5275C395.655 52.5954 395.806 52.6971 395.931 52.8262C396.056 52.9553 396.153 53.109 396.215 53.2775C396.278 53.446 396.305 53.6256 396.294 53.8051C396.294 53.8051 396.283 53.8591 396.283 53.9024ZM394.121 53.5564H395.84C395.821 53.3423 395.721 53.1436 395.56 53.0009C395.399 52.8582 395.19 52.7823 394.975 52.7887C394.759 52.7768 394.546 52.8508 394.384 52.9946C394.222 53.1383 394.124 53.3402 394.11 53.5564H394.121Z" fill="#E0E0E0"/>
<path d="M399.019 53.47V55.0919H398.554V54.7351C398.451 54.8658 398.317 54.9688 398.164 55.0348C398.011 55.1009 397.844 55.1279 397.678 55.1136C397.062 55.1136 396.683 54.7892 396.683 54.3242C396.683 53.8593 396.965 53.5457 397.765 53.5457H398.532V53.4484C398.532 53.0375 398.295 52.7996 397.808 52.7996C397.501 52.795 397.203 52.8984 396.965 53.0915L396.759 52.7239C397.072 52.4925 397.452 52.3708 397.84 52.3779C398.597 52.3779 399.019 52.7239 399.019 53.47ZM398.532 54.2701V53.8917H397.776C397.3 53.8917 397.159 54.0755 397.159 54.3026C397.159 54.5297 397.386 54.7459 397.754 54.7459C397.917 54.7554 398.079 54.7149 398.218 54.6299C398.357 54.5448 398.467 54.4193 398.532 54.2701Z" fill="#E0E0E0"/>
<path d="M401.355 52.3779V52.8537H401.247C401.128 52.8462 401.01 52.8651 400.899 52.909C400.789 52.9529 400.69 53.0208 400.609 53.1078C400.529 53.1947 400.468 53.2985 400.433 53.4117C400.397 53.5248 400.387 53.6445 400.403 53.762V55.1028H399.884V52.3996H400.349V52.8537C400.458 52.6907 400.609 52.5604 400.786 52.4766C400.963 52.3928 401.16 52.3587 401.355 52.3779Z" fill="#E0E0E0"/>
<path d="M401.679 53.8052C401.668 53.6129 401.698 53.4205 401.767 53.2407C401.836 53.0609 401.943 52.898 402.08 52.7629C402.217 52.6277 402.382 52.5235 402.562 52.4571C402.743 52.3907 402.936 52.3637 403.128 52.3778C403.343 52.3652 403.558 52.412 403.749 52.5131C403.94 52.6141 404.099 52.7656 404.209 52.9509L403.842 53.1888C403.764 53.0675 403.657 52.968 403.53 52.8999C403.403 52.8318 403.261 52.7972 403.117 52.7996C402.884 52.8245 402.668 52.935 402.511 53.1097C402.354 53.2843 402.267 53.5109 402.267 53.7457C402.267 53.9805 402.354 54.207 402.511 54.3817C402.668 54.5564 402.884 54.6668 403.117 54.6918C403.261 54.6963 403.404 54.6627 403.532 54.5943C403.659 54.526 403.766 54.4254 403.842 54.3025L404.209 54.5404C404.099 54.7258 403.94 54.8773 403.749 54.9783C403.558 55.0794 403.343 55.1261 403.128 55.1135C402.946 55.1283 402.762 55.1057 402.589 55.047C402.416 54.9883 402.257 54.8948 402.121 54.7722C401.985 54.6497 401.876 54.5007 401.8 54.3344C401.724 54.1681 401.683 53.988 401.679 53.8052Z" fill="#E0E0E0"/>
<path d="M407.334 53.5456V55.0919H406.847V53.5997C406.847 53.0699 406.577 52.8103 406.123 52.8103C406.005 52.8014 405.886 52.8189 405.775 52.8615C405.665 52.904 405.565 52.9707 405.483 53.0566C405.401 53.1425 405.34 53.2454 405.303 53.3581C405.265 53.4707 405.254 53.5902 405.269 53.7078V55.0919H404.782V51.329H405.29V52.7887C405.407 52.6522 405.554 52.5443 405.718 52.4731C405.883 52.4018 406.062 52.3693 406.242 52.3778C406.392 52.3758 406.542 52.4053 406.68 52.4643C406.818 52.5233 406.943 52.6105 407.046 52.7205C407.149 52.8304 407.227 52.9606 407.277 53.1026C407.327 53.2447 407.346 53.3956 407.334 53.5456Z" fill="#E0E0E0"/>
<path d="M408.004 54.7675C408.003 54.7216 408.011 54.676 408.028 54.6333C408.044 54.5907 408.07 54.5519 408.102 54.5195C408.135 54.487 408.173 54.4616 408.216 54.4447C408.259 54.4279 408.304 54.42 408.35 54.4215C408.442 54.4215 408.53 54.4579 408.595 54.5228C408.66 54.5877 408.696 54.6757 408.696 54.7675C408.696 54.8593 408.66 54.9473 408.595 55.0122C408.53 55.077 408.442 55.1135 408.35 55.1135C408.304 55.115 408.259 55.1071 408.216 55.0902C408.173 55.0734 408.135 55.0479 408.102 55.0155C408.07 54.9831 408.044 54.9443 408.028 54.9017C408.011 54.859 408.003 54.8133 408.004 54.7675Z" fill="#E0E0E0"/>
<path d="M409.151 54.7676C409.151 54.6758 409.187 54.5878 409.252 54.5229C409.317 54.458 409.405 54.4215 409.497 54.4215C409.588 54.4215 409.676 54.458 409.741 54.5229C409.806 54.5878 409.843 54.6758 409.843 54.7676C409.843 54.8593 409.806 54.9473 409.741 55.0122C409.676 55.0771 409.588 55.1136 409.497 55.1136C409.405 55.1136 409.317 55.0771 409.252 55.0122C409.187 54.9473 409.151 54.8593 409.151 54.7676Z" fill="#E0E0E0"/>
<path d="M410.297 54.7676C410.297 54.6758 410.333 54.5878 410.398 54.5229C410.463 54.458 410.551 54.4215 410.643 54.4215C410.735 54.4215 410.823 54.458 410.888 54.5229C410.952 54.5878 410.989 54.6758 410.989 54.7676C410.989 54.8593 410.952 54.9473 410.888 55.0122C410.823 55.0771 410.735 55.1136 410.643 55.1136C410.551 55.1136 410.463 55.0771 410.398 55.0122C410.333 54.9473 410.297 54.8593 410.297 54.7676Z" fill="#E0E0E0"/>
<path d="M374.884 76.8475V114.693H420.948V76.8475C420.948 75.9871 420.606 75.162 419.997 74.5537C419.389 73.9454 418.564 73.6036 417.704 73.6036H378.161C377.732 73.5993 377.307 73.68 376.909 73.8411C376.512 74.0022 376.151 74.2405 375.846 74.5421C375.541 74.8438 375.299 75.2029 375.134 75.5985C374.969 75.9942 374.884 76.4187 374.884 76.8475Z" fill="#E0E0E0"/>
<path d="M377.047 94.159L377.361 80.2427H417.661V88.1794" fill="#F5F5F5"/>
<path d="M415.195 76.4799H379.977V80.2428H415.195V76.4799Z" fill="#F5F5F5"/>
<path d="M379.977 76.5124H380.659H382.659L390.098 76.4476L415.195 76.3719H415.379V76.5124C415.379 77.7127 415.379 78.9886 415.379 80.2753C415 80.6538 415.26 80.3835 415.174 80.47H403.96H394.023L379.967 80.3943H379.891V80.3186C379.891 79.1075 379.891 78.156 379.891 77.4964C379.891 77.2045 379.891 76.9666 379.891 76.7936C379.886 76.7144 379.886 76.6349 379.891 76.5557C379.899 76.642 379.899 76.7289 379.891 76.8152C379.891 76.999 379.891 77.2477 379.891 77.5505C379.891 78.1993 379.891 79.1292 379.891 80.3186L379.804 80.2429L393.861 80.1672H403.798H415.022C414.946 80.2429 415.228 79.9726 414.849 80.351V76.5124L415.033 76.7071L390.077 76.6206H382.583H380.55H380.01L379.977 76.5124Z" fill="#E0E0E0"/>
<path d="M419.347 124.219C419.347 124.327 410.545 124.414 399.689 124.414C388.833 124.414 380.031 124.327 380.031 124.219C380.031 124.111 388.833 124.035 399.689 124.035C410.545 124.035 419.347 124.089 419.347 124.219Z" fill="#E0E0E0"/>
<path d="M371.349 87.3253L374.884 114.747H420.947V88.1795H400.035L395.97 84.6112H373.727C373.386 84.6114 373.048 84.6844 372.737 84.8255C372.426 84.9666 372.148 85.1725 371.923 85.4294C371.698 85.6863 371.53 85.9884 371.431 86.3153C371.332 86.6422 371.304 86.9866 371.349 87.3253Z" fill="#EBEBEB"/>
<path d="M408.275 98.9167C408.275 99.0248 403.225 99.1113 397.008 99.1113C390.79 99.1113 385.741 99.0248 385.741 98.9167C385.741 98.8085 390.79 98.7328 397.008 98.7328C403.225 98.7328 408.275 98.8193 408.275 98.9167Z" fill="#E0E0E0"/>
<path d="M408.275 101.62C408.275 101.728 403.225 101.804 397.008 101.804C390.79 101.804 385.741 101.728 385.741 101.62C385.741 101.512 390.79 101.425 397.008 101.425C403.225 101.425 408.275 101.512 408.275 101.62Z" fill="#E0E0E0"/>
<path d="M409.615 129.344C409.615 129.453 404.101 129.539 397.289 129.539C390.477 129.539 384.962 129.453 384.962 129.344C384.962 129.236 390.487 129.161 397.289 129.161C404.09 129.161 409.615 129.247 409.615 129.344Z" fill="#E0E0E0"/>
<path d="M274.703 76.8475V114.693H320.766V76.8475C320.766 75.9871 320.424 75.162 319.816 74.5537C319.207 73.9454 318.382 73.6036 317.522 73.6036H277.979C277.55 73.5993 277.125 73.68 276.728 73.8411C276.33 74.0022 275.969 74.2405 275.664 74.5421C275.359 74.8438 275.118 75.2029 274.953 75.5985C274.788 75.9942 274.703 76.4187 274.703 76.8475Z" fill="#E0E0E0"/>
<path d="M276.865 94.159L277.179 80.2427H317.479V88.1794" fill="#F5F5F5"/>
<path d="M315.013 76.4799H279.796V80.2428H315.013V76.4799Z" fill="#F5F5F5"/>
<path d="M279.796 76.5124H280.477H282.477L289.916 76.4476L315.013 76.3719H315.197V76.5124C315.197 77.7127 315.197 78.9886 315.197 80.2753C314.819 80.6538 315.078 80.3835 314.992 80.47H303.779H293.842L279.785 80.3943H279.709V80.3186C279.709 79.1075 279.709 78.156 279.709 77.4964C279.709 77.2045 279.709 76.9666 279.709 76.7936C279.704 76.7144 279.704 76.6349 279.709 76.5557C279.717 76.642 279.717 76.7289 279.709 76.8152C279.709 76.999 279.709 77.2477 279.709 77.5505C279.709 78.1993 279.709 79.1292 279.709 80.3186L279.623 80.2429L293.679 80.1672H303.616H315.002C314.927 80.2429 315.208 79.9726 314.829 80.351V76.5124L315.013 76.7071L290.057 76.6206H282.564H280.531H279.99L279.796 76.5124Z" fill="#E0E0E0"/>
<path d="M319.111 124.219C319.111 124.327 310.31 124.414 299.454 124.414C288.597 124.414 279.796 124.327 279.796 124.219C279.796 124.111 288.597 124.035 299.454 124.035C310.31 124.035 319.111 124.089 319.111 124.219Z" fill="#E0E0E0"/>
<path d="M271.21 87.3253L274.746 114.747H320.809V88.1795H299.854L295.788 84.6112H273.546C273.208 84.6174 272.875 84.695 272.569 84.8388C272.263 84.9825 271.991 85.1893 271.771 85.4455C271.55 85.7017 271.386 86.0016 271.29 86.3255C271.193 86.6495 271.166 86.9901 271.21 87.3253Z" fill="#EBEBEB"/>
<path d="M308.093 98.9167C308.093 99.0248 303.043 99.1113 296.826 99.1113C290.609 99.1113 285.559 99.0248 285.559 98.9167C285.559 98.8085 290.609 98.7328 296.826 98.7328C303.043 98.7328 308.093 98.8193 308.093 98.9167Z" fill="#E0E0E0"/>
<path d="M308.093 101.62C308.093 101.728 303.043 101.804 296.826 101.804C290.609 101.804 285.559 101.728 285.559 101.62C285.559 101.512 290.609 101.425 296.826 101.425C303.043 101.425 308.093 101.512 308.093 101.62Z" fill="#E0E0E0"/>
<path d="M309.456 129.344C309.456 129.453 303.941 129.539 297.129 129.539C290.317 129.539 284.802 129.453 284.802 129.344C284.802 129.236 290.327 129.161 297.129 129.161C303.93 129.161 309.456 129.247 309.456 129.344Z" fill="#E0E0E0"/>
<path d="M273.264 157.339V195.184H319.317V157.339C319.317 156.479 318.975 155.653 318.367 155.045C317.758 154.437 316.933 154.095 316.073 154.095H276.53C276.102 154.092 275.678 154.174 275.282 154.336C274.886 154.497 274.526 154.736 274.222 155.037C273.919 155.339 273.678 155.698 273.513 156.093C273.349 156.487 273.264 156.911 273.264 157.339Z" fill="#E0E0E0"/>
<path d="M275.427 174.65L275.73 160.734H316.03V168.671" fill="#F5F5F5"/>
<path d="M313.564 156.971H278.347V160.734H313.564V156.971Z" fill="#F5F5F5"/>
<path d="M278.347 156.982H278.52H279.028H281.028L288.467 156.928L313.564 156.842H313.759V160.788C313.38 161.167 313.64 160.897 313.553 160.983H302.33H292.393L278.336 160.907H278.249V160.821C278.249 159.61 278.249 158.658 278.249 157.999C278.249 157.707 278.249 157.48 278.249 157.296C278.249 157.112 278.249 157.058 278.249 157.069C278.259 157.151 278.259 157.235 278.249 157.317C278.249 157.512 278.249 157.75 278.249 158.053C278.249 158.701 278.249 159.631 278.249 160.821L278.174 160.745L292.23 160.669H302.167H313.391C313.316 160.756 313.597 160.486 313.218 160.853V157.101L313.402 157.285L288.446 157.198H280.952H278.92H278.184L278.347 156.982Z" fill="#E0E0E0"/>
<path d="M317.705 204.71C317.705 204.819 308.904 204.905 298.048 204.905C287.191 204.905 278.39 204.819 278.39 204.71C278.39 204.602 287.191 204.527 298.048 204.527C308.904 204.527 317.705 204.613 317.705 204.71Z" fill="#E0E0E0"/>
<path d="M269.718 167.806L273.264 195.228H319.317V168.671H298.404L294.35 165.103H272.097C271.756 165.103 271.419 165.176 271.109 165.316C270.799 165.457 270.522 165.662 270.297 165.917C270.072 166.173 269.904 166.474 269.804 166.799C269.704 167.125 269.675 167.468 269.718 167.806Z" fill="#EBEBEB"/>
<path d="M306.644 179.419C306.644 179.516 301.605 179.603 295.377 179.603C289.149 179.603 284.11 179.516 284.11 179.419C284.11 179.322 289.16 179.224 295.377 179.224C301.594 179.224 306.644 179.311 306.644 179.419Z" fill="#E0E0E0"/>
<path d="M306.644 182.111C306.644 182.22 301.605 182.295 295.377 182.295C289.149 182.295 284.11 182.22 284.11 182.111C284.11 182.003 289.16 181.928 295.377 181.928C301.594 181.928 306.644 182.003 306.644 182.111Z" fill="#E0E0E0"/>
<path d="M307.974 209.836C307.974 209.944 302.459 210.03 295.647 210.03C288.835 210.03 283.32 209.944 283.32 209.836C283.32 209.728 288.846 209.652 295.647 209.652C302.448 209.652 307.974 209.738 307.974 209.836Z" fill="#E0E0E0"/>
<path d="M374.538 157.339V195.184H420.601V157.339C420.601 156.479 420.26 155.653 419.651 155.045C419.043 154.437 418.218 154.095 417.358 154.095H377.804C377.376 154.092 376.952 154.174 376.556 154.336C376.16 154.497 375.8 154.736 375.496 155.037C375.193 155.339 374.952 155.698 374.787 156.093C374.623 156.487 374.538 156.911 374.538 157.339Z" fill="#E0E0E0"/>
<path d="M376.701 174.65L377.004 160.734H417.314V168.671" fill="#F5F5F5"/>
<path d="M414.849 156.971H379.631V160.734H414.849V156.971Z" fill="#F5F5F5"/>
<path d="M379.631 156.982C379.631 156.982 379.686 156.982 379.794 156.982H380.302H382.302L389.752 156.928L414.849 156.842H415.022V160.788L414.828 160.983H403.615H393.677L379.621 160.907H379.534V160.821C379.534 159.61 379.534 158.658 379.588 157.999C379.588 157.707 379.588 157.48 379.588 157.296C379.588 157.112 379.588 157.058 379.588 157.069C379.593 157.152 379.593 157.235 379.588 157.317C379.588 157.512 379.588 157.75 379.588 158.053C379.588 158.701 379.588 159.631 379.588 160.821L379.513 160.745L393.569 160.669H403.506H414.73C414.644 160.756 414.925 160.486 414.546 160.853V157.101L414.741 157.285L389.774 157.198H382.291H380.248H379.523L379.631 156.982Z" fill="#E0E0E0"/>
<path d="M418.947 204.71C418.947 204.819 410.145 204.905 399.289 204.905C388.433 204.905 379.631 204.819 379.631 204.71C379.631 204.602 388.433 204.527 399.289 204.527C410.145 204.527 418.947 204.613 418.947 204.71Z" fill="#E0E0E0"/>
<path d="M370.992 167.806L374.538 195.228H420.601V168.671H399.678L395.624 165.103H373.371C373.03 165.103 372.693 165.176 372.383 165.316C372.073 165.457 371.796 165.662 371.571 165.917C371.346 166.173 371.178 166.474 371.078 166.799C370.978 167.125 370.949 167.468 370.992 167.806Z" fill="#EBEBEB"/>
<path d="M407.918 179.419C407.918 179.516 402.879 179.603 396.662 179.603C390.444 179.603 385.395 179.516 385.395 179.419C385.395 179.322 390.433 179.235 396.64 179.235C402.847 179.235 407.918 179.311 407.918 179.419Z" fill="#E0E0E0"/>
<path d="M407.918 182.111C407.918 182.22 402.879 182.295 396.662 182.295C390.444 182.295 385.395 182.22 385.395 182.111C385.395 182.003 390.433 181.928 396.662 181.928C402.89 181.928 407.918 182.003 407.918 182.111Z" fill="#E0E0E0"/>
<path d="M409.291 209.836C409.291 209.944 403.766 210.03 396.965 210.03C390.163 210.03 384.638 209.944 384.638 209.836C384.638 209.728 390.152 209.652 396.965 209.652C403.777 209.652 409.291 209.738 409.291 209.836Z" fill="#E0E0E0"/>
</svg>
